Bellefair-Regular.sfdir
StartChar: exclam
Encoding: 33 33 349
Width: 319
Flags: W
LayerCount: 2
Fore
SplineSet
128 592 m 2,0,1
 128 635 128 635 124 656 c 128,-1,2
 120 677 120 677 114.5 684 c 128,-1,3
 109 691 109 691 109 688 c 2,4,-1
 208 688 l 2,5,6
 203 688 203 688 197.5 670 c 128,-1,7
 192 652 192 652 192 592 c 2,8,-1
 192 354 l 2,9,10
 192 288 192 288 185 249 c 0,11,12
 179 218 179 218 171 189.5 c 128,-1,13
 163 161 163 161 160 153 c 1,14,15
 157 161 157 161 149.5 189.5 c 128,-1,16
 142 218 142 218 136 248 c 0,17,18
 128 285 128 285 128 355 c 2,19,-1
 128 592 l 2,0,1
197 75 m 128,-1,21
 210 60 210 60 210 40 c 0,22,23
 210 19 210 19 197 4 c 128,-1,24
 184 -11 184 -11 161 -11 c 256,25,26
 138 -11 138 -11 125.5 4 c 128,-1,27
 113 19 113 19 113 40 c 256,28,29
 113 61 113 61 125.5 75.5 c 128,-1,30
 138 90 138 90 161 90 c 256,31,20
 184 90 184 90 197 75 c 128,-1,21
EndSplineSet
Validated: 5
PairPos2: "'kern' Horizontal Kerning lookup 2 per glyph data 3" uni05D6 dx=10 dy=0 dh=10 dv=0 dx=0 dy=0 dh=0 dv=0
PairPos2: "'kern' Horizontal Kerning lookup 2 per glyph data 3" uni05E9 dx=10 dy=0 dh=10 dv=0 dx=0 dy=0 dh=0 dv=0
PairPos2: "'kern' Horizontal Kerning lookup 2 per glyph data 3" question dx=10 dy=0 dh=10 dv=0 dx=0 dy=0 dh=0 dv=0
PairPos2: "'kern' Horizontal Kerning lookup 2 per glyph data 3" uni05E7 dx=10 dy=0 dh=10 dv=0 dx=0 dy=0 dh=0 dv=0
PairPos2: "'kern' Horizontal Kerning lookup 2 per glyph data 3" uni05DE dx=-10 dy=0 dh=-10 dv=0 dx=0 dy=0 dh=0 dv=0
PairPos2: "'kern' Horizontal Kerning lookup 2 per glyph data 3" uni05BE dx=20 dy=0 dh=20 dv=0 dx=0 dy=0 dh=0 dv=0
PairPos2: "'kern' Horizontal Kerning lookup 2 per glyph data 3" uni05DC dx=10 dy=0 dh=10 dv=0 dx=0 dy=0 dh=0 dv=0
PairPos2: "'kern' Horizontal Kerning lookup 2 per glyph data 3" uni05F3 dx=30 dy=0 dh=30 dv=0 dx=0 dy=0 dh=0 dv=0
PairPos2: "'kern' Horizontal Kerning lookup 2 per glyph data 3" uni05D3 dx=10 dy=0 dh=10 dv=0 dx=0 dy=0 dh=0 dv=0
PairPos2: "'kern' Horizontal Kerning lookup 2 per glyph data 3" quotesinglbase dx=-50 dy=0 dh=-50 dv=0 dx=0 dy=0 dh=0 dv=0
PairPos2: "'kern' Horizontal Kerning lookup 2 per glyph data 3" quotedblbase dx=-50 dy=0 dh=-50 dv=0 dx=0 dy=0 dh=0 dv=0
PairPos2: "'kern' Horizontal Kerning lookup 2 per glyph data 3" period dx=-50 dy=0 dh=-50 dv=0 dx=0 dy=0 dh=0 dv=0
PairPos2: "'kern' Horizontal Kerning lookup 2 per glyph data 3" ellipsis dx=-50 dy=0 dh=-50 dv=0 dx=0 dy=0 dh=0 dv=0
PairPos2: "'kern' Horizontal Kerning lookup 2 per glyph data 3" comma dx=-50 dy=0 dh=-50 dv=0 dx=0 dy=0 dh=0 dv=0
PairPos2: "'kern' Horizontal Kerning lookup 2 per glyph data 3" uni00AD dx=-20 dy=0 dh=-20 dv=0 dx=0 dy=0 dh=0 dv=0
PairPos2: "'kern' Horizontal Kerning lookup 2 per glyph data 3" hyphen dx=-20 dy=0 dh=-20 dv=0 dx=0 dy=0 dh=0 dv=0
PairPos2: "'kern' Horizontal Kerning lookup 2 per glyph data 3" endash dx=-20 dy=0 dh=-20 dv=0 dx=0 dy=0 dh=0 dv=0
PairPos2: "'kern' Horizontal Kerning lookup 2 per glyph data 3" emdash dx=-20 dy=0 dh=-20 dv=0 dx=0 dy=0 dh=0 dv=0
PairPos2: "'kern' Horizontal Kerning lookup 2 per glyph data 2" uni05DA dx=10 dy=0 dh=10 dv=0 dx=0 dy=0 dh=0 dv=0
EndChar
StartChar: quotedbl
Encoding: 34 34 355
Width: 448
Flags: W
LayerCount: 2
Fore
SplineSet
121.5 407.5 m 128,-1,1
 114 432 114 432 107 471.5 c 128,-1,2
 100 511 100 511 100 554 c 2,3,-1
 100 688 l 1,4,-1
 164 688 l 1,5,-1
 164 554 l 2,6,7
 164 511 164 511 157 471.5 c 128,-1,8
 150 432 150 432 142.5 407.5 c 128,-1,9
 135 383 135 383 132 377 c 1,10,0
 129 383 129 383 121.5 407.5 c 128,-1,1
304.5 408.5 m 128,-1,12
 297 433 297 433 290 472 c 128,-1,13
 283 511 283 511 283 554 c 2,14,-1
 283 688 l 1,15,-1
 348 688 l 1,16,-1
 348 554 l 2,17,18
 348 511 348 511 340.5 472 c 128,-1,19
 333 433 333 433 325.5 408.5 c 128,-1,20
 318 384 318 384 315 378 c 1,21,11
 312 384 312 384 304.5 408.5 c 128,-1,12
EndSplineSet
Validated: 1
PairPos2: "'kern' Horizontal Kerning lookup 2 per glyph data 3" uni05D6 dx=10 dy=0 dh=10 dv=0 dx=0 dy=0 dh=0 dv=0
PairPos2: "'kern' Horizontal Kerning lookup 2 per glyph data 3" uni05E9 dx=10 dy=0 dh=10 dv=0 dx=0 dy=0 dh=0 dv=0
PairPos2: "'kern' Horizontal Kerning lookup 2 per glyph data 3" question dx=10 dy=0 dh=10 dv=0 dx=0 dy=0 dh=0 dv=0
PairPos2: "'kern' Horizontal Kerning lookup 2 per glyph data 3" uni05E7 dx=10 dy=0 dh=10 dv=0 dx=0 dy=0 dh=0 dv=0
PairPos2: "'kern' Horizontal Kerning lookup 2 per glyph data 3" uni05DE dx=-10 dy=0 dh=-10 dv=0 dx=0 dy=0 dh=0 dv=0
PairPos2: "'kern' Horizontal Kerning lookup 2 per glyph data 3" uni05BE dx=20 dy=0 dh=20 dv=0 dx=0 dy=0 dh=0 dv=0
PairPos2: "'kern' Horizontal Kerning lookup 2 per glyph data 3" uni05DC dx=10 dy=0 dh=10 dv=0 dx=0 dy=0 dh=0 dv=0
PairPos2: "'kern' Horizontal Kerning lookup 2 per glyph data 3" uni05F3 dx=30 dy=0 dh=30 dv=0 dx=0 dy=0 dh=0 dv=0
PairPos2: "'kern' Horizontal Kerning lookup 2 per glyph data 3" uni05D3 dx=10 dy=0 dh=10 dv=0 dx=0 dy=0 dh=0 dv=0
PairPos2: "'kern' Horizontal Kerning lookup 2 per glyph data 3" quotesinglbase dx=-50 dy=0 dh=-50 dv=0 dx=0 dy=0 dh=0 dv=0
PairPos2: "'kern' Horizontal Kerning lookup 2 per glyph data 3" quotedblbase dx=-50 dy=0 dh=-50 dv=0 dx=0 dy=0 dh=0 dv=0
PairPos2: "'kern' Horizontal Kerning lookup 2 per glyph data 3" period dx=-50 dy=0 dh=-50 dv=0 dx=0 dy=0 dh=0 dv=0
PairPos2: "'kern' Horizontal Kerning lookup 2 per glyph data 3" ellipsis dx=-50 dy=0 dh=-50 dv=0 dx=0 dy=0 dh=0 dv=0
PairPos2: "'kern' Horizontal Kerning lookup 2 per glyph data 3" comma dx=-50 dy=0 dh=-50 dv=0 dx=0 dy=0 dh=0 dv=0
PairPos2: "'kern' Horizontal Kerning lookup 2 per glyph data 3" uni00AD dx=-20 dy=0 dh=-20 dv=0 dx=0 dy=0 dh=0 dv=0
PairPos2: "'kern' Horizontal Kerning lookup 2 per glyph data 3" hyphen dx=-20 dy=0 dh=-20 dv=0 dx=0 dy=0 dh=0 dv=0
PairPos2: "'kern' Horizontal Kerning lookup 2 per glyph data 3" endash dx=-20 dy=0 dh=-20 dv=0 dx=0 dy=0 dh=0 dv=0
PairPos2: "'kern' Horizontal Kerning lookup 2 per glyph data 3" emdash dx=-20 dy=0 dh=-20 dv=0 dx=0 dy=0 dh=0 dv=0
PairPos2: "'kern' Horizontal Kerning lookup 2 per glyph data 2" uni05EA dx=-50 dy=0 dh=-50 dv=0 dx=0 dy=0 dh=0 dv=0
PairPos2: "'kern' Horizontal Kerning lookup 2 per glyph data 2" uni05E0 dx=-50 dy=0 dh=-50 dv=0 dx=0 dy=0 dh=0 dv=0
EndChar
StartChar: numbersign
Encoding: 35 35 351
Width: 484
Flags: W
LayerCount: 2
Fore
SplineSet
351 194 m 1,0,-1
 430 194 l 1,1,-1
 430 154 l 1,2,-1
 343 154 l 1,3,-1
 312 0 l 1,4,-1
 266 0 l 1,5,-1
 297 154 l 1,6,-1
 166 154 l 1,7,-1
 135 0 l 1,8,-1
 89 0 l 1,9,-1
 120 154 l 1,10,-1
 46 154 l 1,11,-1
 46 194 l 1,12,-1
 128 194 l 1,13,-1
 154 324 l 1,14,-1
 74 324 l 1,15,-1
 74 364 l 1,16,-1
 162 364 l 1,17,-1
 190 506 l 1,18,-1
 236 506 l 1,19,-1
 208 364 l 1,20,-1
 339 364 l 1,21,-1
 368 506 l 1,22,-1
 413 506 l 1,23,-1
 385 364 l 1,24,-1
 456 364 l 1,25,-1
 456 324 l 1,26,-1
 377 324 l 1,27,-1
 351 194 l 1,0,-1
174 194 m 1,28,-1
 305 194 l 1,29,-1
 331 324 l 1,30,-1
 200 324 l 1,31,-1
 174 194 l 1,28,-1
EndSplineSet
Validated: 1
PairPos2: "'kern' Horizontal Kerning lookup 2 per glyph data 3" uni05D6 dx=10 dy=0 dh=10 dv=0 dx=0 dy=0 dh=0 dv=0
PairPos2: "'kern' Horizontal Kerning lookup 2 per glyph data 3" uni05E9 dx=10 dy=0 dh=10 dv=0 dx=0 dy=0 dh=0 dv=0
PairPos2: "'kern' Horizontal Kerning lookup 2 per glyph data 3" question dx=10 dy=0 dh=10 dv=0 dx=0 dy=0 dh=0 dv=0
PairPos2: "'kern' Horizontal Kerning lookup 2 per glyph data 3" uni05E7 dx=10 dy=0 dh=10 dv=0 dx=0 dy=0 dh=0 dv=0
PairPos2: "'kern' Horizontal Kerning lookup 2 per glyph data 3" uni05DE dx=-10 dy=0 dh=-10 dv=0 dx=0 dy=0 dh=0 dv=0
PairPos2: "'kern' Horizontal Kerning lookup 2 per glyph data 3" uni05BE dx=20 dy=0 dh=20 dv=0 dx=0 dy=0 dh=0 dv=0
PairPos2: "'kern' Horizontal Kerning lookup 2 per glyph data 3" uni05DC dx=10 dy=0 dh=10 dv=0 dx=0 dy=0 dh=0 dv=0
PairPos2: "'kern' Horizontal Kerning lookup 2 per glyph data 3" uni05F3 dx=30 dy=0 dh=30 dv=0 dx=0 dy=0 dh=0 dv=0
PairPos2: "'kern' Horizontal Kerning lookup 2 per glyph data 3" uni05D3 dx=10 dy=0 dh=10 dv=0 dx=0 dy=0 dh=0 dv=0
PairPos2: "'kern' Horizontal Kerning lookup 2 per glyph data 3" quotesinglbase dx=-50 dy=0 dh=-50 dv=0 dx=0 dy=0 dh=0 dv=0
PairPos2: "'kern' Horizontal Kerning lookup 2 per glyph data 3" quotedblbase dx=-50 dy=0 dh=-50 dv=0 dx=0 dy=0 dh=0 dv=0
PairPos2: "'kern' Horizontal Kerning lookup 2 per glyph data 3" period dx=-50 dy=0 dh=-50 dv=0 dx=0 dy=0 dh=0 dv=0
PairPos2: "'kern' Horizontal Kerning lookup 2 per glyph data 3" ellipsis dx=-50 dy=0 dh=-50 dv=0 dx=0 dy=0 dh=0 dv=0
PairPos2: "'kern' Horizontal Kerning lookup 2 per glyph data 3" comma dx=-50 dy=0 dh=-50 dv=0 dx=0 dy=0 dh=0 dv=0
PairPos2: "'kern' Horizontal Kerning lookup 2 per glyph data 3" uni00AD dx=-20 dy=0 dh=-20 dv=0 dx=0 dy=0 dh=0 dv=0
PairPos2: "'kern' Horizontal Kerning lookup 2 per glyph data 3" hyphen dx=-20 dy=0 dh=-20 dv=0 dx=0 dy=0 dh=0 dv=0
PairPos2: "'kern' Horizontal Kerning lookup 2 per glyph data 3" endash dx=-20 dy=0 dh=-20 dv=0 dx=0 dy=0 dh=0 dv=0
PairPos2: "'kern' Horizontal Kerning lookup 2 per glyph data 3" emdash dx=-20 dy=0 dh=-20 dv=0 dx=0 dy=0 dh=0 dv=0
PairPos2: "'kern' Horizontal Kerning lookup 2 per glyph data 2" uni05DA dx=10 dy=0 dh=10 dv=0 dx=0 dy=0 dh=0 dv=0
EndChar
StartChar: dollar
Encoding: 36 36 385
Width: 504
Flags: W
LayerCount: 2
Fore
SplineSet
265.5 -63 m 128,-1,1
 267 -94 267 -94 268 -106 c 1,2,-1
 222 -106 l 1,3,4
 222 -94 222 -94 223.5 -63.5 c 128,-1,5
 225 -33 225 -33 225 -6 c 1,6,7
 132 -1 132 -1 69 49 c 1,8,-1
 69 180 l 1,9,10
 92 113 92 113 134 77 c 128,-1,11
 176 41 176 41 225 35 c 1,12,-1
 225 327 l 1,13,14
 175 352 175 352 144 373 c 128,-1,15
 113 394 113 394 92.5 428.5 c 128,-1,16
 72 463 72 463 72 514 c 0,17,18
 72 591 72 591 115.5 638 c 128,-1,19
 159 685 159 685 225 692 c 1,20,21
 225 718 225 718 223.5 748.5 c 128,-1,22
 222 779 222 779 222 791 c 1,23,-1
 268 791 l 1,24,25
 267 779 267 779 265.5 748 c 128,-1,26
 264 717 264 717 264 693 c 1,27,28
 302 691 302 691 336.5 680 c 128,-1,29
 371 669 371 669 397 649 c 1,30,-1
 397 531 l 1,31,32
 374 587 374 587 339 616.5 c 128,-1,33
 304 646 304 646 264 652 c 1,34,-1
 264 383 l 1,35,36
 319 355 319 355 353 332 c 128,-1,37
 387 309 387 309 411 271 c 128,-1,38
 435 233 435 233 435 177 c 0,39,40
 435 98 435 98 385.5 50.5 c 128,-1,41
 336 3 336 3 264 -4 c 1,42,0
 264 -32 264 -32 265.5 -63 c 128,-1,1
225 652 m 1,43,44
 181 647 181 647 152 614 c 128,-1,45
 123 581 123 581 123 530 c 0,46,47
 123 486 123 486 149 457 c 128,-1,48
 175 428 175 428 225 402 c 1,49,-1
 225 652 l 1,43,44
264 35 m 1,50,51
 311 42 311 42 343.5 75.5 c 128,-1,52
 376 109 376 109 376 158 c 0,53,54
 376 213 376 213 347 246 c 128,-1,55
 318 279 318 279 264 308 c 1,56,-1
 264 35 l 1,50,51
EndSplineSet
Validated: 1
PairPos2: "'kern' Horizontal Kerning lookup 2 per glyph data 3" uni05D6 dx=10 dy=0 dh=10 dv=0 dx=0 dy=0 dh=0 dv=0
PairPos2: "'kern' Horizontal Kerning lookup 2 per glyph data 3" uni05E9 dx=10 dy=0 dh=10 dv=0 dx=0 dy=0 dh=0 dv=0
PairPos2: "'kern' Horizontal Kerning lookup 2 per glyph data 3" question dx=10 dy=0 dh=10 dv=0 dx=0 dy=0 dh=0 dv=0
PairPos2: "'kern' Horizontal Kerning lookup 2 per glyph data 3" uni05E7 dx=10 dy=0 dh=10 dv=0 dx=0 dy=0 dh=0 dv=0
PairPos2: "'kern' Horizontal Kerning lookup 2 per glyph data 3" uni05DE dx=-10 dy=0 dh=-10 dv=0 dx=0 dy=0 dh=0 dv=0
PairPos2: "'kern' Horizontal Kerning lookup 2 per glyph data 3" uni05BE dx=20 dy=0 dh=20 dv=0 dx=0 dy=0 dh=0 dv=0
PairPos2: "'kern' Horizontal Kerning lookup 2 per glyph data 3" uni05DC dx=10 dy=0 dh=10 dv=0 dx=0 dy=0 dh=0 dv=0
PairPos2: "'kern' Horizontal Kerning lookup 2 per glyph data 3" uni05F3 dx=30 dy=0 dh=30 dv=0 dx=0 dy=0 dh=0 dv=0
PairPos2: "'kern' Horizontal Kerning lookup 2 per glyph data 3" uni05D3 dx=10 dy=0 dh=10 dv=0 dx=0 dy=0 dh=0 dv=0
PairPos2: "'kern' Horizontal Kerning lookup 2 per glyph data 3" quotesinglbase dx=-50 dy=0 dh=-50 dv=0 dx=0 dy=0 dh=0 dv=0
PairPos2: "'kern' Horizontal Kerning lookup 2 per glyph data 3" quotedblbase dx=-50 dy=0 dh=-50 dv=0 dx=0 dy=0 dh=0 dv=0
PairPos2: "'kern' Horizontal Kerning lookup 2 per glyph data 3" period dx=-50 dy=0 dh=-50 dv=0 dx=0 dy=0 dh=0 dv=0
PairPos2: "'kern' Horizontal Kerning lookup 2 per glyph data 3" ellipsis dx=-50 dy=0 dh=-50 dv=0 dx=0 dy=0 dh=0 dv=0
PairPos2: "'kern' Horizontal Kerning lookup 2 per glyph data 3" comma dx=-50 dy=0 dh=-50 dv=0 dx=0 dy=0 dh=0 dv=0
PairPos2: "'kern' Horizontal Kerning lookup 2 per glyph data 3" uni00AD dx=-20 dy=0 dh=-20 dv=0 dx=0 dy=0 dh=0 dv=0
PairPos2: "'kern' Horizontal Kerning lookup 2 per glyph data 3" hyphen dx=-20 dy=0 dh=-20 dv=0 dx=0 dy=0 dh=0 dv=0
PairPos2: "'kern' Horizontal Kerning lookup 2 per glyph data 3" endash dx=-20 dy=0 dh=-20 dv=0 dx=0 dy=0 dh=0 dv=0
PairPos2: "'kern' Horizontal Kerning lookup 2 per glyph data 3" emdash dx=-20 dy=0 dh=-20 dv=0 dx=0 dy=0 dh=0 dv=0
PairPos2: "'kern' Horizontal Kerning lookup 2 per glyph data 2" uni05DA dx=10 dy=0 dh=10 dv=0 dx=0 dy=0 dh=0 dv=0
EndChar
StartChar: percent
Encoding: 37 37 419
Width: 520
Flags: W
LayerCount: 2
Fore
SplineSet
74.5 505.5 m 128,-1,1
 44 535 44 535 44 588 c 0,2,3
 44 620 44 620 60 645.5 c 128,-1,4
 76 671 76 671 101.5 685 c 128,-1,5
 127 699 127 699 155 699 c 0,6,7
 199 699 199 699 230 670 c 128,-1,8
 261 641 261 641 261 588 c 0,9,10
 261 560 261 560 245.5 534 c 128,-1,11
 230 508 230 508 204 492 c 128,-1,12
 178 476 178 476 149 476 c 0,13,0
 105 476 105 476 74.5 505.5 c 128,-1,1
59 0 m 1,14,-1
 415 688 l 1,15,-1
 460 688 l 1,16,-1
 106 0 l 1,17,-1
 59 0 l 1,14,-1
104.5 644 m 128,-1,19
 86 624 86 624 86 588 c 256,20,21
 86 552 86 552 105.5 531.5 c 128,-1,22
 125 511 125 511 152 511 c 0,23,24
 184 511 184 511 201 532.5 c 128,-1,25
 218 554 218 554 218 588 c 0,26,27
 218 624 218 624 198.5 644 c 128,-1,28
 179 664 179 664 152 664 c 0,29,18
 123 664 123 664 104.5 644 c 128,-1,19
291 18 m 128,-1,31
 260 47 260 47 260 100 c 0,32,33
 260 128 260 128 275.5 154 c 128,-1,34
 291 180 291 180 316.5 196 c 128,-1,35
 342 212 342 212 371 212 c 0,36,37
 415 212 415 212 445.5 182.5 c 128,-1,38
 476 153 476 153 476 100 c 0,39,40
 476 73 476 73 461 47 c 128,-1,41
 446 21 446 21 420.5 5 c 128,-1,42
 395 -11 395 -11 365 -11 c 0,43,30
 322 -11 322 -11 291 18 c 128,-1,31
320 154 m 128,-1,45
 302 131 302 131 302 100 c 0,46,47
 302 64 302 64 321.5 44 c 128,-1,48
 341 24 341 24 368 24 c 0,49,50
 397 24 397 24 416 46 c 128,-1,51
 435 68 435 68 435 100 c 0,52,53
 435 136 435 136 415 156.5 c 128,-1,54
 395 177 395 177 368 177 c 0,55,44
 338 177 338 177 320 154 c 128,-1,45
EndSplineSet
Validated: 1
PairPos2: "'kern' Horizontal Kerning lookup 2 per glyph data 3" uni05D6 dx=10 dy=0 dh=10 dv=0 dx=0 dy=0 dh=0 dv=0
PairPos2: "'kern' Horizontal Kerning lookup 2 per glyph data 3" uni05E9 dx=10 dy=0 dh=10 dv=0 dx=0 dy=0 dh=0 dv=0
PairPos2: "'kern' Horizontal Kerning lookup 2 per glyph data 3" question dx=10 dy=0 dh=10 dv=0 dx=0 dy=0 dh=0 dv=0
PairPos2: "'kern' Horizontal Kerning lookup 2 per glyph data 3" uni05E7 dx=10 dy=0 dh=10 dv=0 dx=0 dy=0 dh=0 dv=0
PairPos2: "'kern' Horizontal Kerning lookup 2 per glyph data 3" uni05DE dx=-10 dy=0 dh=-10 dv=0 dx=0 dy=0 dh=0 dv=0
PairPos2: "'kern' Horizontal Kerning lookup 2 per glyph data 3" uni05BE dx=20 dy=0 dh=20 dv=0 dx=0 dy=0 dh=0 dv=0
PairPos2: "'kern' Horizontal Kerning lookup 2 per glyph data 3" uni05DC dx=10 dy=0 dh=10 dv=0 dx=0 dy=0 dh=0 dv=0
PairPos2: "'kern' Horizontal Kerning lookup 2 per glyph data 3" uni05F3 dx=30 dy=0 dh=30 dv=0 dx=0 dy=0 dh=0 dv=0
PairPos2: "'kern' Horizontal Kerning lookup 2 per glyph data 3" uni05D3 dx=10 dy=0 dh=10 dv=0 dx=0 dy=0 dh=0 dv=0
PairPos2: "'kern' Horizontal Kerning lookup 2 per glyph data 3" quotesinglbase dx=-50 dy=0 dh=-50 dv=0 dx=0 dy=0 dh=0 dv=0
PairPos2: "'kern' Horizontal Kerning lookup 2 per glyph data 3" quotedblbase dx=-50 dy=0 dh=-50 dv=0 dx=0 dy=0 dh=0 dv=0
PairPos2: "'kern' Horizontal Kerning lookup 2 per glyph data 3" period dx=-50 dy=0 dh=-50 dv=0 dx=0 dy=0 dh=0 dv=0
PairPos2: "'kern' Horizontal Kerning lookup 2 per glyph data 3" ellipsis dx=-50 dy=0 dh=-50 dv=0 dx=0 dy=0 dh=0 dv=0
PairPos2: "'kern' Horizontal Kerning lookup 2 per glyph data 3" comma dx=-50 dy=0 dh=-50 dv=0 dx=0 dy=0 dh=0 dv=0
PairPos2: "'kern' Horizontal Kerning lookup 2 per glyph data 3" uni00AD dx=-20 dy=0 dh=-20 dv=0 dx=0 dy=0 dh=0 dv=0
PairPos2: "'kern' Horizontal Kerning lookup 2 per glyph data 3" hyphen dx=-20 dy=0 dh=-20 dv=0 dx=0 dy=0 dh=0 dv=0
PairPos2: "'kern' Horizontal Kerning lookup 2 per glyph data 3" endash dx=-20 dy=0 dh=-20 dv=0 dx=0 dy=0 dh=0 dv=0
PairPos2: "'kern' Horizontal Kerning lookup 2 per glyph data 3" emdash dx=-20 dy=0 dh=-20 dv=0 dx=0 dy=0 dh=0 dv=0
PairPos2: "'kern' Horizontal Kerning lookup 2 per glyph data 2" uni05DA dx=10 dy=0 dh=10 dv=0 dx=0 dy=0 dh=0 dv=0
EndChar
StartChar: ampersand
Encoding: 38 38 424
Width: 723
Flags: W
LayerCount: 2
Fore
SplineSet
623 -12 m 0,1,2
 594 -12 594 -12 551.5 14 c 128,-1,3
 509 40 509 40 448 91 c 1,4,5
 347 -12 347 -12 250 -12 c 0,6,7
 158 -12 158 -12 107 37 c 128,-1,8
 56 86 56 86 56 165 c 0,9,10
 56 228 56 228 92.5 271 c 128,-1,11
 129 314 129 314 201 360 c 1,12,13
 120 462 120 462 120 540 c 0,14,15
 120 592 120 592 143.5 628 c 128,-1,16
 167 664 167 664 205 682 c 128,-1,17
 243 700 243 700 286 700 c 0,18,19
 326 700 326 700 361.5 684 c 128,-1,20
 397 668 397 668 418.5 638 c 128,-1,21
 440 608 440 608 440 567 c 0,22,23
 440 509 440 509 399 464.5 c 128,-1,24
 358 420 358 420 282 370 c 1,25,26
 374 255 374 255 463 173 c 1,27,28
 503 236 503 236 526 284 c 128,-1,29
 549 332 549 332 549 370 c 0,30,31
 549 407 549 407 525 430 c 1,32,-1
 655 430 l 1,33,34
 632 407 632 407 587 306 c 0,35,36
 556 235 556 235 493 148 c 1,37,38
 499 144 499 144 511 134 c 0,39,40
 561 94 561 94 598.5 71 c 128,-1,41
 636 48 636 48 670 48 c 0,42,43
 680 48 680 48 704 63 c 1,44,45
 698 46 698 46 688 31 c 0,46,0
 662 -12 662 -12 623 -12 c 0,1,2
205 639 m 128,-1,48
 181 609 181 609 181 568 c 0,49,50
 181 531 181 531 205.5 484.5 c 128,-1,51
 230 438 230 438 262 396 c 1,52,53
 324 434 324 434 350.5 471 c 128,-1,54
 377 508 377 508 377 557 c 0,55,56
 377 612 377 612 348 640.5 c 128,-1,57
 319 669 319 669 279 669 c 0,58,47
 229 669 229 669 205 639 c 128,-1,48
145.5 266 m 128,-1,60
 120 232 120 232 120 187 c 0,61,62
 120 148 120 148 140.5 113 c 128,-1,63
 161 78 161 78 196 57 c 128,-1,64
 231 36 231 36 271 36 c 0,65,66
 314 36 314 36 345 55.5 c 128,-1,67
 376 75 376 75 419 117 c 1,68,69
 368 164 368 164 315.5 221.5 c 128,-1,70
 263 279 263 279 222 332 c 1,71,59
 171 300 171 300 145.5 266 c 128,-1,60
EndSplineSet
Validated: 1
PairPos2: "'kern' Horizontal Kerning lookup 2 per glyph data 3" uni05D6 dx=10 dy=0 dh=10 dv=0 dx=0 dy=0 dh=0 dv=0
PairPos2: "'kern' Horizontal Kerning lookup 2 per glyph data 3" uni05E9 dx=10 dy=0 dh=10 dv=0 dx=0 dy=0 dh=0 dv=0
PairPos2: "'kern' Horizontal Kerning lookup 2 per glyph data 3" question dx=10 dy=0 dh=10 dv=0 dx=0 dy=0 dh=0 dv=0
PairPos2: "'kern' Horizontal Kerning lookup 2 per glyph data 3" uni05E7 dx=10 dy=0 dh=10 dv=0 dx=0 dy=0 dh=0 dv=0
PairPos2: "'kern' Horizontal Kerning lookup 2 per glyph data 3" uni05DE dx=-10 dy=0 dh=-10 dv=0 dx=0 dy=0 dh=0 dv=0
PairPos2: "'kern' Horizontal Kerning lookup 2 per glyph data 3" uni05BE dx=20 dy=0 dh=20 dv=0 dx=0 dy=0 dh=0 dv=0
PairPos2: "'kern' Horizontal Kerning lookup 2 per glyph data 3" uni05DC dx=10 dy=0 dh=10 dv=0 dx=0 dy=0 dh=0 dv=0
PairPos2: "'kern' Horizontal Kerning lookup 2 per glyph data 3" uni05F3 dx=30 dy=0 dh=30 dv=0 dx=0 dy=0 dh=0 dv=0
PairPos2: "'kern' Horizontal Kerning lookup 2 per glyph data 3" uni05D3 dx=10 dy=0 dh=10 dv=0 dx=0 dy=0 dh=0 dv=0
PairPos2: "'kern' Horizontal Kerning lookup 2 per glyph data 3" quotesinglbase dx=-50 dy=0 dh=-50 dv=0 dx=0 dy=0 dh=0 dv=0
PairPos2: "'kern' Horizontal Kerning lookup 2 per glyph data 3" quotedblbase dx=-50 dy=0 dh=-50 dv=0 dx=0 dy=0 dh=0 dv=0
PairPos2: "'kern' Horizontal Kerning lookup 2 per glyph data 3" period dx=-50 dy=0 dh=-50 dv=0 dx=0 dy=0 dh=0 dv=0
PairPos2: "'kern' Horizontal Kerning lookup 2 per glyph data 3" ellipsis dx=-50 dy=0 dh=-50 dv=0 dx=0 dy=0 dh=0 dv=0
PairPos2: "'kern' Horizontal Kerning lookup 2 per glyph data 3" comma dx=-50 dy=0 dh=-50 dv=0 dx=0 dy=0 dh=0 dv=0
PairPos2: "'kern' Horizontal Kerning lookup 2 per glyph data 3" uni00AD dx=-20 dy=0 dh=-20 dv=0 dx=0 dy=0 dh=0 dv=0
PairPos2: "'kern' Horizontal Kerning lookup 2 per glyph data 3" hyphen dx=-20 dy=0 dh=-20 dv=0 dx=0 dy=0 dh=0 dv=0
PairPos2: "'kern' Horizontal Kerning lookup 2 per glyph data 3" endash dx=-20 dy=0 dh=-20 dv=0 dx=0 dy=0 dh=0 dv=0
PairPos2: "'kern' Horizontal Kerning lookup 2 per glyph data 3" emdash dx=-20 dy=0 dh=-20 dv=0 dx=0 dy=0 dh=0 dv=0
PairPos2: "'kern' Horizontal Kerning lookup 2 per glyph data 2" uni05DA dx=10 dy=0 dh=10 dv=0 dx=0 dy=0 dh=0 dv=0
EndChar
StartChar: quotesingle
Encoding: 39 39 356
Width: 224
Flags: W
LayerCount: 2
Fore
SplineSet
115 688 m 1,0,-1
 179 688 l 1,1,-1
 108 470 l 1,2,-1
 44 470 l 1,3,-1
 115 688 l 1,0,-1
EndSplineSet
Validated: 1
PairPos2: "'kern' Horizontal Kerning lookup 2 per glyph data 3" uni05D6 dx=10 dy=0 dh=10 dv=0 dx=0 dy=0 dh=0 dv=0
PairPos2: "'kern' Horizontal Kerning lookup 2 per glyph data 3" uni05E9 dx=10 dy=0 dh=10 dv=0 dx=0 dy=0 dh=0 dv=0
PairPos2: "'kern' Horizontal Kerning lookup 2 per glyph data 3" question dx=10 dy=0 dh=10 dv=0 dx=0 dy=0 dh=0 dv=0
PairPos2: "'kern' Horizontal Kerning lookup 2 per glyph data 3" uni05E7 dx=10 dy=0 dh=10 dv=0 dx=0 dy=0 dh=0 dv=0
PairPos2: "'kern' Horizontal Kerning lookup 2 per glyph data 3" uni05DE dx=-10 dy=0 dh=-10 dv=0 dx=0 dy=0 dh=0 dv=0
PairPos2: "'kern' Horizontal Kerning lookup 2 per glyph data 3" uni05BE dx=20 dy=0 dh=20 dv=0 dx=0 dy=0 dh=0 dv=0
PairPos2: "'kern' Horizontal Kerning lookup 2 per glyph data 3" uni05DC dx=10 dy=0 dh=10 dv=0 dx=0 dy=0 dh=0 dv=0
PairPos2: "'kern' Horizontal Kerning lookup 2 per glyph data 3" uni05F3 dx=30 dy=0 dh=30 dv=0 dx=0 dy=0 dh=0 dv=0
PairPos2: "'kern' Horizontal Kerning lookup 2 per glyph data 3" uni05D3 dx=10 dy=0 dh=10 dv=0 dx=0 dy=0 dh=0 dv=0
PairPos2: "'kern' Horizontal Kerning lookup 2 per glyph data 3" quotesinglbase dx=-50 dy=0 dh=-50 dv=0 dx=0 dy=0 dh=0 dv=0
PairPos2: "'kern' Horizontal Kerning lookup 2 per glyph data 3" quotedblbase dx=-50 dy=0 dh=-50 dv=0 dx=0 dy=0 dh=0 dv=0
PairPos2: "'kern' Horizontal Kerning lookup 2 per glyph data 3" period dx=-50 dy=0 dh=-50 dv=0 dx=0 dy=0 dh=0 dv=0
PairPos2: "'kern' Horizontal Kerning lookup 2 per glyph data 3" ellipsis dx=-50 dy=0 dh=-50 dv=0 dx=0 dy=0 dh=0 dv=0
PairPos2: "'kern' Horizontal Kerning lookup 2 per glyph data 3" comma dx=-50 dy=0 dh=-50 dv=0 dx=0 dy=0 dh=0 dv=0
PairPos2: "'kern' Horizontal Kerning lookup 2 per glyph data 3" uni00AD dx=-20 dy=0 dh=-20 dv=0 dx=0 dy=0 dh=0 dv=0
PairPos2: "'kern' Horizontal Kerning lookup 2 per glyph data 3" hyphen dx=-20 dy=0 dh=-20 dv=0 dx=0 dy=0 dh=0 dv=0
PairPos2: "'kern' Horizontal Kerning lookup 2 per glyph data 3" endash dx=-20 dy=0 dh=-20 dv=0 dx=0 dy=0 dh=0 dv=0
PairPos2: "'kern' Horizontal Kerning lookup 2 per glyph data 3" emdash dx=-20 dy=0 dh=-20 dv=0 dx=0 dy=0 dh=0 dv=0
PairPos2: "'kern' Horizontal Kerning lookup 2 per glyph data 2" uni05EA dx=-50 dy=0 dh=-50 dv=0 dx=0 dy=0 dh=0 dv=0
PairPos2: "'kern' Horizontal Kerning lookup 2 per glyph data 2" uni05E0 dx=-50 dy=0 dh=-50 dv=0 dx=0 dy=0 dh=0 dv=0
EndChar
StartChar: parenleft
Encoding: 40 40 364
Width: 368
Flags: W
LayerCount: 2
Fore
SplineSet
341 731 m 1,0,1
 243 642 243 642 192 515 c 128,-1,2
 141 388 141 388 141 248 c 256,3,4
 141 108 141 108 192 -19 c 128,-1,5
 243 -146 243 -146 341 -235 c 1,6,-1
 326 -243 l 1,7,8
 197 -159 197 -159 129 -27 c 128,-1,9
 61 105 61 105 61 248 c 256,10,11
 61 391 61 391 129 523 c 128,-1,12
 197 655 197 655 326 739 c 1,13,-1
 341 731 l 1,0,1
EndSplineSet
Validated: 1
PairPos2: "'kern' Horizontal Kerning lookup 2 per glyph data 3" uni05D6 dx=10 dy=0 dh=10 dv=0 dx=0 dy=0 dh=0 dv=0
PairPos2: "'kern' Horizontal Kerning lookup 2 per glyph data 3" uni05E9 dx=10 dy=0 dh=10 dv=0 dx=0 dy=0 dh=0 dv=0
PairPos2: "'kern' Horizontal Kerning lookup 2 per glyph data 3" question dx=10 dy=0 dh=10 dv=0 dx=0 dy=0 dh=0 dv=0
PairPos2: "'kern' Horizontal Kerning lookup 2 per glyph data 3" uni05E7 dx=10 dy=0 dh=10 dv=0 dx=0 dy=0 dh=0 dv=0
PairPos2: "'kern' Horizontal Kerning lookup 2 per glyph data 3" uni05DE dx=-10 dy=0 dh=-10 dv=0 dx=0 dy=0 dh=0 dv=0
PairPos2: "'kern' Horizontal Kerning lookup 2 per glyph data 3" uni05BE dx=20 dy=0 dh=20 dv=0 dx=0 dy=0 dh=0 dv=0
PairPos2: "'kern' Horizontal Kerning lookup 2 per glyph data 3" uni05DC dx=10 dy=0 dh=10 dv=0 dx=0 dy=0 dh=0 dv=0
PairPos2: "'kern' Horizontal Kerning lookup 2 per glyph data 3" uni05F3 dx=30 dy=0 dh=30 dv=0 dx=0 dy=0 dh=0 dv=0
PairPos2: "'kern' Horizontal Kerning lookup 2 per glyph data 3" uni05D3 dx=10 dy=0 dh=10 dv=0 dx=0 dy=0 dh=0 dv=0
PairPos2: "'kern' Horizontal Kerning lookup 2 per glyph data 3" quotesinglbase dx=-50 dy=0 dh=-50 dv=0 dx=0 dy=0 dh=0 dv=0
PairPos2: "'kern' Horizontal Kerning lookup 2 per glyph data 3" quotedblbase dx=-50 dy=0 dh=-50 dv=0 dx=0 dy=0 dh=0 dv=0
PairPos2: "'kern' Horizontal Kerning lookup 2 per glyph data 3" period dx=-50 dy=0 dh=-50 dv=0 dx=0 dy=0 dh=0 dv=0
PairPos2: "'kern' Horizontal Kerning lookup 2 per glyph data 3" ellipsis dx=-50 dy=0 dh=-50 dv=0 dx=0 dy=0 dh=0 dv=0
PairPos2: "'kern' Horizontal Kerning lookup 2 per glyph data 3" comma dx=-50 dy=0 dh=-50 dv=0 dx=0 dy=0 dh=0 dv=0
PairPos2: "'kern' Horizontal Kerning lookup 2 per glyph data 3" uni00AD dx=-20 dy=0 dh=-20 dv=0 dx=0 dy=0 dh=0 dv=0
PairPos2: "'kern' Horizontal Kerning lookup 2 per glyph data 3" hyphen dx=-20 dy=0 dh=-20 dv=0 dx=0 dy=0 dh=0 dv=0
PairPos2: "'kern' Horizontal Kerning lookup 2 per glyph data 3" endash dx=-20 dy=0 dh=-20 dv=0 dx=0 dy=0 dh=0 dv=0
PairPos2: "'kern' Horizontal Kerning lookup 2 per glyph data 3" emdash dx=-20 dy=0 dh=-20 dv=0 dx=0 dy=0 dh=0 dv=0
PairPos2: "'kern' Horizontal Kerning lookup 2 per glyph data 2" uni05DA dx=10 dy=0 dh=10 dv=0 dx=0 dy=0 dh=0 dv=0
EndChar
StartChar: parenright
Encoding: 41 41 365
Width: 368
Flags: W
LayerCount: 2
Fore
SplineSet
27 -235 m 1,0,1
 125 -146 125 -146 176 -19 c 128,-1,2
 227 108 227 108 227 248 c 256,3,4
 227 388 227 388 176 515 c 128,-1,5
 125 642 125 642 27 731 c 1,6,-1
 42 739 l 1,7,8
 171 655 171 655 239 523 c 128,-1,9
 307 391 307 391 307 248 c 256,10,11
 307 105 307 105 239 -27 c 128,-1,12
 171 -159 171 -159 42 -243 c 1,13,-1
 27 -235 l 1,0,1
EndSplineSet
Validated: 1
PairPos2: "'kern' Horizontal Kerning lookup 2 per glyph data 3" uni05D6 dx=10 dy=0 dh=10 dv=0 dx=0 dy=0 dh=0 dv=0
PairPos2: "'kern' Horizontal Kerning lookup 2 per glyph data 3" uni05E9 dx=10 dy=0 dh=10 dv=0 dx=0 dy=0 dh=0 dv=0
PairPos2: "'kern' Horizontal Kerning lookup 2 per glyph data 3" question dx=10 dy=0 dh=10 dv=0 dx=0 dy=0 dh=0 dv=0
PairPos2: "'kern' Horizontal Kerning lookup 2 per glyph data 3" uni05E7 dx=10 dy=0 dh=10 dv=0 dx=0 dy=0 dh=0 dv=0
PairPos2: "'kern' Horizontal Kerning lookup 2 per glyph data 3" uni05DE dx=-10 dy=0 dh=-10 dv=0 dx=0 dy=0 dh=0 dv=0
PairPos2: "'kern' Horizontal Kerning lookup 2 per glyph data 3" uni05BE dx=20 dy=0 dh=20 dv=0 dx=0 dy=0 dh=0 dv=0
PairPos2: "'kern' Horizontal Kerning lookup 2 per glyph data 3" uni05DC dx=10 dy=0 dh=10 dv=0 dx=0 dy=0 dh=0 dv=0
PairPos2: "'kern' Horizontal Kerning lookup 2 per glyph data 3" uni05F3 dx=30 dy=0 dh=30 dv=0 dx=0 dy=0 dh=0 dv=0
PairPos2: "'kern' Horizontal Kerning lookup 2 per glyph data 3" uni05D3 dx=10 dy=0 dh=10 dv=0 dx=0 dy=0 dh=0 dv=0
PairPos2: "'kern' Horizontal Kerning lookup 2 per glyph data 3" quotesinglbase dx=-50 dy=0 dh=-50 dv=0 dx=0 dy=0 dh=0 dv=0
PairPos2: "'kern' Horizontal Kerning lookup 2 per glyph data 3" quotedblbase dx=-50 dy=0 dh=-50 dv=0 dx=0 dy=0 dh=0 dv=0
PairPos2: "'kern' Horizontal Kerning lookup 2 per glyph data 3" period dx=-50 dy=0 dh=-50 dv=0 dx=0 dy=0 dh=0 dv=0
PairPos2: "'kern' Horizontal Kerning lookup 2 per glyph data 3" ellipsis dx=-50 dy=0 dh=-50 dv=0 dx=0 dy=0 dh=0 dv=0
PairPos2: "'kern' Horizontal Kerning lookup 2 per glyph data 3" comma dx=-50 dy=0 dh=-50 dv=0 dx=0 dy=0 dh=0 dv=0
PairPos2: "'kern' Horizontal Kerning lookup 2 per glyph data 3" uni00AD dx=-20 dy=0 dh=-20 dv=0 dx=0 dy=0 dh=0 dv=0
PairPos2: "'kern' Horizontal Kerning lookup 2 per glyph data 3" hyphen dx=-20 dy=0 dh=-20 dv=0 dx=0 dy=0 dh=0 dv=0
PairPos2: "'kern' Horizontal Kerning lookup 2 per glyph data 3" endash dx=-20 dy=0 dh=-20 dv=0 dx=0 dy=0 dh=0 dv=0
PairPos2: "'kern' Horizontal Kerning lookup 2 per glyph data 3" emdash dx=-20 dy=0 dh=-20 dv=0 dx=0 dy=0 dh=0 dv=0
PairPos2: "'kern' Horizontal Kerning lookup 2 per glyph data 2" uni05DA dx=10 dy=0 dh=10 dv=0 dx=0 dy=0 dh=0 dv=0
EndChar
StartChar: asterisk
Encoding: 42 42 342
Width: 340
Flags: W
LayerCount: 2
Fore
SplineSet
247 554.5 m 128,-1,1
 282 541 282 541 302 541 c 1,2,-1
 253 474 l 1,3,4
 250 479 250 479 240 495.5 c 128,-1,5
 230 512 230 512 215 532 c 128,-1,6
 200 552 200 552 186 564 c 1,7,8
 183 555 183 555 180.5 534.5 c 128,-1,9
 178 514 178 514 178 494 c 0,10,11
 178 470 178 470 184 453 c 1,12,-1
 104 478 l 1,13,14
 108 482 108 482 121 497.5 c 128,-1,15
 134 513 134 513 149 533.5 c 128,-1,16
 164 554 164 554 171 570 c 1,17,18
 153 568 153 568 129 561 c 128,-1,19
 105 554 105 554 86.5 547 c 128,-1,20
 68 540 68 540 63 538 c 1,21,-1
 63 620 l 1,22,23
 68 618 68 618 86.5 610 c 128,-1,24
 105 602 105 602 129.5 594.5 c 128,-1,25
 154 587 154 587 172 586 c 1,26,27
 165 602 165 602 150.5 622.5 c 128,-1,28
 136 643 136 643 123.5 658.5 c 128,-1,29
 111 674 111 674 107 678 c 1,30,-1
 185 704 l 1,31,32
 181 689 181 689 181 663 c 0,33,34
 181 622 181 622 188 589 c 1,35,36
 201 601 201 601 216 621.5 c 128,-1,37
 231 642 231 642 241 659 c 128,-1,38
 251 676 251 676 254 681 c 1,39,-1
 303 613 l 1,40,41
 285 613 285 613 248.5 599 c 128,-1,42
 212 585 212 585 196 577 c 1,43,0
 212 568 212 568 247 554.5 c 128,-1,1
EndSplineSet
Validated: 1
PairPos2: "'kern' Horizontal Kerning lookup 2 per glyph data 3" uni05D6 dx=10 dy=0 dh=10 dv=0 dx=0 dy=0 dh=0 dv=0
PairPos2: "'kern' Horizontal Kerning lookup 2 per glyph data 3" uni05E9 dx=10 dy=0 dh=10 dv=0 dx=0 dy=0 dh=0 dv=0
PairPos2: "'kern' Horizontal Kerning lookup 2 per glyph data 3" question dx=10 dy=0 dh=10 dv=0 dx=0 dy=0 dh=0 dv=0
PairPos2: "'kern' Horizontal Kerning lookup 2 per glyph data 3" uni05E7 dx=10 dy=0 dh=10 dv=0 dx=0 dy=0 dh=0 dv=0
PairPos2: "'kern' Horizontal Kerning lookup 2 per glyph data 3" uni05DE dx=-10 dy=0 dh=-10 dv=0 dx=0 dy=0 dh=0 dv=0
PairPos2: "'kern' Horizontal Kerning lookup 2 per glyph data 3" uni05BE dx=20 dy=0 dh=20 dv=0 dx=0 dy=0 dh=0 dv=0
PairPos2: "'kern' Horizontal Kerning lookup 2 per glyph data 3" uni05DC dx=10 dy=0 dh=10 dv=0 dx=0 dy=0 dh=0 dv=0
PairPos2: "'kern' Horizontal Kerning lookup 2 per glyph data 3" uni05F3 dx=30 dy=0 dh=30 dv=0 dx=0 dy=0 dh=0 dv=0
PairPos2: "'kern' Horizontal Kerning lookup 2 per glyph data 3" uni05D3 dx=10 dy=0 dh=10 dv=0 dx=0 dy=0 dh=0 dv=0
PairPos2: "'kern' Horizontal Kerning lookup 2 per glyph data 3" quotesinglbase dx=-50 dy=0 dh=-50 dv=0 dx=0 dy=0 dh=0 dv=0
PairPos2: "'kern' Horizontal Kerning lookup 2 per glyph data 3" quotedblbase dx=-50 dy=0 dh=-50 dv=0 dx=0 dy=0 dh=0 dv=0
PairPos2: "'kern' Horizontal Kerning lookup 2 per glyph data 3" period dx=-50 dy=0 dh=-50 dv=0 dx=0 dy=0 dh=0 dv=0
PairPos2: "'kern' Horizontal Kerning lookup 2 per glyph data 3" ellipsis dx=-50 dy=0 dh=-50 dv=0 dx=0 dy=0 dh=0 dv=0
PairPos2: "'kern' Horizontal Kerning lookup 2 per glyph data 3" comma dx=-50 dy=0 dh=-50 dv=0 dx=0 dy=0 dh=0 dv=0
PairPos2: "'kern' Horizontal Kerning lookup 2 per glyph data 3" uni00AD dx=-20 dy=0 dh=-20 dv=0 dx=0 dy=0 dh=0 dv=0
PairPos2: "'kern' Horizontal Kerning lookup 2 per glyph data 3" hyphen dx=-20 dy=0 dh=-20 dv=0 dx=0 dy=0 dh=0 dv=0
PairPos2: "'kern' Horizontal Kerning lookup 2 per glyph data 3" endash dx=-20 dy=0 dh=-20 dv=0 dx=0 dy=0 dh=0 dv=0
PairPos2: "'kern' Horizontal Kerning lookup 2 per glyph data 3" emdash dx=-20 dy=0 dh=-20 dv=0 dx=0 dy=0 dh=0 dv=0
PairPos2: "'kern' Horizontal Kerning lookup 2 per glyph data 2" uni05DA dx=10 dy=0 dh=10 dv=0 dx=0 dy=0 dh=0 dv=0
EndChar
StartChar: plus
Encoding: 43 43 396
Width: 560
Flags: W
LayerCount: 2
Fore
SplineSet
72 188 m 1,0,-1
 72 242 l 1,1,-1
 252 242 l 1,2,-1
 252 430 l 1,3,-1
 308 430 l 1,4,-1
 308 242 l 1,5,-1
 488 242 l 1,6,-1
 488 188 l 1,7,-1
 308 188 l 1,8,-1
 308 0 l 1,9,-1
 252 0 l 1,10,-1
 252 188 l 1,11,-1
 72 188 l 1,0,-1
EndSplineSet
Validated: 1
PairPos2: "'kern' Horizontal Kerning lookup 2 per glyph data 3" uni05D6 dx=10 dy=0 dh=10 dv=0 dx=0 dy=0 dh=0 dv=0
PairPos2: "'kern' Horizontal Kerning lookup 2 per glyph data 3" uni05E9 dx=10 dy=0 dh=10 dv=0 dx=0 dy=0 dh=0 dv=0
PairPos2: "'kern' Horizontal Kerning lookup 2 per glyph data 3" question dx=10 dy=0 dh=10 dv=0 dx=0 dy=0 dh=0 dv=0
PairPos2: "'kern' Horizontal Kerning lookup 2 per glyph data 3" uni05E7 dx=10 dy=0 dh=10 dv=0 dx=0 dy=0 dh=0 dv=0
PairPos2: "'kern' Horizontal Kerning lookup 2 per glyph data 3" uni05DE dx=-10 dy=0 dh=-10 dv=0 dx=0 dy=0 dh=0 dv=0
PairPos2: "'kern' Horizontal Kerning lookup 2 per glyph data 3" uni05BE dx=20 dy=0 dh=20 dv=0 dx=0 dy=0 dh=0 dv=0
PairPos2: "'kern' Horizontal Kerning lookup 2 per glyph data 3" uni05DC dx=10 dy=0 dh=10 dv=0 dx=0 dy=0 dh=0 dv=0
PairPos2: "'kern' Horizontal Kerning lookup 2 per glyph data 3" uni05F3 dx=30 dy=0 dh=30 dv=0 dx=0 dy=0 dh=0 dv=0
PairPos2: "'kern' Horizontal Kerning lookup 2 per glyph data 3" uni05D3 dx=10 dy=0 dh=10 dv=0 dx=0 dy=0 dh=0 dv=0
PairPos2: "'kern' Horizontal Kerning lookup 2 per glyph data 3" quotesinglbase dx=-50 dy=0 dh=-50 dv=0 dx=0 dy=0 dh=0 dv=0
PairPos2: "'kern' Horizontal Kerning lookup 2 per glyph data 3" quotedblbase dx=-50 dy=0 dh=-50 dv=0 dx=0 dy=0 dh=0 dv=0
PairPos2: "'kern' Horizontal Kerning lookup 2 per glyph data 3" period dx=-50 dy=0 dh=-50 dv=0 dx=0 dy=0 dh=0 dv=0
PairPos2: "'kern' Horizontal Kerning lookup 2 per glyph data 3" ellipsis dx=-50 dy=0 dh=-50 dv=0 dx=0 dy=0 dh=0 dv=0
PairPos2: "'kern' Horizontal Kerning lookup 2 per glyph data 3" comma dx=-50 dy=0 dh=-50 dv=0 dx=0 dy=0 dh=0 dv=0
PairPos2: "'kern' Horizontal Kerning lookup 2 per glyph data 3" uni00AD dx=-20 dy=0 dh=-20 dv=0 dx=0 dy=0 dh=0 dv=0
PairPos2: "'kern' Horizontal Kerning lookup 2 per glyph data 3" hyphen dx=-20 dy=0 dh=-20 dv=0 dx=0 dy=0 dh=0 dv=0
PairPos2: "'kern' Horizontal Kerning lookup 2 per glyph data 3" endash dx=-20 dy=0 dh=-20 dv=0 dx=0 dy=0 dh=0 dv=0
PairPos2: "'kern' Horizontal Kerning lookup 2 per glyph data 3" emdash dx=-20 dy=0 dh=-20 dv=0 dx=0 dy=0 dh=0 dv=0
PairPos2: "'kern' Horizontal Kerning lookup 2 per glyph data 2" uni05DA dx=10 dy=0 dh=10 dv=0 dx=0 dy=0 dh=0 dv=0
EndChar
StartChar: comma
Encoding: 44 44 347
Width: 256
Flags: W
LayerCount: 2
Fore
SplineSet
116.5 -87.5 m 128,-1,1
 135 -52 135 -52 135 -17 c 0,2,3
 135 -8 135 -8 134 -4 c 1,4,-1
 127 -4 l 2,5,6
 102 -4 102 -4 89 9.5 c 128,-1,7
 76 23 76 23 76 42 c 0,8,9
 76 62 76 62 89.5 76.5 c 128,-1,10
 103 91 103 91 126 91 c 0,11,12
 151 91 151 91 169.5 70.5 c 128,-1,13
 188 50 188 50 188 11 c 0,14,15
 188 -20 188 -20 175 -52.5 c 128,-1,16
 162 -85 162 -85 135 -108 c 128,-1,17
 108 -131 108 -131 71 -133 c 1,18,0
 98 -123 98 -123 116.5 -87.5 c 128,-1,1
EndSplineSet
Validated: 1
PairPos2: "'kern' Horizontal Kerning lookup 2 per glyph data 3" uni05D6 dx=10 dy=0 dh=10 dv=0 dx=0 dy=0 dh=0 dv=0
PairPos2: "'kern' Horizontal Kerning lookup 2 per glyph data 3" uni05E9 dx=10 dy=0 dh=10 dv=0 dx=0 dy=0 dh=0 dv=0
PairPos2: "'kern' Horizontal Kerning lookup 2 per glyph data 3" question dx=10 dy=0 dh=10 dv=0 dx=0 dy=0 dh=0 dv=0
PairPos2: "'kern' Horizontal Kerning lookup 2 per glyph data 3" uni05E7 dx=10 dy=0 dh=10 dv=0 dx=0 dy=0 dh=0 dv=0
PairPos2: "'kern' Horizontal Kerning lookup 2 per glyph data 3" uni05DE dx=-10 dy=0 dh=-10 dv=0 dx=0 dy=0 dh=0 dv=0
PairPos2: "'kern' Horizontal Kerning lookup 2 per glyph data 3" uni05BE dx=20 dy=0 dh=20 dv=0 dx=0 dy=0 dh=0 dv=0
PairPos2: "'kern' Horizontal Kerning lookup 2 per glyph data 3" uni05DC dx=10 dy=0 dh=10 dv=0 dx=0 dy=0 dh=0 dv=0
PairPos2: "'kern' Horizontal Kerning lookup 2 per glyph data 3" uni05F3 dx=30 dy=0 dh=30 dv=0 dx=0 dy=0 dh=0 dv=0
PairPos2: "'kern' Horizontal Kerning lookup 2 per glyph data 3" uni05D3 dx=10 dy=0 dh=10 dv=0 dx=0 dy=0 dh=0 dv=0
PairPos2: "'kern' Horizontal Kerning lookup 2 per glyph data 3" quotesinglbase dx=-50 dy=0 dh=-50 dv=0 dx=0 dy=0 dh=0 dv=0
PairPos2: "'kern' Horizontal Kerning lookup 2 per glyph data 3" quotedblbase dx=-50 dy=0 dh=-50 dv=0 dx=0 dy=0 dh=0 dv=0
PairPos2: "'kern' Horizontal Kerning lookup 2 per glyph data 3" period dx=-50 dy=0 dh=-50 dv=0 dx=0 dy=0 dh=0 dv=0
PairPos2: "'kern' Horizontal Kerning lookup 2 per glyph data 3" ellipsis dx=-50 dy=0 dh=-50 dv=0 dx=0 dy=0 dh=0 dv=0
PairPos2: "'kern' Horizontal Kerning lookup 2 per glyph data 3" comma dx=-50 dy=0 dh=-50 dv=0 dx=0 dy=0 dh=0 dv=0
PairPos2: "'kern' Horizontal Kerning lookup 2 per glyph data 3" uni00AD dx=-20 dy=0 dh=-20 dv=0 dx=0 dy=0 dh=0 dv=0
PairPos2: "'kern' Horizontal Kerning lookup 2 per glyph data 3" hyphen dx=-20 dy=0 dh=-20 dv=0 dx=0 dy=0 dh=0 dv=0
PairPos2: "'kern' Horizontal Kerning lookup 2 per glyph data 3" endash dx=-20 dy=0 dh=-20 dv=0 dx=0 dy=0 dh=0 dv=0
PairPos2: "'kern' Horizontal Kerning lookup 2 per glyph data 3" emdash dx=-20 dy=0 dh=-20 dv=0 dx=0 dy=0 dh=0 dv=0
PairPos2: "'kern' Horizontal Kerning lookup 2 per glyph data 2" uni05DA dx=10 dy=0 dh=10 dv=0 dx=0 dy=0 dh=0 dv=0
EndChar
StartChar: period
Encoding: 46 46 352
Width: 256
Flags: W
LayerCount: 2
Fore
SplineSet
92.5 3.5 m 128,-1,1
 77 17 77 17 77 41 c 256,2,3
 77 65 77 65 92 78 c 128,-1,4
 107 91 107 91 128 91 c 256,5,6
 149 91 149 91 164 78 c 128,-1,7
 179 65 179 65 179 41 c 256,8,9
 179 17 179 17 163.5 3.5 c 128,-1,10
 148 -10 148 -10 128 -10 c 256,11,0
 108 -10 108 -10 92.5 3.5 c 128,-1,1
EndSplineSet
Validated: 1
PairPos2: "'kern' Horizontal Kerning lookup 2 per glyph data 3" uni05D6 dx=10 dy=0 dh=10 dv=0 dx=0 dy=0 dh=0 dv=0
PairPos2: "'kern' Horizontal Kerning lookup 2 per glyph data 3" uni05E9 dx=10 dy=0 dh=10 dv=0 dx=0 dy=0 dh=0 dv=0
PairPos2: "'kern' Horizontal Kerning lookup 2 per glyph data 3" question dx=10 dy=0 dh=10 dv=0 dx=0 dy=0 dh=0 dv=0
PairPos2: "'kern' Horizontal Kerning lookup 2 per glyph data 3" uni05E7 dx=10 dy=0 dh=10 dv=0 dx=0 dy=0 dh=0 dv=0
PairPos2: "'kern' Horizontal Kerning lookup 2 per glyph data 3" uni05DE dx=-10 dy=0 dh=-10 dv=0 dx=0 dy=0 dh=0 dv=0
PairPos2: "'kern' Horizontal Kerning lookup 2 per glyph data 3" uni05BE dx=20 dy=0 dh=20 dv=0 dx=0 dy=0 dh=0 dv=0
PairPos2: "'kern' Horizontal Kerning lookup 2 per glyph data 3" uni05DC dx=10 dy=0 dh=10 dv=0 dx=0 dy=0 dh=0 dv=0
PairPos2: "'kern' Horizontal Kerning lookup 2 per glyph data 3" uni05F3 dx=30 dy=0 dh=30 dv=0 dx=0 dy=0 dh=0 dv=0
PairPos2: "'kern' Horizontal Kerning lookup 2 per glyph data 3" uni05D3 dx=10 dy=0 dh=10 dv=0 dx=0 dy=0 dh=0 dv=0
PairPos2: "'kern' Horizontal Kerning lookup 2 per glyph data 3" quotesinglbase dx=-50 dy=0 dh=-50 dv=0 dx=0 dy=0 dh=0 dv=0
PairPos2: "'kern' Horizontal Kerning lookup 2 per glyph data 3" quotedblbase dx=-50 dy=0 dh=-50 dv=0 dx=0 dy=0 dh=0 dv=0
PairPos2: "'kern' Horizontal Kerning lookup 2 per glyph data 3" period dx=-50 dy=0 dh=-50 dv=0 dx=0 dy=0 dh=0 dv=0
PairPos2: "'kern' Horizontal Kerning lookup 2 per glyph data 3" ellipsis dx=-50 dy=0 dh=-50 dv=0 dx=0 dy=0 dh=0 dv=0
PairPos2: "'kern' Horizontal Kerning lookup 2 per glyph data 3" comma dx=-50 dy=0 dh=-50 dv=0 dx=0 dy=0 dh=0 dv=0
PairPos2: "'kern' Horizontal Kerning lookup 2 per glyph data 3" uni00AD dx=-20 dy=0 dh=-20 dv=0 dx=0 dy=0 dh=0 dv=0
PairPos2: "'kern' Horizontal Kerning lookup 2 per glyph data 3" hyphen dx=-20 dy=0 dh=-20 dv=0 dx=0 dy=0 dh=0 dv=0
PairPos2: "'kern' Horizontal Kerning lookup 2 per glyph data 3" endash dx=-20 dy=0 dh=-20 dv=0 dx=0 dy=0 dh=0 dv=0
PairPos2: "'kern' Horizontal Kerning lookup 2 per glyph data 3" emdash dx=-20 dy=0 dh=-20 dv=0 dx=0 dy=0 dh=0 dv=0
PairPos2: "'kern' Horizontal Kerning lookup 2 per glyph data 2" uni05DA dx=10 dy=0 dh=10 dv=0 dx=0 dy=0 dh=0 dv=0
EndChar
StartChar: zero
Encoding: 48 48 325
Width: 512
Flags: W
LayerCount: 2
Fore
SplineSet
75 522.5 m 128,-1,1
 102 608 102 608 149.5 654 c 128,-1,2
 197 700 197 700 257 700 c 0,3,4
 316 700 316 700 363 660 c 128,-1,5
 410 620 410 620 437 544 c 128,-1,6
 464 468 464 468 464 363 c 0,7,8
 464 251 464 251 437 165.5 c 128,-1,9
 410 80 410 80 362.5 34 c 128,-1,10
 315 -12 315 -12 255 -12 c 0,11,12
 196 -12 196 -12 149 28 c 128,-1,13
 102 68 102 68 75 144 c 128,-1,14
 48 220 48 220 48 325 c 0,15,0
 48 437 48 437 75 522.5 c 128,-1,1
373 503 m 128,-1,17
 354 582 354 582 321 622.5 c 128,-1,18
 288 663 288 663 247 664 c 0,19,20
 210 664 210 664 181 628 c 128,-1,21
 152 592 152 592 136 526.5 c 128,-1,22
 120 461 120 461 120 374 c 0,23,24
 120 264 120 264 139 185 c 128,-1,25
 158 106 158 106 191 65 c 128,-1,26
 224 24 224 24 265 24 c 0,27,28
 302 24 302 24 331 60 c 128,-1,29
 360 96 360 96 376 161.5 c 128,-1,30
 392 227 392 227 392 314 c 0,31,16
 392 424 392 424 373 503 c 128,-1,17
EndSplineSet
Validated: 1
PairPos2: "'kern' Horizontal Kerning lookup 2 per glyph data 3" uni05D6 dx=10 dy=0 dh=10 dv=0 dx=0 dy=0 dh=0 dv=0
PairPos2: "'kern' Horizontal Kerning lookup 2 per glyph data 3" uni05E9 dx=10 dy=0 dh=10 dv=0 dx=0 dy=0 dh=0 dv=0
PairPos2: "'kern' Horizontal Kerning lookup 2 per glyph data 3" question dx=10 dy=0 dh=10 dv=0 dx=0 dy=0 dh=0 dv=0
PairPos2: "'kern' Horizontal Kerning lookup 2 per glyph data 3" uni05E7 dx=10 dy=0 dh=10 dv=0 dx=0 dy=0 dh=0 dv=0
PairPos2: "'kern' Horizontal Kerning lookup 2 per glyph data 3" uni05DE dx=-10 dy=0 dh=-10 dv=0 dx=0 dy=0 dh=0 dv=0
PairPos2: "'kern' Horizontal Kerning lookup 2 per glyph data 3" uni05BE dx=20 dy=0 dh=20 dv=0 dx=0 dy=0 dh=0 dv=0
PairPos2: "'kern' Horizontal Kerning lookup 2 per glyph data 3" uni05DC dx=10 dy=0 dh=10 dv=0 dx=0 dy=0 dh=0 dv=0
PairPos2: "'kern' Horizontal Kerning lookup 2 per glyph data 3" uni05F3 dx=30 dy=0 dh=30 dv=0 dx=0 dy=0 dh=0 dv=0
PairPos2: "'kern' Horizontal Kerning lookup 2 per glyph data 3" uni05D3 dx=10 dy=0 dh=10 dv=0 dx=0 dy=0 dh=0 dv=0
PairPos2: "'kern' Horizontal Kerning lookup 2 per glyph data 3" quotesinglbase dx=-50 dy=0 dh=-50 dv=0 dx=0 dy=0 dh=0 dv=0
PairPos2: "'kern' Horizontal Kerning lookup 2 per glyph data 3" quotedblbase dx=-50 dy=0 dh=-50 dv=0 dx=0 dy=0 dh=0 dv=0
PairPos2: "'kern' Horizontal Kerning lookup 2 per glyph data 3" period dx=-50 dy=0 dh=-50 dv=0 dx=0 dy=0 dh=0 dv=0
PairPos2: "'kern' Horizontal Kerning lookup 2 per glyph data 3" ellipsis dx=-50 dy=0 dh=-50 dv=0 dx=0 dy=0 dh=0 dv=0
PairPos2: "'kern' Horizontal Kerning lookup 2 per glyph data 3" comma dx=-50 dy=0 dh=-50 dv=0 dx=0 dy=0 dh=0 dv=0
PairPos2: "'kern' Horizontal Kerning lookup 2 per glyph data 3" uni00AD dx=-20 dy=0 dh=-20 dv=0 dx=0 dy=0 dh=0 dv=0
PairPos2: "'kern' Horizontal Kerning lookup 2 per glyph data 3" hyphen dx=-20 dy=0 dh=-20 dv=0 dx=0 dy=0 dh=0 dv=0
PairPos2: "'kern' Horizontal Kerning lookup 2 per glyph data 3" endash dx=-20 dy=0 dh=-20 dv=0 dx=0 dy=0 dh=0 dv=0
PairPos2: "'kern' Horizontal Kerning lookup 2 per glyph data 3" emdash dx=-20 dy=0 dh=-20 dv=0 dx=0 dy=0 dh=0 dv=0
PairPos2: "'kern' Horizontal Kerning lookup 2 per glyph data 2" uni05DA dx=10 dy=0 dh=10 dv=0 dx=0 dy=0 dh=0 dv=0
EndChar
StartChar: one
Encoding: 49 49 326
Width: 312
Flags: W
LayerCount: 2
Fore
SplineSet
109.5 26 m 128,-1,1
 124 47 124 47 124 105 c 2,2,-1
 124 619 l 1,3,-1
 35 615 l 1,4,-1
 35 629 l 1,5,-1
 188 700 l 1,6,-1
 188 105 l 2,7,8
 188 47 188 47 203 26 c 128,-1,9
 218 5 218 5 232 0 c 1,10,-1
 81 0 l 1,11,0
 95 5 95 5 109.5 26 c 128,-1,1
EndSplineSet
Validated: 1
Substitution2: "'sups' Superscript lookup 4 subtable" uni00B9
Substitution2: "'aalt' Access All Alternates lookup 0 subtable" uni00B9
PairPos2: "'kern' Horizontal Kerning lookup 2 per glyph data 3" uni05D6 dx=10 dy=0 dh=10 dv=0 dx=0 dy=0 dh=0 dv=0
PairPos2: "'kern' Horizontal Kerning lookup 2 per glyph data 3" uni05E9 dx=10 dy=0 dh=10 dv=0 dx=0 dy=0 dh=0 dv=0
PairPos2: "'kern' Horizontal Kerning lookup 2 per glyph data 3" question dx=10 dy=0 dh=10 dv=0 dx=0 dy=0 dh=0 dv=0
PairPos2: "'kern' Horizontal Kerning lookup 2 per glyph data 3" uni05E7 dx=10 dy=0 dh=10 dv=0 dx=0 dy=0 dh=0 dv=0
PairPos2: "'kern' Horizontal Kerning lookup 2 per glyph data 3" uni05DE dx=-10 dy=0 dh=-10 dv=0 dx=0 dy=0 dh=0 dv=0
PairPos2: "'kern' Horizontal Kerning lookup 2 per glyph data 3" uni05BE dx=20 dy=0 dh=20 dv=0 dx=0 dy=0 dh=0 dv=0
PairPos2: "'kern' Horizontal Kerning lookup 2 per glyph data 3" uni05DC dx=10 dy=0 dh=10 dv=0 dx=0 dy=0 dh=0 dv=0
PairPos2: "'kern' Horizontal Kerning lookup 2 per glyph data 3" uni05F3 dx=30 dy=0 dh=30 dv=0 dx=0 dy=0 dh=0 dv=0
PairPos2: "'kern' Horizontal Kerning lookup 2 per glyph data 3" uni05D3 dx=10 dy=0 dh=10 dv=0 dx=0 dy=0 dh=0 dv=0
PairPos2: "'kern' Horizontal Kerning lookup 2 per glyph data 3" quotesinglbase dx=-50 dy=0 dh=-50 dv=0 dx=0 dy=0 dh=0 dv=0
PairPos2: "'kern' Horizontal Kerning lookup 2 per glyph data 3" quotedblbase dx=-50 dy=0 dh=-50 dv=0 dx=0 dy=0 dh=0 dv=0
PairPos2: "'kern' Horizontal Kerning lookup 2 per glyph data 3" period dx=-50 dy=0 dh=-50 dv=0 dx=0 dy=0 dh=0 dv=0
PairPos2: "'kern' Horizontal Kerning lookup 2 per glyph data 3" ellipsis dx=-50 dy=0 dh=-50 dv=0 dx=0 dy=0 dh=0 dv=0
PairPos2: "'kern' Horizontal Kerning lookup 2 per glyph data 3" comma dx=-50 dy=0 dh=-50 dv=0 dx=0 dy=0 dh=0 dv=0
PairPos2: "'kern' Horizontal Kerning lookup 2 per glyph data 3" uni00AD dx=-20 dy=0 dh=-20 dv=0 dx=0 dy=0 dh=0 dv=0
PairPos2: "'kern' Horizontal Kerning lookup 2 per glyph data 3" hyphen dx=-20 dy=0 dh=-20 dv=0 dx=0 dy=0 dh=0 dv=0
PairPos2: "'kern' Horizontal Kerning lookup 2 per glyph data 3" endash dx=-20 dy=0 dh=-20 dv=0 dx=0 dy=0 dh=0 dv=0
PairPos2: "'kern' Horizontal Kerning lookup 2 per glyph data 3" emdash dx=-20 dy=0 dh=-20 dv=0 dx=0 dy=0 dh=0 dv=0
PairPos2: "'kern' Horizontal Kerning lookup 2 per glyph data 2" uni05DA dx=10 dy=0 dh=10 dv=0 dx=0 dy=0 dh=0 dv=0
EndChar
StartChar: two
Encoding: 50 50 327
Width: 480
Flags: W
LayerCount: 2
Fore
SplineSet
102 93 m 2,0,1
 188 196 188 196 225.5 242.5 c 128,-1,2
 263 289 263 289 287 330 c 0,3,4
 313 374 313 374 324.5 414.5 c 128,-1,5
 336 455 336 455 336 497 c 0,6,7
 336 542 336 542 318 574.5 c 128,-1,8
 300 607 300 607 270.5 624 c 128,-1,9
 241 641 241 641 207 641 c 0,10,11
 144 641 144 641 105.5 595 c 128,-1,12
 67 549 67 549 67 479 c 1,13,14
 49 504 49 504 49 545 c 0,15,16
 49 583 49 583 68.5 619 c 128,-1,17
 88 655 88 655 127 677.5 c 128,-1,18
 166 700 166 700 221 700 c 0,19,20
 272 700 272 700 314.5 676 c 128,-1,21
 357 652 357 652 382.5 608 c 128,-1,22
 408 564 408 564 408 506 c 0,23,24
 408 412 408 412 333 311 c 0,25,26
 263 215 263 215 155 94 c 2,27,-1
 125 60 l 1,28,-1
 328 60 l 2,29,30
 380 60 380 60 406 75.5 c 128,-1,31
 432 91 432 91 441 106 c 1,32,-1
 422 0 l 1,33,-1
 24 0 l 1,34,-1
 102 93 l 2,0,1
EndSplineSet
Validated: 1
Substitution2: "'sups' Superscript lookup 4 subtable" uni00B2
Substitution2: "'aalt' Access All Alternates lookup 0 subtable" uni00B2
PairPos2: "'kern' Horizontal Kerning lookup 2 per glyph data 3" uni05D6 dx=10 dy=0 dh=10 dv=0 dx=0 dy=0 dh=0 dv=0
PairPos2: "'kern' Horizontal Kerning lookup 2 per glyph data 3" uni05E9 dx=10 dy=0 dh=10 dv=0 dx=0 dy=0 dh=0 dv=0
PairPos2: "'kern' Horizontal Kerning lookup 2 per glyph data 3" question dx=10 dy=0 dh=10 dv=0 dx=0 dy=0 dh=0 dv=0
PairPos2: "'kern' Horizontal Kerning lookup 2 per glyph data 3" uni05E7 dx=10 dy=0 dh=10 dv=0 dx=0 dy=0 dh=0 dv=0
PairPos2: "'kern' Horizontal Kerning lookup 2 per glyph data 3" uni05DE dx=-10 dy=0 dh=-10 dv=0 dx=0 dy=0 dh=0 dv=0
PairPos2: "'kern' Horizontal Kerning lookup 2 per glyph data 3" uni05BE dx=20 dy=0 dh=20 dv=0 dx=0 dy=0 dh=0 dv=0
PairPos2: "'kern' Horizontal Kerning lookup 2 per glyph data 3" uni05DC dx=10 dy=0 dh=10 dv=0 dx=0 dy=0 dh=0 dv=0
PairPos2: "'kern' Horizontal Kerning lookup 2 per glyph data 3" uni05F3 dx=30 dy=0 dh=30 dv=0 dx=0 dy=0 dh=0 dv=0
PairPos2: "'kern' Horizontal Kerning lookup 2 per glyph data 3" uni05D3 dx=10 dy=0 dh=10 dv=0 dx=0 dy=0 dh=0 dv=0
PairPos2: "'kern' Horizontal Kerning lookup 2 per glyph data 3" quotesinglbase dx=-50 dy=0 dh=-50 dv=0 dx=0 dy=0 dh=0 dv=0
PairPos2: "'kern' Horizontal Kerning lookup 2 per glyph data 3" quotedblbase dx=-50 dy=0 dh=-50 dv=0 dx=0 dy=0 dh=0 dv=0
PairPos2: "'kern' Horizontal Kerning lookup 2 per glyph data 3" period dx=-50 dy=0 dh=-50 dv=0 dx=0 dy=0 dh=0 dv=0
PairPos2: "'kern' Horizontal Kerning lookup 2 per glyph data 3" ellipsis dx=-50 dy=0 dh=-50 dv=0 dx=0 dy=0 dh=0 dv=0
PairPos2: "'kern' Horizontal Kerning lookup 2 per glyph data 3" comma dx=-50 dy=0 dh=-50 dv=0 dx=0 dy=0 dh=0 dv=0
PairPos2: "'kern' Horizontal Kerning lookup 2 per glyph data 3" uni00AD dx=-20 dy=0 dh=-20 dv=0 dx=0 dy=0 dh=0 dv=0
PairPos2: "'kern' Horizontal Kerning lookup 2 per glyph data 3" hyphen dx=-20 dy=0 dh=-20 dv=0 dx=0 dy=0 dh=0 dv=0
PairPos2: "'kern' Horizontal Kerning lookup 2 per glyph data 3" endash dx=-20 dy=0 dh=-20 dv=0 dx=0 dy=0 dh=0 dv=0
PairPos2: "'kern' Horizontal Kerning lookup 2 per glyph data 3" emdash dx=-20 dy=0 dh=-20 dv=0 dx=0 dy=0 dh=0 dv=0
PairPos2: "'kern' Horizontal Kerning lookup 2 per glyph data 2" uni05DA dx=10 dy=0 dh=10 dv=0 dx=0 dy=0 dh=0 dv=0
EndChar
StartChar: three
Encoding: 51 51 328
Width: 480
Flags: W
LayerCount: 2
Fore
SplineSet
383.5 319.5 m 128,-1,1
 424 268 424 268 424 204 c 0,2,3
 424 147 424 147 397.5 97.5 c 128,-1,4
 371 48 371 48 320.5 18 c 128,-1,5
 270 -12 270 -12 202 -12 c 0,6,7
 149 -12 149 -12 112.5 2 c 128,-1,8
 76 16 76 16 38 40 c 1,9,-1
 38 120 l 1,10,11
 55 83 55 83 100 55 c 128,-1,12
 145 27 145 27 200 27 c 0,13,14
 273 27 273 27 312.5 71.5 c 128,-1,15
 352 116 352 116 352 182 c 0,16,17
 352 260 352 260 304 302 c 128,-1,18
 256 344 256 344 183 344 c 2,19,-1
 164 344 l 1,20,-1
 164 360 l 1,21,22
 230 383 230 383 271 425.5 c 128,-1,23
 312 468 312 468 312 524 c 0,24,25
 312 575 312 575 282.5 607.5 c 128,-1,26
 253 640 253 640 201 640 c 0,27,28
 169 640 169 640 141 624 c 128,-1,29
 113 608 113 608 95.5 577.5 c 128,-1,30
 78 547 78 547 78 505 c 1,31,32
 60 529 60 529 60 566 c 0,33,34
 60 627 60 627 105 663.5 c 128,-1,35
 150 700 150 700 213 700 c 0,36,37
 282 700 282 700 329 660 c 128,-1,38
 376 620 376 620 376 552 c 0,39,40
 376 508 376 508 346.5 463 c 128,-1,41
 317 418 317 418 266 390 c 1,42,0
 343 371 343 371 383.5 319.5 c 128,-1,1
EndSplineSet
Validated: 1
Substitution2: "'sups' Superscript lookup 4 subtable" uni00B3
Substitution2: "'aalt' Access All Alternates lookup 0 subtable" uni00B3
PairPos2: "'kern' Horizontal Kerning lookup 2 per glyph data 3" uni05D6 dx=10 dy=0 dh=10 dv=0 dx=0 dy=0 dh=0 dv=0
PairPos2: "'kern' Horizontal Kerning lookup 2 per glyph data 3" uni05E9 dx=10 dy=0 dh=10 dv=0 dx=0 dy=0 dh=0 dv=0
PairPos2: "'kern' Horizontal Kerning lookup 2 per glyph data 3" question dx=10 dy=0 dh=10 dv=0 dx=0 dy=0 dh=0 dv=0
PairPos2: "'kern' Horizontal Kerning lookup 2 per glyph data 3" uni05E7 dx=10 dy=0 dh=10 dv=0 dx=0 dy=0 dh=0 dv=0
PairPos2: "'kern' Horizontal Kerning lookup 2 per glyph data 3" uni05DE dx=-10 dy=0 dh=-10 dv=0 dx=0 dy=0 dh=0 dv=0
PairPos2: "'kern' Horizontal Kerning lookup 2 per glyph data 3" uni05BE dx=20 dy=0 dh=20 dv=0 dx=0 dy=0 dh=0 dv=0
PairPos2: "'kern' Horizontal Kerning lookup 2 per glyph data 3" uni05DC dx=10 dy=0 dh=10 dv=0 dx=0 dy=0 dh=0 dv=0
PairPos2: "'kern' Horizontal Kerning lookup 2 per glyph data 3" uni05F3 dx=30 dy=0 dh=30 dv=0 dx=0 dy=0 dh=0 dv=0
PairPos2: "'kern' Horizontal Kerning lookup 2 per glyph data 3" uni05D3 dx=10 dy=0 dh=10 dv=0 dx=0 dy=0 dh=0 dv=0
PairPos2: "'kern' Horizontal Kerning lookup 2 per glyph data 3" quotesinglbase dx=-50 dy=0 dh=-50 dv=0 dx=0 dy=0 dh=0 dv=0
PairPos2: "'kern' Horizontal Kerning lookup 2 per glyph data 3" quotedblbase dx=-50 dy=0 dh=-50 dv=0 dx=0 dy=0 dh=0 dv=0
PairPos2: "'kern' Horizontal Kerning lookup 2 per glyph data 3" period dx=-50 dy=0 dh=-50 dv=0 dx=0 dy=0 dh=0 dv=0
PairPos2: "'kern' Horizontal Kerning lookup 2 per glyph data 3" ellipsis dx=-50 dy=0 dh=-50 dv=0 dx=0 dy=0 dh=0 dv=0
PairPos2: "'kern' Horizontal Kerning lookup 2 per glyph data 3" comma dx=-50 dy=0 dh=-50 dv=0 dx=0 dy=0 dh=0 dv=0
PairPos2: "'kern' Horizontal Kerning lookup 2 per glyph data 3" uni00AD dx=-20 dy=0 dh=-20 dv=0 dx=0 dy=0 dh=0 dv=0
PairPos2: "'kern' Horizontal Kerning lookup 2 per glyph data 3" hyphen dx=-20 dy=0 dh=-20 dv=0 dx=0 dy=0 dh=0 dv=0
PairPos2: "'kern' Horizontal Kerning lookup 2 per glyph data 3" endash dx=-20 dy=0 dh=-20 dv=0 dx=0 dy=0 dh=0 dv=0
PairPos2: "'kern' Horizontal Kerning lookup 2 per glyph data 3" emdash dx=-20 dy=0 dh=-20 dv=0 dx=0 dy=0 dh=0 dv=0
PairPos2: "'kern' Horizontal Kerning lookup 2 per glyph data 2" uni05DA dx=10 dy=0 dh=10 dv=0 dx=0 dy=0 dh=0 dv=0
EndChar
StartChar: four
Encoding: 52 52 329
Width: 504
Flags: W
LayerCount: 2
Fore
SplineSet
452 236 m 1,0,-1
 452 188 l 1,1,-1
 368 188 l 1,2,-1
 368 93 l 2,3,4
 368 20 368 20 398 0 c 1,5,-1
 275 0 l 2,6,7
 283 2 283 2 293.5 22.5 c 128,-1,8
 304 43 304 43 304 94 c 2,9,-1
 304 188 l 1,10,-1
 2 188 l 1,11,-1
 368 710 l 1,12,-1
 368 236 l 1,13,-1
 452 236 l 1,0,-1
304 551 m 1,14,-1
 84 236 l 1,15,-1
 304 236 l 1,16,-1
 304 551 l 1,14,-1
EndSplineSet
Validated: 1
PairPos2: "'kern' Horizontal Kerning lookup 2 per glyph data 3" uni05D6 dx=10 dy=0 dh=10 dv=0 dx=0 dy=0 dh=0 dv=0
PairPos2: "'kern' Horizontal Kerning lookup 2 per glyph data 3" uni05E9 dx=10 dy=0 dh=10 dv=0 dx=0 dy=0 dh=0 dv=0
PairPos2: "'kern' Horizontal Kerning lookup 2 per glyph data 3" question dx=10 dy=0 dh=10 dv=0 dx=0 dy=0 dh=0 dv=0
PairPos2: "'kern' Horizontal Kerning lookup 2 per glyph data 3" uni05E7 dx=10 dy=0 dh=10 dv=0 dx=0 dy=0 dh=0 dv=0
PairPos2: "'kern' Horizontal Kerning lookup 2 per glyph data 3" uni05DE dx=-10 dy=0 dh=-10 dv=0 dx=0 dy=0 dh=0 dv=0
PairPos2: "'kern' Horizontal Kerning lookup 2 per glyph data 3" uni05BE dx=20 dy=0 dh=20 dv=0 dx=0 dy=0 dh=0 dv=0
PairPos2: "'kern' Horizontal Kerning lookup 2 per glyph data 3" uni05DC dx=10 dy=0 dh=10 dv=0 dx=0 dy=0 dh=0 dv=0
PairPos2: "'kern' Horizontal Kerning lookup 2 per glyph data 3" uni05F3 dx=30 dy=0 dh=30 dv=0 dx=0 dy=0 dh=0 dv=0
PairPos2: "'kern' Horizontal Kerning lookup 2 per glyph data 3" uni05D3 dx=10 dy=0 dh=10 dv=0 dx=0 dy=0 dh=0 dv=0
PairPos2: "'kern' Horizontal Kerning lookup 2 per glyph data 3" quotesinglbase dx=-50 dy=0 dh=-50 dv=0 dx=0 dy=0 dh=0 dv=0
PairPos2: "'kern' Horizontal Kerning lookup 2 per glyph data 3" quotedblbase dx=-50 dy=0 dh=-50 dv=0 dx=0 dy=0 dh=0 dv=0
PairPos2: "'kern' Horizontal Kerning lookup 2 per glyph data 3" period dx=-50 dy=0 dh=-50 dv=0 dx=0 dy=0 dh=0 dv=0
PairPos2: "'kern' Horizontal Kerning lookup 2 per glyph data 3" ellipsis dx=-50 dy=0 dh=-50 dv=0 dx=0 dy=0 dh=0 dv=0
PairPos2: "'kern' Horizontal Kerning lookup 2 per glyph data 3" comma dx=-50 dy=0 dh=-50 dv=0 dx=0 dy=0 dh=0 dv=0
PairPos2: "'kern' Horizontal Kerning lookup 2 per glyph data 3" uni00AD dx=-20 dy=0 dh=-20 dv=0 dx=0 dy=0 dh=0 dv=0
PairPos2: "'kern' Horizontal Kerning lookup 2 per glyph data 3" hyphen dx=-20 dy=0 dh=-20 dv=0 dx=0 dy=0 dh=0 dv=0
PairPos2: "'kern' Horizontal Kerning lookup 2 per glyph data 3" endash dx=-20 dy=0 dh=-20 dv=0 dx=0 dy=0 dh=0 dv=0
PairPos2: "'kern' Horizontal Kerning lookup 2 per glyph data 3" emdash dx=-20 dy=0 dh=-20 dv=0 dx=0 dy=0 dh=0 dv=0
PairPos2: "'kern' Horizontal Kerning lookup 2 per glyph data 2" uni05DA dx=10 dy=0 dh=10 dv=0 dx=0 dy=0 dh=0 dv=0
EndChar
StartChar: five
Encoding: 53 53 330
Width: 448
Flags: W
LayerCount: 2
Fore
SplineSet
109 472 m 1,0,1
 191 470 191 470 246 453 c 0,2,3
 319 430 319 430 358 378 c 128,-1,4
 397 326 397 326 397 259 c 0,5,6
 397 182 397 182 353 121.5 c 128,-1,7
 309 61 309 61 234 27 c 128,-1,8
 159 -7 159 -7 70 -7 c 2,9,-1
 59 -7 l 1,10,-1
 41 33 l 1,11,-1
 51 33 l 2,12,13
 180 33 180 33 256 86 c 128,-1,14
 332 139 332 139 332 237 c 0,15,16
 332 316 332 316 275.5 363.5 c 128,-1,17
 219 411 219 411 98 411 c 2,18,-1
 52 411 l 1,19,-1
 120 688 l 1,20,-1
 293 688 l 2,21,22
 375 688 375 688 392 705 c 1,23,-1
 372 624 l 1,24,-1
 145 624 l 1,25,-1
 109 472 l 1,0,1
EndSplineSet
Validated: 1
PairPos2: "'kern' Horizontal Kerning lookup 2 per glyph data 3" uni05D6 dx=10 dy=0 dh=10 dv=0 dx=0 dy=0 dh=0 dv=0
PairPos2: "'kern' Horizontal Kerning lookup 2 per glyph data 3" uni05E9 dx=10 dy=0 dh=10 dv=0 dx=0 dy=0 dh=0 dv=0
PairPos2: "'kern' Horizontal Kerning lookup 2 per glyph data 3" question dx=10 dy=0 dh=10 dv=0 dx=0 dy=0 dh=0 dv=0
PairPos2: "'kern' Horizontal Kerning lookup 2 per glyph data 3" uni05E7 dx=10 dy=0 dh=10 dv=0 dx=0 dy=0 dh=0 dv=0
PairPos2: "'kern' Horizontal Kerning lookup 2 per glyph data 3" uni05DE dx=-10 dy=0 dh=-10 dv=0 dx=0 dy=0 dh=0 dv=0
PairPos2: "'kern' Horizontal Kerning lookup 2 per glyph data 3" uni05BE dx=20 dy=0 dh=20 dv=0 dx=0 dy=0 dh=0 dv=0
PairPos2: "'kern' Horizontal Kerning lookup 2 per glyph data 3" uni05DC dx=10 dy=0 dh=10 dv=0 dx=0 dy=0 dh=0 dv=0
PairPos2: "'kern' Horizontal Kerning lookup 2 per glyph data 3" uni05F3 dx=30 dy=0 dh=30 dv=0 dx=0 dy=0 dh=0 dv=0
PairPos2: "'kern' Horizontal Kerning lookup 2 per glyph data 3" uni05D3 dx=10 dy=0 dh=10 dv=0 dx=0 dy=0 dh=0 dv=0
PairPos2: "'kern' Horizontal Kerning lookup 2 per glyph data 3" quotesinglbase dx=-50 dy=0 dh=-50 dv=0 dx=0 dy=0 dh=0 dv=0
PairPos2: "'kern' Horizontal Kerning lookup 2 per glyph data 3" quotedblbase dx=-50 dy=0 dh=-50 dv=0 dx=0 dy=0 dh=0 dv=0
PairPos2: "'kern' Horizontal Kerning lookup 2 per glyph data 3" period dx=-50 dy=0 dh=-50 dv=0 dx=0 dy=0 dh=0 dv=0
PairPos2: "'kern' Horizontal Kerning lookup 2 per glyph data 3" ellipsis dx=-50 dy=0 dh=-50 dv=0 dx=0 dy=0 dh=0 dv=0
PairPos2: "'kern' Horizontal Kerning lookup 2 per glyph data 3" comma dx=-50 dy=0 dh=-50 dv=0 dx=0 dy=0 dh=0 dv=0
PairPos2: "'kern' Horizontal Kerning lookup 2 per glyph data 3" uni00AD dx=-20 dy=0 dh=-20 dv=0 dx=0 dy=0 dh=0 dv=0
PairPos2: "'kern' Horizontal Kerning lookup 2 per glyph data 3" hyphen dx=-20 dy=0 dh=-20 dv=0 dx=0 dy=0 dh=0 dv=0
PairPos2: "'kern' Horizontal Kerning lookup 2 per glyph data 3" endash dx=-20 dy=0 dh=-20 dv=0 dx=0 dy=0 dh=0 dv=0
PairPos2: "'kern' Horizontal Kerning lookup 2 per glyph data 3" emdash dx=-20 dy=0 dh=-20 dv=0 dx=0 dy=0 dh=0 dv=0
PairPos2: "'kern' Horizontal Kerning lookup 2 per glyph data 2" uni05DA dx=10 dy=0 dh=10 dv=0 dx=0 dy=0 dh=0 dv=0
EndChar
StartChar: six
Encoding: 54 54 331
Width: 522
Flags: W
LayerCount: 2
Fore
SplineSet
388 237.5 m 128,-1,1
 374 271 374 271 346.5 292 c 128,-1,2
 319 313 319 313 282 313 c 0,3,4
 226 313 226 313 181 267 c 1,5,6
 181 283 181 283 196.5 305.5 c 128,-1,7
 212 328 212 328 241.5 344.5 c 128,-1,8
 271 361 271 361 312 361 c 0,9,10
 364 361 364 361 400.5 337.5 c 128,-1,11
 437 314 437 314 455.5 275 c 128,-1,12
 474 236 474 236 474 191 c 0,13,14
 474 139 474 139 450.5 92.5 c 128,-1,15
 427 46 427 46 381.5 17 c 128,-1,16
 336 -12 336 -12 274 -12 c 0,17,18
 208 -12 208 -12 160.5 26 c 128,-1,19
 113 64 113 64 88.5 126.5 c 128,-1,20
 64 189 64 189 64 260 c 0,21,22
 64 347 64 347 107 438 c 128,-1,23
 150 529 150 529 226 600 c 128,-1,24
 302 671 302 671 395 701 c 1,25,-1
 434 683 l 1,26,27
 340 645 340 645 272.5 572.5 c 128,-1,28
 205 500 205 500 170.5 413 c 128,-1,29
 136 326 136 326 136 245 c 0,30,31
 136 178 136 178 155 128 c 128,-1,32
 174 78 174 78 206.5 51.5 c 128,-1,33
 239 25 239 25 277 25 c 0,34,35
 338 25 338 25 370 65 c 128,-1,36
 402 105 402 105 402 167 c 0,37,0
 402 204 402 204 388 237.5 c 128,-1,1
EndSplineSet
Validated: 1
PairPos2: "'kern' Horizontal Kerning lookup 2 per glyph data 3" uni05D6 dx=10 dy=0 dh=10 dv=0 dx=0 dy=0 dh=0 dv=0
PairPos2: "'kern' Horizontal Kerning lookup 2 per glyph data 3" uni05E9 dx=10 dy=0 dh=10 dv=0 dx=0 dy=0 dh=0 dv=0
PairPos2: "'kern' Horizontal Kerning lookup 2 per glyph data 3" question dx=10 dy=0 dh=10 dv=0 dx=0 dy=0 dh=0 dv=0
PairPos2: "'kern' Horizontal Kerning lookup 2 per glyph data 3" uni05E7 dx=10 dy=0 dh=10 dv=0 dx=0 dy=0 dh=0 dv=0
PairPos2: "'kern' Horizontal Kerning lookup 2 per glyph data 3" uni05DE dx=-10 dy=0 dh=-10 dv=0 dx=0 dy=0 dh=0 dv=0
PairPos2: "'kern' Horizontal Kerning lookup 2 per glyph data 3" uni05BE dx=20 dy=0 dh=20 dv=0 dx=0 dy=0 dh=0 dv=0
PairPos2: "'kern' Horizontal Kerning lookup 2 per glyph data 3" uni05DC dx=10 dy=0 dh=10 dv=0 dx=0 dy=0 dh=0 dv=0
PairPos2: "'kern' Horizontal Kerning lookup 2 per glyph data 3" uni05F3 dx=30 dy=0 dh=30 dv=0 dx=0 dy=0 dh=0 dv=0
PairPos2: "'kern' Horizontal Kerning lookup 2 per glyph data 3" uni05D3 dx=10 dy=0 dh=10 dv=0 dx=0 dy=0 dh=0 dv=0
PairPos2: "'kern' Horizontal Kerning lookup 2 per glyph data 3" quotesinglbase dx=-50 dy=0 dh=-50 dv=0 dx=0 dy=0 dh=0 dv=0
PairPos2: "'kern' Horizontal Kerning lookup 2 per glyph data 3" quotedblbase dx=-50 dy=0 dh=-50 dv=0 dx=0 dy=0 dh=0 dv=0
PairPos2: "'kern' Horizontal Kerning lookup 2 per glyph data 3" period dx=-50 dy=0 dh=-50 dv=0 dx=0 dy=0 dh=0 dv=0
PairPos2: "'kern' Horizontal Kerning lookup 2 per glyph data 3" ellipsis dx=-50 dy=0 dh=-50 dv=0 dx=0 dy=0 dh=0 dv=0
PairPos2: "'kern' Horizontal Kerning lookup 2 per glyph data 3" comma dx=-50 dy=0 dh=-50 dv=0 dx=0 dy=0 dh=0 dv=0
PairPos2: "'kern' Horizontal Kerning lookup 2 per glyph data 3" uni00AD dx=-20 dy=0 dh=-20 dv=0 dx=0 dy=0 dh=0 dv=0
PairPos2: "'kern' Horizontal Kerning lookup 2 per glyph data 3" hyphen dx=-20 dy=0 dh=-20 dv=0 dx=0 dy=0 dh=0 dv=0
PairPos2: "'kern' Horizontal Kerning lookup 2 per glyph data 3" endash dx=-20 dy=0 dh=-20 dv=0 dx=0 dy=0 dh=0 dv=0
PairPos2: "'kern' Horizontal Kerning lookup 2 per glyph data 3" emdash dx=-20 dy=0 dh=-20 dv=0 dx=0 dy=0 dh=0 dv=0
PairPos2: "'kern' Horizontal Kerning lookup 2 per glyph data 2" uni05DA dx=10 dy=0 dh=10 dv=0 dx=0 dy=0 dh=0 dv=0
EndChar
StartChar: seven
Encoding: 55 55 332
Width: 456
Flags: W
LayerCount: 2
Fore
SplineSet
163.5 115.5 m 128,-1,1
 133 46 133 46 120 0 c 1,2,-1
 52 0 l 1,3,4
 80 63 80 63 127 153.5 c 128,-1,5
 174 244 174 244 252 391 c 0,6,7
 266 416 266 416 311 502 c 128,-1,8
 356 588 356 588 373 624 c 1,9,-1
 139 624 l 2,10,11
 60 624 60 624 31 575 c 1,12,-1
 61 688 l 1,13,-1
 456 688 l 1,14,-1
 228 250 l 2,15,0
 194 185 194 185 163.5 115.5 c 128,-1,1
EndSplineSet
Validated: 1
PairPos2: "'kern' Horizontal Kerning lookup 2 per glyph data 3" uni05D6 dx=10 dy=0 dh=10 dv=0 dx=0 dy=0 dh=0 dv=0
PairPos2: "'kern' Horizontal Kerning lookup 2 per glyph data 3" uni05E9 dx=10 dy=0 dh=10 dv=0 dx=0 dy=0 dh=0 dv=0
PairPos2: "'kern' Horizontal Kerning lookup 2 per glyph data 3" question dx=10 dy=0 dh=10 dv=0 dx=0 dy=0 dh=0 dv=0
PairPos2: "'kern' Horizontal Kerning lookup 2 per glyph data 3" uni05E7 dx=10 dy=0 dh=10 dv=0 dx=0 dy=0 dh=0 dv=0
PairPos2: "'kern' Horizontal Kerning lookup 2 per glyph data 3" uni05DE dx=-10 dy=0 dh=-10 dv=0 dx=0 dy=0 dh=0 dv=0
PairPos2: "'kern' Horizontal Kerning lookup 2 per glyph data 3" uni05BE dx=20 dy=0 dh=20 dv=0 dx=0 dy=0 dh=0 dv=0
PairPos2: "'kern' Horizontal Kerning lookup 2 per glyph data 3" uni05DC dx=10 dy=0 dh=10 dv=0 dx=0 dy=0 dh=0 dv=0
PairPos2: "'kern' Horizontal Kerning lookup 2 per glyph data 3" uni05F3 dx=30 dy=0 dh=30 dv=0 dx=0 dy=0 dh=0 dv=0
PairPos2: "'kern' Horizontal Kerning lookup 2 per glyph data 3" uni05D3 dx=10 dy=0 dh=10 dv=0 dx=0 dy=0 dh=0 dv=0
PairPos2: "'kern' Horizontal Kerning lookup 2 per glyph data 3" quotesinglbase dx=-50 dy=0 dh=-50 dv=0 dx=0 dy=0 dh=0 dv=0
PairPos2: "'kern' Horizontal Kerning lookup 2 per glyph data 3" quotedblbase dx=-50 dy=0 dh=-50 dv=0 dx=0 dy=0 dh=0 dv=0
PairPos2: "'kern' Horizontal Kerning lookup 2 per glyph data 3" period dx=-50 dy=0 dh=-50 dv=0 dx=0 dy=0 dh=0 dv=0
PairPos2: "'kern' Horizontal Kerning lookup 2 per glyph data 3" ellipsis dx=-50 dy=0 dh=-50 dv=0 dx=0 dy=0 dh=0 dv=0
PairPos2: "'kern' Horizontal Kerning lookup 2 per glyph data 3" comma dx=-50 dy=0 dh=-50 dv=0 dx=0 dy=0 dh=0 dv=0
PairPos2: "'kern' Horizontal Kerning lookup 2 per glyph data 3" uni00AD dx=-20 dy=0 dh=-20 dv=0 dx=0 dy=0 dh=0 dv=0
PairPos2: "'kern' Horizontal Kerning lookup 2 per glyph data 3" hyphen dx=-20 dy=0 dh=-20 dv=0 dx=0 dy=0 dh=0 dv=0
PairPos2: "'kern' Horizontal Kerning lookup 2 per glyph data 3" endash dx=-20 dy=0 dh=-20 dv=0 dx=0 dy=0 dh=0 dv=0
PairPos2: "'kern' Horizontal Kerning lookup 2 per glyph data 3" emdash dx=-20 dy=0 dh=-20 dv=0 dx=0 dy=0 dh=0 dv=0
PairPos2: "'kern' Horizontal Kerning lookup 2 per glyph data 2" uni05DA dx=10 dy=0 dh=10 dv=0 dx=0 dy=0 dh=0 dv=0
EndChar
StartChar: eight
Encoding: 56 56 333
Width: 504
Flags: W
LayerCount: 2
Fore
SplineSet
85 270.5 m 128,-1,1
 48 228 48 228 48 168 c 0,2,3
 48 121 48 121 72 80 c 128,-1,4
 96 39 96 39 142 13.5 c 128,-1,5
 188 -12 188 -12 252 -12 c 0,6,7
 313 -12 313 -12 359.5 14 c 128,-1,8
 406 40 406 40 431 82.5 c 128,-1,9
 456 125 456 125 456 172 c 0,10,11
 456 214 456 214 442 245.5 c 128,-1,12
 428 277 428 277 396.5 306 c 128,-1,13
 365 335 365 335 307 370 c 1,14,15
 362 398 362 398 395 442.5 c 128,-1,16
 428 487 428 487 428 541 c 0,17,18
 428 584 428 584 405 620.5 c 128,-1,19
 382 657 382 657 342 678.5 c 128,-1,20
 302 700 302 700 252 700 c 256,21,22
 202 700 202 700 162 677.5 c 128,-1,23
 122 655 122 655 99.5 617.5 c 128,-1,24
 77 580 77 580 77 535 c 0,25,26
 77 432 77 432 202 355 c 1,27,0
 122 313 122 313 85 270.5 c 128,-1,1
253 401 m 2,28,29
 200 433 200 433 166 469.5 c 128,-1,30
 132 506 132 506 132 550 c 0,31,32
 132 600 132 600 167 632 c 128,-1,33
 202 664 202 664 252 664 c 0,34,35
 303 664 303 664 336.5 628 c 128,-1,36
 370 592 370 592 370 540 c 0,37,38
 370 484 370 484 342.5 447 c 128,-1,39
 315 410 315 410 273 389 c 1,40,-1
 253 401 l 2,28,29
256 323 m 2,41,42
 300 296 300 296 326.5 276 c 128,-1,43
 353 256 353 256 372 227 c 128,-1,44
 391 198 391 198 391 160 c 0,45,46
 391 99 391 99 351 61.5 c 128,-1,47
 311 24 311 24 252 24 c 0,48,49
 208 24 208 24 175.5 44.5 c 128,-1,50
 143 65 143 65 125 99 c 128,-1,51
 107 133 107 133 107 172 c 0,52,53
 107 218 107 218 125.5 249 c 128,-1,54
 144 280 144 280 169.5 297.5 c 128,-1,55
 195 315 195 315 235 335 c 1,56,-1
 256 323 l 2,41,42
EndSplineSet
Validated: 9
PairPos2: "'kern' Horizontal Kerning lookup 2 per glyph data 3" uni05D6 dx=10 dy=0 dh=10 dv=0 dx=0 dy=0 dh=0 dv=0
PairPos2: "'kern' Horizontal Kerning lookup 2 per glyph data 3" uni05E9 dx=10 dy=0 dh=10 dv=0 dx=0 dy=0 dh=0 dv=0
PairPos2: "'kern' Horizontal Kerning lookup 2 per glyph data 3" question dx=10 dy=0 dh=10 dv=0 dx=0 dy=0 dh=0 dv=0
PairPos2: "'kern' Horizontal Kerning lookup 2 per glyph data 3" uni05E7 dx=10 dy=0 dh=10 dv=0 dx=0 dy=0 dh=0 dv=0
PairPos2: "'kern' Horizontal Kerning lookup 2 per glyph data 3" uni05DE dx=-10 dy=0 dh=-10 dv=0 dx=0 dy=0 dh=0 dv=0
PairPos2: "'kern' Horizontal Kerning lookup 2 per glyph data 3" uni05BE dx=20 dy=0 dh=20 dv=0 dx=0 dy=0 dh=0 dv=0
PairPos2: "'kern' Horizontal Kerning lookup 2 per glyph data 3" uni05DC dx=10 dy=0 dh=10 dv=0 dx=0 dy=0 dh=0 dv=0
PairPos2: "'kern' Horizontal Kerning lookup 2 per glyph data 3" uni05F3 dx=30 dy=0 dh=30 dv=0 dx=0 dy=0 dh=0 dv=0
PairPos2: "'kern' Horizontal Kerning lookup 2 per glyph data 3" uni05D3 dx=10 dy=0 dh=10 dv=0 dx=0 dy=0 dh=0 dv=0
PairPos2: "'kern' Horizontal Kerning lookup 2 per glyph data 3" quotesinglbase dx=-50 dy=0 dh=-50 dv=0 dx=0 dy=0 dh=0 dv=0
PairPos2: "'kern' Horizontal Kerning lookup 2 per glyph data 3" quotedblbase dx=-50 dy=0 dh=-50 dv=0 dx=0 dy=0 dh=0 dv=0
PairPos2: "'kern' Horizontal Kerning lookup 2 per glyph data 3" period dx=-50 dy=0 dh=-50 dv=0 dx=0 dy=0 dh=0 dv=0
PairPos2: "'kern' Horizontal Kerning lookup 2 per glyph data 3" ellipsis dx=-50 dy=0 dh=-50 dv=0 dx=0 dy=0 dh=0 dv=0
PairPos2: "'kern' Horizontal Kerning lookup 2 per glyph data 3" comma dx=-50 dy=0 dh=-50 dv=0 dx=0 dy=0 dh=0 dv=0
PairPos2: "'kern' Horizontal Kerning lookup 2 per glyph data 3" uni00AD dx=-20 dy=0 dh=-20 dv=0 dx=0 dy=0 dh=0 dv=0
PairPos2: "'kern' Horizontal Kerning lookup 2 per glyph data 3" hyphen dx=-20 dy=0 dh=-20 dv=0 dx=0 dy=0 dh=0 dv=0
PairPos2: "'kern' Horizontal Kerning lookup 2 per glyph data 3" endash dx=-20 dy=0 dh=-20 dv=0 dx=0 dy=0 dh=0 dv=0
PairPos2: "'kern' Horizontal Kerning lookup 2 per glyph data 3" emdash dx=-20 dy=0 dh=-20 dv=0 dx=0 dy=0 dh=0 dv=0
PairPos2: "'kern' Horizontal Kerning lookup 2 per glyph data 2" uni05DA dx=10 dy=0 dh=10 dv=0 dx=0 dy=0 dh=0 dv=0
EndChar
StartChar: nine
Encoding: 57 57 334
Width: 522
Flags: W
LayerCount: 2
Fore
SplineSet
134 451.5 m 128,-1,1
 148 418 148 418 175 397 c 128,-1,2
 202 376 202 376 239 376 c 0,3,4
 295 376 295 376 340 422 c 1,5,6
 340 406 340 406 324.5 384 c 128,-1,7
 309 362 309 362 279.5 345.5 c 128,-1,8
 250 329 250 329 210 329 c 0,9,10
 158 329 158 329 121.5 352.5 c 128,-1,11
 85 376 85 376 66.5 414.5 c 128,-1,12
 48 453 48 453 48 498 c 0,13,14
 48 549 48 549 71.5 595.5 c 128,-1,15
 95 642 95 642 140 671 c 128,-1,16
 185 700 185 700 247 700 c 0,17,18
 313 700 313 700 360 662 c 128,-1,19
 407 624 407 624 431.5 562 c 128,-1,20
 456 500 456 500 456 429 c 0,21,22
 456 343 456 343 413 252.5 c 128,-1,23
 370 162 370 162 295 91 c 128,-1,24
 220 20 220 20 127 -10 c 1,25,-1
 88 8 l 1,26,27
 182 46 182 46 249 118.5 c 128,-1,28
 316 191 316 191 350.5 277 c 128,-1,29
 385 363 385 363 385 444 c 0,30,31
 385 511 385 511 366 560.5 c 128,-1,32
 347 610 347 610 314.5 636.5 c 128,-1,33
 282 663 282 663 244 663 c 0,34,35
 183 663 183 663 151.5 623 c 128,-1,36
 120 583 120 583 120 522 c 0,37,0
 120 485 120 485 134 451.5 c 128,-1,1
EndSplineSet
Validated: 1
PairPos2: "'kern' Horizontal Kerning lookup 2 per glyph data 3" uni05D6 dx=10 dy=0 dh=10 dv=0 dx=0 dy=0 dh=0 dv=0
PairPos2: "'kern' Horizontal Kerning lookup 2 per glyph data 3" uni05E9 dx=10 dy=0 dh=10 dv=0 dx=0 dy=0 dh=0 dv=0
PairPos2: "'kern' Horizontal Kerning lookup 2 per glyph data 3" question dx=10 dy=0 dh=10 dv=0 dx=0 dy=0 dh=0 dv=0
PairPos2: "'kern' Horizontal Kerning lookup 2 per glyph data 3" uni05E7 dx=10 dy=0 dh=10 dv=0 dx=0 dy=0 dh=0 dv=0
PairPos2: "'kern' Horizontal Kerning lookup 2 per glyph data 3" uni05DE dx=-10 dy=0 dh=-10 dv=0 dx=0 dy=0 dh=0 dv=0
PairPos2: "'kern' Horizontal Kerning lookup 2 per glyph data 3" uni05BE dx=20 dy=0 dh=20 dv=0 dx=0 dy=0 dh=0 dv=0
PairPos2: "'kern' Horizontal Kerning lookup 2 per glyph data 3" uni05DC dx=10 dy=0 dh=10 dv=0 dx=0 dy=0 dh=0 dv=0
PairPos2: "'kern' Horizontal Kerning lookup 2 per glyph data 3" uni05F3 dx=30 dy=0 dh=30 dv=0 dx=0 dy=0 dh=0 dv=0
PairPos2: "'kern' Horizontal Kerning lookup 2 per glyph data 3" uni05D3 dx=10 dy=0 dh=10 dv=0 dx=0 dy=0 dh=0 dv=0
PairPos2: "'kern' Horizontal Kerning lookup 2 per glyph data 3" quotesinglbase dx=-50 dy=0 dh=-50 dv=0 dx=0 dy=0 dh=0 dv=0
PairPos2: "'kern' Horizontal Kerning lookup 2 per glyph data 3" quotedblbase dx=-50 dy=0 dh=-50 dv=0 dx=0 dy=0 dh=0 dv=0
PairPos2: "'kern' Horizontal Kerning lookup 2 per glyph data 3" period dx=-50 dy=0 dh=-50 dv=0 dx=0 dy=0 dh=0 dv=0
PairPos2: "'kern' Horizontal Kerning lookup 2 per glyph data 3" ellipsis dx=-50 dy=0 dh=-50 dv=0 dx=0 dy=0 dh=0 dv=0
PairPos2: "'kern' Horizontal Kerning lookup 2 per glyph data 3" comma dx=-50 dy=0 dh=-50 dv=0 dx=0 dy=0 dh=0 dv=0
PairPos2: "'kern' Horizontal Kerning lookup 2 per glyph data 3" uni00AD dx=-20 dy=0 dh=-20 dv=0 dx=0 dy=0 dh=0 dv=0
PairPos2: "'kern' Horizontal Kerning lookup 2 per glyph data 3" hyphen dx=-20 dy=0 dh=-20 dv=0 dx=0 dy=0 dh=0 dv=0
PairPos2: "'kern' Horizontal Kerning lookup 2 per glyph data 3" endash dx=-20 dy=0 dh=-20 dv=0 dx=0 dy=0 dh=0 dv=0
PairPos2: "'kern' Horizontal Kerning lookup 2 per glyph data 3" emdash dx=-20 dy=0 dh=-20 dv=0 dx=0 dy=0 dh=0 dv=0
PairPos2: "'kern' Horizontal Kerning lookup 2 per glyph data 2" uni05DA dx=10 dy=0 dh=10 dv=0 dx=0 dy=0 dh=0 dv=0
EndChar
StartChar: less
Encoding: 60 60 403
Width: 560
Flags: W
LayerCount: 2
Fore
SplineSet
97 238 m 1,0,-1
 463 439 l 1,1,-1
 463 377 l 1,2,-1
 165 216 l 1,3,-1
 165 212 l 1,4,-1
 463 56 l 1,5,-1
 463 -7 l 1,6,-1
 97 193 l 1,7,-1
 97 238 l 1,0,-1
EndSplineSet
Validated: 1
PairPos2: "'kern' Horizontal Kerning lookup 2 per glyph data 3" uni05D6 dx=10 dy=0 dh=10 dv=0 dx=0 dy=0 dh=0 dv=0
PairPos2: "'kern' Horizontal Kerning lookup 2 per glyph data 3" uni05E9 dx=10 dy=0 dh=10 dv=0 dx=0 dy=0 dh=0 dv=0
PairPos2: "'kern' Horizontal Kerning lookup 2 per glyph data 3" question dx=10 dy=0 dh=10 dv=0 dx=0 dy=0 dh=0 dv=0
PairPos2: "'kern' Horizontal Kerning lookup 2 per glyph data 3" uni05E7 dx=10 dy=0 dh=10 dv=0 dx=0 dy=0 dh=0 dv=0
PairPos2: "'kern' Horizontal Kerning lookup 2 per glyph data 3" uni05DE dx=-10 dy=0 dh=-10 dv=0 dx=0 dy=0 dh=0 dv=0
PairPos2: "'kern' Horizontal Kerning lookup 2 per glyph data 3" uni05BE dx=20 dy=0 dh=20 dv=0 dx=0 dy=0 dh=0 dv=0
PairPos2: "'kern' Horizontal Kerning lookup 2 per glyph data 3" uni05DC dx=10 dy=0 dh=10 dv=0 dx=0 dy=0 dh=0 dv=0
PairPos2: "'kern' Horizontal Kerning lookup 2 per glyph data 3" uni05F3 dx=30 dy=0 dh=30 dv=0 dx=0 dy=0 dh=0 dv=0
PairPos2: "'kern' Horizontal Kerning lookup 2 per glyph data 3" uni05D3 dx=10 dy=0 dh=10 dv=0 dx=0 dy=0 dh=0 dv=0
PairPos2: "'kern' Horizontal Kerning lookup 2 per glyph data 3" quotesinglbase dx=-50 dy=0 dh=-50 dv=0 dx=0 dy=0 dh=0 dv=0
PairPos2: "'kern' Horizontal Kerning lookup 2 per glyph data 3" quotedblbase dx=-50 dy=0 dh=-50 dv=0 dx=0 dy=0 dh=0 dv=0
PairPos2: "'kern' Horizontal Kerning lookup 2 per glyph data 3" period dx=-50 dy=0 dh=-50 dv=0 dx=0 dy=0 dh=0 dv=0
PairPos2: "'kern' Horizontal Kerning lookup 2 per glyph data 3" ellipsis dx=-50 dy=0 dh=-50 dv=0 dx=0 dy=0 dh=0 dv=0
PairPos2: "'kern' Horizontal Kerning lookup 2 per glyph data 3" comma dx=-50 dy=0 dh=-50 dv=0 dx=0 dy=0 dh=0 dv=0
PairPos2: "'kern' Horizontal Kerning lookup 2 per glyph data 3" uni00AD dx=-20 dy=0 dh=-20 dv=0 dx=0 dy=0 dh=0 dv=0
PairPos2: "'kern' Horizontal Kerning lookup 2 per glyph data 3" hyphen dx=-20 dy=0 dh=-20 dv=0 dx=0 dy=0 dh=0 dv=0
PairPos2: "'kern' Horizontal Kerning lookup 2 per glyph data 3" endash dx=-20 dy=0 dh=-20 dv=0 dx=0 dy=0 dh=0 dv=0
PairPos2: "'kern' Horizontal Kerning lookup 2 per glyph data 3" emdash dx=-20 dy=0 dh=-20 dv=0 dx=0 dy=0 dh=0 dv=0
PairPos2: "'kern' Horizontal Kerning lookup 2 per glyph data 2" uni05DA dx=10 dy=0 dh=10 dv=0 dx=0 dy=0 dh=0 dv=0
EndChar
StartChar: equal
Encoding: 61 61 400
Width: 560
Flags: W
LayerCount: 2
Fore
SplineSet
72 334 m 1,0,-1
 488 334 l 1,1,-1
 488 280 l 1,2,-1
 72 280 l 1,3,-1
 72 334 l 1,0,-1
72 155 m 1,4,-1
 488 155 l 1,5,-1
 488 101 l 1,6,-1
 72 101 l 1,7,-1
 72 155 l 1,4,-1
EndSplineSet
Validated: 1
PairPos2: "'kern' Horizontal Kerning lookup 2 per glyph data 3" uni05D6 dx=10 dy=0 dh=10 dv=0 dx=0 dy=0 dh=0 dv=0
PairPos2: "'kern' Horizontal Kerning lookup 2 per glyph data 3" uni05E9 dx=10 dy=0 dh=10 dv=0 dx=0 dy=0 dh=0 dv=0
PairPos2: "'kern' Horizontal Kerning lookup 2 per glyph data 3" question dx=10 dy=0 dh=10 dv=0 dx=0 dy=0 dh=0 dv=0
PairPos2: "'kern' Horizontal Kerning lookup 2 per glyph data 3" uni05E7 dx=10 dy=0 dh=10 dv=0 dx=0 dy=0 dh=0 dv=0
PairPos2: "'kern' Horizontal Kerning lookup 2 per glyph data 3" uni05DE dx=-10 dy=0 dh=-10 dv=0 dx=0 dy=0 dh=0 dv=0
PairPos2: "'kern' Horizontal Kerning lookup 2 per glyph data 3" uni05BE dx=20 dy=0 dh=20 dv=0 dx=0 dy=0 dh=0 dv=0
PairPos2: "'kern' Horizontal Kerning lookup 2 per glyph data 3" uni05DC dx=10 dy=0 dh=10 dv=0 dx=0 dy=0 dh=0 dv=0
PairPos2: "'kern' Horizontal Kerning lookup 2 per glyph data 3" uni05F3 dx=30 dy=0 dh=30 dv=0 dx=0 dy=0 dh=0 dv=0
PairPos2: "'kern' Horizontal Kerning lookup 2 per glyph data 3" uni05D3 dx=10 dy=0 dh=10 dv=0 dx=0 dy=0 dh=0 dv=0
PairPos2: "'kern' Horizontal Kerning lookup 2 per glyph data 3" quotesinglbase dx=-50 dy=0 dh=-50 dv=0 dx=0 dy=0 dh=0 dv=0
PairPos2: "'kern' Horizontal Kerning lookup 2 per glyph data 3" quotedblbase dx=-50 dy=0 dh=-50 dv=0 dx=0 dy=0 dh=0 dv=0
PairPos2: "'kern' Horizontal Kerning lookup 2 per glyph data 3" period dx=-50 dy=0 dh=-50 dv=0 dx=0 dy=0 dh=0 dv=0
PairPos2: "'kern' Horizontal Kerning lookup 2 per glyph data 3" ellipsis dx=-50 dy=0 dh=-50 dv=0 dx=0 dy=0 dh=0 dv=0
PairPos2: "'kern' Horizontal Kerning lookup 2 per glyph data 3" comma dx=-50 dy=0 dh=-50 dv=0 dx=0 dy=0 dh=0 dv=0
PairPos2: "'kern' Horizontal Kerning lookup 2 per glyph data 3" uni00AD dx=-20 dy=0 dh=-20 dv=0 dx=0 dy=0 dh=0 dv=0
PairPos2: "'kern' Horizontal Kerning lookup 2 per glyph data 3" hyphen dx=-20 dy=0 dh=-20 dv=0 dx=0 dy=0 dh=0 dv=0
PairPos2: "'kern' Horizontal Kerning lookup 2 per glyph data 3" endash dx=-20 dy=0 dh=-20 dv=0 dx=0 dy=0 dh=0 dv=0
PairPos2: "'kern' Horizontal Kerning lookup 2 per glyph data 3" emdash dx=-20 dy=0 dh=-20 dv=0 dx=0 dy=0 dh=0 dv=0
PairPos2: "'kern' Horizontal Kerning lookup 2 per glyph data 2" uni05DA dx=10 dy=0 dh=10 dv=0 dx=0 dy=0 dh=0 dv=0
EndChar
StartChar: question
Encoding: 63 63 353
Width: 444
Flags: W
LayerCount: 2
Fore
SplineSet
193 155 m 1,1,2
 167 176 167 176 154 201 c 128,-1,3
 141 226 141 226 141 251 c 0,4,5
 141 292 141 292 161.5 324 c 128,-1,6
 182 356 182 356 222 397 c 0,7,8
 264 441 264 441 284.5 473 c 128,-1,9
 305 505 305 505 305 549 c 0,10,11
 305 602 305 602 272.5 630.5 c 128,-1,12
 240 659 240 659 194 659 c 0,13,14
 155 659 155 659 118 637 c 128,-1,15
 81 615 81 615 58 581 c 1,16,-1
 58 666 l 1,17,18
 124 698 124 698 202 698 c 0,19,20
 287 698 287 698 335.5 657 c 128,-1,21
 384 616 384 616 384 549 c 0,22,23
 384 497 384 497 357.5 458.5 c 128,-1,24
 331 420 331 420 279 371 c 0,25,26
 246 338 246 338 228 318 c 128,-1,27
 210 298 210 298 197 272 c 128,-1,28
 184 246 184 246 184 216 c 0,29,0
 184 198 184 198 193 155 c 1,1,2
145.5 3.5 m 128,-1,31
 130 17 130 17 130 41 c 256,32,33
 130 65 130 65 145 78 c 128,-1,34
 160 91 160 91 181 91 c 256,35,36
 202 91 202 91 217 78 c 128,-1,37
 232 65 232 65 232 41 c 256,38,39
 232 17 232 17 216.5 3.5 c 128,-1,40
 201 -10 201 -10 181 -10 c 256,41,30
 161 -10 161 -10 145.5 3.5 c 128,-1,31
EndSplineSet
Validated: 1
PairPos2: "'kern' Horizontal Kerning lookup 2 per glyph data 3" uni05D6 dx=10 dy=0 dh=10 dv=0 dx=0 dy=0 dh=0 dv=0
PairPos2: "'kern' Horizontal Kerning lookup 2 per glyph data 3" uni05E9 dx=10 dy=0 dh=10 dv=0 dx=0 dy=0 dh=0 dv=0
PairPos2: "'kern' Horizontal Kerning lookup 2 per glyph data 3" question dx=10 dy=0 dh=10 dv=0 dx=0 dy=0 dh=0 dv=0
PairPos2: "'kern' Horizontal Kerning lookup 2 per glyph data 3" uni05E7 dx=10 dy=0 dh=10 dv=0 dx=0 dy=0 dh=0 dv=0
PairPos2: "'kern' Horizontal Kerning lookup 2 per glyph data 3" uni05DE dx=-10 dy=0 dh=-10 dv=0 dx=0 dy=0 dh=0 dv=0
PairPos2: "'kern' Horizontal Kerning lookup 2 per glyph data 3" uni05BE dx=20 dy=0 dh=20 dv=0 dx=0 dy=0 dh=0 dv=0
PairPos2: "'kern' Horizontal Kerning lookup 2 per glyph data 3" uni05DC dx=10 dy=0 dh=10 dv=0 dx=0 dy=0 dh=0 dv=0
PairPos2: "'kern' Horizontal Kerning lookup 2 per glyph data 3" uni05F3 dx=30 dy=0 dh=30 dv=0 dx=0 dy=0 dh=0 dv=0
PairPos2: "'kern' Horizontal Kerning lookup 2 per glyph data 3" uni05D3 dx=10 dy=0 dh=10 dv=0 dx=0 dy=0 dh=0 dv=0
PairPos2: "'kern' Horizontal Kerning lookup 2 per glyph data 3" quotesinglbase dx=-50 dy=0 dh=-50 dv=0 dx=0 dy=0 dh=0 dv=0
PairPos2: "'kern' Horizontal Kerning lookup 2 per glyph data 3" quotedblbase dx=-50 dy=0 dh=-50 dv=0 dx=0 dy=0 dh=0 dv=0
PairPos2: "'kern' Horizontal Kerning lookup 2 per glyph data 3" period dx=-50 dy=0 dh=-50 dv=0 dx=0 dy=0 dh=0 dv=0
PairPos2: "'kern' Horizontal Kerning lookup 2 per glyph data 3" ellipsis dx=-50 dy=0 dh=-50 dv=0 dx=0 dy=0 dh=0 dv=0
PairPos2: "'kern' Horizontal Kerning lookup 2 per glyph data 3" comma dx=-50 dy=0 dh=-50 dv=0 dx=0 dy=0 dh=0 dv=0
PairPos2: "'kern' Horizontal Kerning lookup 2 per glyph data 3" uni00AD dx=-20 dy=0 dh=-20 dv=0 dx=0 dy=0 dh=0 dv=0
PairPos2: "'kern' Horizontal Kerning lookup 2 per glyph data 3" hyphen dx=-20 dy=0 dh=-20 dv=0 dx=0 dy=0 dh=0 dv=0
PairPos2: "'kern' Horizontal Kerning lookup 2 per glyph data 3" endash dx=-20 dy=0 dh=-20 dv=0 dx=0 dy=0 dh=0 dv=0
PairPos2: "'kern' Horizontal Kerning lookup 2 per glyph data 3" emdash dx=-20 dy=0 dh=-20 dv=0 dx=0 dy=0 dh=0 dv=0
PairPos2: "'kern' Horizontal Kerning lookup 2 per glyph data 2" uni05DA dx=10 dy=0 dh=10 dv=0 dx=0 dy=0 dh=0 dv=0
EndChar
StartChar: at
Encoding: 64 64 423
Width: 945
Flags: W
LayerCount: 2
Fore
SplineSet
539 82 m 1,1,2
 493 -10 493 -10 401 -10 c 0,3,4
 352 -10 352 -10 324 27.5 c 128,-1,5
 296 65 296 65 296 133 c 0,6,7
 296 194 296 194 320.5 256.5 c 128,-1,8
 345 319 345 319 390.5 360 c 128,-1,9
 436 401 436 401 496 401 c 0,10,11
 518 401 518 401 547 393 c 0,12,13
 554 391 554 391 570.5 385.5 c 128,-1,14
 587 380 587 380 598 380 c 0,15,16
 619 380 619 380 646 394 c 1,17,-1
 596 102 l 2,18,19
 594 94 594 94 594 80 c 0,20,21
 594 56 594 56 610 40 c 128,-1,22
 626 24 626 24 650 24 c 0,23,24
 692 24 692 24 728.5 53 c 128,-1,25
 765 82 765 82 786.5 134.5 c 128,-1,26
 808 187 808 187 808 254 c 0,27,28
 808 327 808 327 772 391.5 c 128,-1,29
 736 456 736 456 667.5 495.5 c 128,-1,30
 599 535 599 535 508 535 c 0,31,32
 402 535 402 535 322 487.5 c 128,-1,33
 242 440 242 440 198.5 358 c 128,-1,34
 155 276 155 276 155 176 c 0,35,36
 155 82 155 82 195.5 4.5 c 128,-1,37
 236 -73 236 -73 316.5 -119 c 128,-1,38
 397 -165 397 -165 512 -165 c 0,39,40
 598 -165 598 -165 675.5 -128 c 128,-1,41
 753 -91 753 -91 805 -33 c 1,42,-1
 829 -51 l 1,43,44
 770 -117 770 -117 689 -156 c 128,-1,45
 608 -195 608 -195 510 -195 c 0,46,47
 384 -195 384 -195 295 -147 c 128,-1,48
 206 -99 206 -99 161 -16 c 128,-1,49
 116 67 116 67 116 171 c 0,50,51
 116 278 116 278 162 368 c 128,-1,52
 208 458 208 458 298 511 c 128,-1,53
 388 564 388 564 514 564 c 0,54,55
 607 564 607 564 683 523.5 c 128,-1,56
 759 483 759 483 802.5 412 c 128,-1,57
 846 341 846 341 846 254 c 0,58,59
 846 178 846 178 817.5 117.5 c 128,-1,60
 789 57 789 57 742.5 23.5 c 128,-1,61
 696 -10 696 -10 643 -10 c 0,62,0
 542 -10 542 -10 539 82 c 1,1,2
424.5 335.5 m 128,-1,64
 395 296 395 296 378 237.5 c 128,-1,65
 361 179 361 179 361 129 c 0,66,67
 361 77 361 77 378 50.5 c 128,-1,68
 395 24 395 24 422 24 c 0,69,70
 450 24 450 24 475 44.5 c 128,-1,71
 500 65 500 65 517 98 c 256,72,73
 534 131 534 131 548 201.5 c 128,-1,74
 562 272 562 272 562 306 c 0,75,76
 562 339 562 339 545.5 357 c 128,-1,77
 529 375 529 375 488 375 c 0,78,63
 454 375 454 375 424.5 335.5 c 128,-1,64
EndSplineSet
Validated: 1
PairPos2: "'kern' Horizontal Kerning lookup 2 per glyph data 3" uni05D6 dx=10 dy=0 dh=10 dv=0 dx=0 dy=0 dh=0 dv=0
PairPos2: "'kern' Horizontal Kerning lookup 2 per glyph data 3" uni05E9 dx=10 dy=0 dh=10 dv=0 dx=0 dy=0 dh=0 dv=0
PairPos2: "'kern' Horizontal Kerning lookup 2 per glyph data 3" question dx=10 dy=0 dh=10 dv=0 dx=0 dy=0 dh=0 dv=0
PairPos2: "'kern' Horizontal Kerning lookup 2 per glyph data 3" uni05E7 dx=10 dy=0 dh=10 dv=0 dx=0 dy=0 dh=0 dv=0
PairPos2: "'kern' Horizontal Kerning lookup 2 per glyph data 3" uni05DE dx=-10 dy=0 dh=-10 dv=0 dx=0 dy=0 dh=0 dv=0
PairPos2: "'kern' Horizontal Kerning lookup 2 per glyph data 3" uni05BE dx=20 dy=0 dh=20 dv=0 dx=0 dy=0 dh=0 dv=0
PairPos2: "'kern' Horizontal Kerning lookup 2 per glyph data 3" uni05DC dx=10 dy=0 dh=10 dv=0 dx=0 dy=0 dh=0 dv=0
PairPos2: "'kern' Horizontal Kerning lookup 2 per glyph data 3" uni05F3 dx=30 dy=0 dh=30 dv=0 dx=0 dy=0 dh=0 dv=0
PairPos2: "'kern' Horizontal Kerning lookup 2 per glyph data 3" uni05D3 dx=10 dy=0 dh=10 dv=0 dx=0 dy=0 dh=0 dv=0
PairPos2: "'kern' Horizontal Kerning lookup 2 per glyph data 3" quotesinglbase dx=-50 dy=0 dh=-50 dv=0 dx=0 dy=0 dh=0 dv=0
PairPos2: "'kern' Horizontal Kerning lookup 2 per glyph data 3" quotedblbase dx=-50 dy=0 dh=-50 dv=0 dx=0 dy=0 dh=0 dv=0
PairPos2: "'kern' Horizontal Kerning lookup 2 per glyph data 3" period dx=-50 dy=0 dh=-50 dv=0 dx=0 dy=0 dh=0 dv=0
PairPos2: "'kern' Horizontal Kerning lookup 2 per glyph data 3" ellipsis dx=-50 dy=0 dh=-50 dv=0 dx=0 dy=0 dh=0 dv=0
PairPos2: "'kern' Horizontal Kerning lookup 2 per glyph data 3" comma dx=-50 dy=0 dh=-50 dv=0 dx=0 dy=0 dh=0 dv=0
PairPos2: "'kern' Horizontal Kerning lookup 2 per glyph data 3" uni00AD dx=-20 dy=0 dh=-20 dv=0 dx=0 dy=0 dh=0 dv=0
PairPos2: "'kern' Horizontal Kerning lookup 2 per glyph data 3" hyphen dx=-20 dy=0 dh=-20 dv=0 dx=0 dy=0 dh=0 dv=0
PairPos2: "'kern' Horizontal Kerning lookup 2 per glyph data 3" endash dx=-20 dy=0 dh=-20 dv=0 dx=0 dy=0 dh=0 dv=0
PairPos2: "'kern' Horizontal Kerning lookup 2 per glyph data 3" emdash dx=-20 dy=0 dh=-20 dv=0 dx=0 dy=0 dh=0 dv=0
PairPos2: "'kern' Horizontal Kerning lookup 2 per glyph data 2" uni05DA dx=10 dy=0 dh=10 dv=0 dx=0 dy=0 dh=0 dv=0
EndChar
StartChar: A
Encoding: 65 65 4
Width: 688
Flags: W
LayerCount: 2
Fore
SplineSet
211 267 m 1,0,-1
 147 108 l 2,1,2
 132 71 132 71 132 47 c 0,3,4
 132 14 132 14 162 0 c 1,5,-1
 19 0 l 2,6,7
 29 0 29 0 48 20 c 128,-1,8
 67 40 67 40 92 99 c 2,9,-1
 353 720 l 1,10,-1
 612 96 l 2,11,12
 634 42 634 42 654.5 22 c 128,-1,13
 675 2 675 2 687 0 c 2,14,-1
 521 0 l 1,15,16
 546 12 546 12 546 37 c 0,17,18
 546 58 546 58 530 97 c 2,19,-1
 460 267 l 1,20,-1
 211 267 l 1,0,-1
444 308 m 1,21,-1
 335 575 l 1,22,-1
 228 308 l 1,23,-1
 444 308 l 1,21,-1
EndSplineSet
Validated: 1
Substitution2: "Single Substitution lookup 11 subtable" ordfeminine
Substitution2: "'aalt' Access All Alternates lookup 0 subtable" ordfeminine
PairPos2: "'kern' Horizontal Kerning lookup 2 per glyph data 3" uni05D6 dx=10 dy=0 dh=10 dv=0 dx=0 dy=0 dh=0 dv=0
PairPos2: "'kern' Horizontal Kerning lookup 2 per glyph data 3" uni05E9 dx=10 dy=0 dh=10 dv=0 dx=0 dy=0 dh=0 dv=0
PairPos2: "'kern' Horizontal Kerning lookup 2 per glyph data 3" question dx=10 dy=0 dh=10 dv=0 dx=0 dy=0 dh=0 dv=0
PairPos2: "'kern' Horizontal Kerning lookup 2 per glyph data 3" uni05E7 dx=10 dy=0 dh=10 dv=0 dx=0 dy=0 dh=0 dv=0
PairPos2: "'kern' Horizontal Kerning lookup 2 per glyph data 3" uni05DE dx=-10 dy=0 dh=-10 dv=0 dx=0 dy=0 dh=0 dv=0
PairPos2: "'kern' Horizontal Kerning lookup 2 per glyph data 3" uni05BE dx=20 dy=0 dh=20 dv=0 dx=0 dy=0 dh=0 dv=0
PairPos2: "'kern' Horizontal Kerning lookup 2 per glyph data 3" uni05DC dx=10 dy=0 dh=10 dv=0 dx=0 dy=0 dh=0 dv=0
PairPos2: "'kern' Horizontal Kerning lookup 2 per glyph data 3" uni05F3 dx=30 dy=0 dh=30 dv=0 dx=0 dy=0 dh=0 dv=0
PairPos2: "'kern' Horizontal Kerning lookup 2 per glyph data 3" uni05D3 dx=10 dy=0 dh=10 dv=0 dx=0 dy=0 dh=0 dv=0
PairPos2: "'kern' Horizontal Kerning lookup 2 per glyph data 3" quotesinglbase dx=-50 dy=0 dh=-50 dv=0 dx=0 dy=0 dh=0 dv=0
PairPos2: "'kern' Horizontal Kerning lookup 2 per glyph data 3" quotedblbase dx=-50 dy=0 dh=-50 dv=0 dx=0 dy=0 dh=0 dv=0
PairPos2: "'kern' Horizontal Kerning lookup 2 per glyph data 3" period dx=-50 dy=0 dh=-50 dv=0 dx=0 dy=0 dh=0 dv=0
PairPos2: "'kern' Horizontal Kerning lookup 2 per glyph data 3" ellipsis dx=-50 dy=0 dh=-50 dv=0 dx=0 dy=0 dh=0 dv=0
PairPos2: "'kern' Horizontal Kerning lookup 2 per glyph data 3" comma dx=-50 dy=0 dh=-50 dv=0 dx=0 dy=0 dh=0 dv=0
PairPos2: "'kern' Horizontal Kerning lookup 2 per glyph data 3" uni00AD dx=-20 dy=0 dh=-20 dv=0 dx=0 dy=0 dh=0 dv=0
PairPos2: "'kern' Horizontal Kerning lookup 2 per glyph data 3" hyphen dx=-20 dy=0 dh=-20 dv=0 dx=0 dy=0 dh=0 dv=0
PairPos2: "'kern' Horizontal Kerning lookup 2 per glyph data 3" endash dx=-20 dy=0 dh=-20 dv=0 dx=0 dy=0 dh=0 dv=0
PairPos2: "'kern' Horizontal Kerning lookup 2 per glyph data 3" emdash dx=-20 dy=0 dh=-20 dv=0 dx=0 dy=0 dh=0 dv=0
PairPos2: "'kern' Horizontal Kerning lookup 2 per glyph data 2" uni05DA dx=10 dy=0 dh=10 dv=0 dx=0 dy=0 dh=0 dv=0
EndChar
StartChar: B
Encoding: 66 66 15
Width: 592
Flags: W
LayerCount: 2
Fore
SplineSet
342.5 4 m 128,-1,1
 309 0 309 0 250 0 c 2,2,-1
 85 0 l 2,3,4
 98 3 98 3 113 22.5 c 128,-1,5
 128 42 128 42 128 98 c 2,6,-1
 128 593 l 2,7,8
 128 645 128 645 114 664.5 c 128,-1,9
 100 684 100 684 86 688 c 1,10,-1
 250 688 l 2,11,12
 314 688 314 688 347.5 682.5 c 128,-1,13
 381 677 381 677 406 666 c 0,14,15
 450 645 450 645 474 607 c 128,-1,16
 498 569 498 569 498 525 c 0,17,18
 498 458 498 458 457.5 409.5 c 128,-1,19
 417 361 417 361 351 347 c 1,20,21
 396 342 396 342 436.5 321 c 128,-1,22
 477 300 477 300 502.5 264 c 128,-1,23
 528 228 528 228 528 182 c 0,24,25
 528 118 528 118 494 77.5 c 128,-1,26
 460 37 460 37 402 17 c 0,27,0
 376 8 376 8 342.5 4 c 128,-1,1
331 640.5 m 128,-1,29
 308 648 308 648 269 648 c 2,30,-1
 200 648 l 1,31,-1
 200 364 l 1,32,-1
 281 364 l 2,33,34
 317 364 317 364 341 375 c 128,-1,35
 365 386 365 386 383 404 c 0,36,37
 402 423 402 423 413 450 c 128,-1,38
 424 477 424 477 424 505 c 0,39,40
 424 539 424 539 411.5 569 c 128,-1,41
 399 599 399 599 374 618 c 0,42,28
 354 633 354 633 331 640.5 c 128,-1,29
348 317 m 128,-1,44
 320 324 320 324 272 324 c 2,45,-1
 200 324 l 1,46,-1
 200 40 l 1,47,-1
 295 40 l 2,48,49
 367 40 367 40 407.5 74 c 128,-1,50
 448 108 448 108 448 182 c 0,51,52
 448 251 448 251 395 295 c 0,53,43
 376 310 376 310 348 317 c 128,-1,44
EndSplineSet
Validated: 1
PairPos2: "'kern' Horizontal Kerning lookup 2 per glyph data 3" uni05D6 dx=10 dy=0 dh=10 dv=0 dx=0 dy=0 dh=0 dv=0
PairPos2: "'kern' Horizontal Kerning lookup 2 per glyph data 3" uni05E9 dx=10 dy=0 dh=10 dv=0 dx=0 dy=0 dh=0 dv=0
PairPos2: "'kern' Horizontal Kerning lookup 2 per glyph data 3" question dx=10 dy=0 dh=10 dv=0 dx=0 dy=0 dh=0 dv=0
PairPos2: "'kern' Horizontal Kerning lookup 2 per glyph data 3" uni05E7 dx=10 dy=0 dh=10 dv=0 dx=0 dy=0 dh=0 dv=0
PairPos2: "'kern' Horizontal Kerning lookup 2 per glyph data 3" uni05DE dx=-10 dy=0 dh=-10 dv=0 dx=0 dy=0 dh=0 dv=0
PairPos2: "'kern' Horizontal Kerning lookup 2 per glyph data 3" uni05BE dx=20 dy=0 dh=20 dv=0 dx=0 dy=0 dh=0 dv=0
PairPos2: "'kern' Horizontal Kerning lookup 2 per glyph data 3" uni05DC dx=10 dy=0 dh=10 dv=0 dx=0 dy=0 dh=0 dv=0
PairPos2: "'kern' Horizontal Kerning lookup 2 per glyph data 3" uni05F3 dx=30 dy=0 dh=30 dv=0 dx=0 dy=0 dh=0 dv=0
PairPos2: "'kern' Horizontal Kerning lookup 2 per glyph data 3" uni05D3 dx=10 dy=0 dh=10 dv=0 dx=0 dy=0 dh=0 dv=0
PairPos2: "'kern' Horizontal Kerning lookup 2 per glyph data 3" quotesinglbase dx=-50 dy=0 dh=-50 dv=0 dx=0 dy=0 dh=0 dv=0
PairPos2: "'kern' Horizontal Kerning lookup 2 per glyph data 3" quotedblbase dx=-50 dy=0 dh=-50 dv=0 dx=0 dy=0 dh=0 dv=0
PairPos2: "'kern' Horizontal Kerning lookup 2 per glyph data 3" period dx=-50 dy=0 dh=-50 dv=0 dx=0 dy=0 dh=0 dv=0
PairPos2: "'kern' Horizontal Kerning lookup 2 per glyph data 3" ellipsis dx=-50 dy=0 dh=-50 dv=0 dx=0 dy=0 dh=0 dv=0
PairPos2: "'kern' Horizontal Kerning lookup 2 per glyph data 3" comma dx=-50 dy=0 dh=-50 dv=0 dx=0 dy=0 dh=0 dv=0
PairPos2: "'kern' Horizontal Kerning lookup 2 per glyph data 3" uni00AD dx=-20 dy=0 dh=-20 dv=0 dx=0 dy=0 dh=0 dv=0
PairPos2: "'kern' Horizontal Kerning lookup 2 per glyph data 3" hyphen dx=-20 dy=0 dh=-20 dv=0 dx=0 dy=0 dh=0 dv=0
PairPos2: "'kern' Horizontal Kerning lookup 2 per glyph data 3" endash dx=-20 dy=0 dh=-20 dv=0 dx=0 dy=0 dh=0 dv=0
PairPos2: "'kern' Horizontal Kerning lookup 2 per glyph data 3" emdash dx=-20 dy=0 dh=-20 dv=0 dx=0 dy=0 dh=0 dv=0
PairPos2: "'kern' Horizontal Kerning lookup 2 per glyph data 2" uni05DA dx=10 dy=0 dh=10 dv=0 dx=0 dy=0 dh=0 dv=0
EndChar
StartChar: C
Encoding: 67 67 16
Width: 704
Flags: W
LayerCount: 2
Fore
SplineSet
537 9 m 128,-1,1
 476 -12 476 -12 414 -12 c 0,2,3
 321 -12 321 -12 241 31 c 128,-1,4
 161 74 161 74 112.5 155 c 128,-1,5
 64 236 64 236 64 345 c 0,6,7
 64 447 64 447 108.5 528 c 128,-1,8
 153 609 153 609 235.5 654.5 c 128,-1,9
 318 700 318 700 428 700 c 0,10,11
 545 700 545 700 636 649 c 1,12,-1
 636 538 l 1,13,14
 605 593 605 593 546 625.5 c 128,-1,15
 487 658 487 658 420 658 c 0,16,17
 335 658 335 658 272.5 618 c 128,-1,18
 210 578 210 578 177 508.5 c 128,-1,19
 144 439 144 439 144 353 c 0,20,21
 144 256 144 256 181.5 184 c 128,-1,22
 219 112 219 112 283 73.5 c 128,-1,23
 347 35 347 35 426 35 c 0,24,25
 553 35 553 35 636 109 c 1,26,-1
 636 61 l 1,27,0
 598 30 598 30 537 9 c 128,-1,1
EndSplineSet
Validated: 1
PairPos2: "'kern' Horizontal Kerning lookup 2 per glyph data 3" uni05D6 dx=10 dy=0 dh=10 dv=0 dx=0 dy=0 dh=0 dv=0
PairPos2: "'kern' Horizontal Kerning lookup 2 per glyph data 3" uni05E9 dx=10 dy=0 dh=10 dv=0 dx=0 dy=0 dh=0 dv=0
PairPos2: "'kern' Horizontal Kerning lookup 2 per glyph data 3" question dx=10 dy=0 dh=10 dv=0 dx=0 dy=0 dh=0 dv=0
PairPos2: "'kern' Horizontal Kerning lookup 2 per glyph data 3" uni05E7 dx=10 dy=0 dh=10 dv=0 dx=0 dy=0 dh=0 dv=0
PairPos2: "'kern' Horizontal Kerning lookup 2 per glyph data 3" uni05DE dx=-10 dy=0 dh=-10 dv=0 dx=0 dy=0 dh=0 dv=0
PairPos2: "'kern' Horizontal Kerning lookup 2 per glyph data 3" uni05BE dx=20 dy=0 dh=20 dv=0 dx=0 dy=0 dh=0 dv=0
PairPos2: "'kern' Horizontal Kerning lookup 2 per glyph data 3" uni05DC dx=10 dy=0 dh=10 dv=0 dx=0 dy=0 dh=0 dv=0
PairPos2: "'kern' Horizontal Kerning lookup 2 per glyph data 3" uni05F3 dx=30 dy=0 dh=30 dv=0 dx=0 dy=0 dh=0 dv=0
PairPos2: "'kern' Horizontal Kerning lookup 2 per glyph data 3" uni05D3 dx=10 dy=0 dh=10 dv=0 dx=0 dy=0 dh=0 dv=0
PairPos2: "'kern' Horizontal Kerning lookup 2 per glyph data 3" quotesinglbase dx=-50 dy=0 dh=-50 dv=0 dx=0 dy=0 dh=0 dv=0
PairPos2: "'kern' Horizontal Kerning lookup 2 per glyph data 3" quotedblbase dx=-50 dy=0 dh=-50 dv=0 dx=0 dy=0 dh=0 dv=0
PairPos2: "'kern' Horizontal Kerning lookup 2 per glyph data 3" period dx=-50 dy=0 dh=-50 dv=0 dx=0 dy=0 dh=0 dv=0
PairPos2: "'kern' Horizontal Kerning lookup 2 per glyph data 3" ellipsis dx=-50 dy=0 dh=-50 dv=0 dx=0 dy=0 dh=0 dv=0
PairPos2: "'kern' Horizontal Kerning lookup 2 per glyph data 3" comma dx=-50 dy=0 dh=-50 dv=0 dx=0 dy=0 dh=0 dv=0
PairPos2: "'kern' Horizontal Kerning lookup 2 per glyph data 3" uni00AD dx=-20 dy=0 dh=-20 dv=0 dx=0 dy=0 dh=0 dv=0
PairPos2: "'kern' Horizontal Kerning lookup 2 per glyph data 3" hyphen dx=-20 dy=0 dh=-20 dv=0 dx=0 dy=0 dh=0 dv=0
PairPos2: "'kern' Horizontal Kerning lookup 2 per glyph data 3" endash dx=-20 dy=0 dh=-20 dv=0 dx=0 dy=0 dh=0 dv=0
PairPos2: "'kern' Horizontal Kerning lookup 2 per glyph data 3" emdash dx=-20 dy=0 dh=-20 dv=0 dx=0 dy=0 dh=0 dv=0
PairPos2: "'kern' Horizontal Kerning lookup 2 per glyph data 2" uni05DA dx=10 dy=0 dh=10 dv=0 dx=0 dy=0 dh=0 dv=0
EndChar
StartChar: D
Encoding: 68 68 22
Width: 744
Flags: W
LayerCount: 2
Fore
SplineSet
282 0 m 2,1,-1
 85 0 l 2,2,3
 85 -3 85 -3 97 5.5 c 128,-1,4
 109 14 109 14 118.5 37 c 128,-1,5
 128 60 128 60 128 104 c 2,6,-1
 128 596 l 2,7,8
 128 635 128 635 118.5 655.5 c 128,-1,9
 109 676 109 676 97 683 c 128,-1,10
 85 690 85 690 85 688 c 2,11,-1
 281 688 l 2,12,13
 434 688 434 688 523 638 c 0,14,15
 602 594 602 594 645 519 c 128,-1,16
 688 444 688 444 688 350 c 0,17,18
 688 248 688 248 647.5 173.5 c 128,-1,19
 607 99 607 99 533 56 c 0,20,0
 439 0 439 0 282 0 c 2,1,-1
400 635 m 128,-1,22
 350 648 350 648 281 648 c 2,23,-1
 200 648 l 1,24,-1
 200 40 l 1,25,-1
 281 40 l 2,26,27
 363 40 363 40 415.5 54 c 128,-1,28
 468 68 468 68 506 97 c 0,29,30
 555 135 555 135 581.5 196.5 c 128,-1,31
 608 258 608 258 608 340 c 0,32,33
 608 427 608 427 577.5 492.5 c 128,-1,34
 547 558 547 558 494 593 c 0,35,21
 450 622 450 622 400 635 c 128,-1,22
EndSplineSet
Validated: 5
PairPos2: "'kern' Horizontal Kerning lookup 2 per glyph data 3" uni05D6 dx=10 dy=0 dh=10 dv=0 dx=0 dy=0 dh=0 dv=0
PairPos2: "'kern' Horizontal Kerning lookup 2 per glyph data 3" uni05E9 dx=10 dy=0 dh=10 dv=0 dx=0 dy=0 dh=0 dv=0
PairPos2: "'kern' Horizontal Kerning lookup 2 per glyph data 3" question dx=10 dy=0 dh=10 dv=0 dx=0 dy=0 dh=0 dv=0
PairPos2: "'kern' Horizontal Kerning lookup 2 per glyph data 3" uni05E7 dx=10 dy=0 dh=10 dv=0 dx=0 dy=0 dh=0 dv=0
PairPos2: "'kern' Horizontal Kerning lookup 2 per glyph data 3" uni05DE dx=-10 dy=0 dh=-10 dv=0 dx=0 dy=0 dh=0 dv=0
PairPos2: "'kern' Horizontal Kerning lookup 2 per glyph data 3" uni05BE dx=20 dy=0 dh=20 dv=0 dx=0 dy=0 dh=0 dv=0
PairPos2: "'kern' Horizontal Kerning lookup 2 per glyph data 3" uni05DC dx=10 dy=0 dh=10 dv=0 dx=0 dy=0 dh=0 dv=0
PairPos2: "'kern' Horizontal Kerning lookup 2 per glyph data 3" uni05F3 dx=30 dy=0 dh=30 dv=0 dx=0 dy=0 dh=0 dv=0
PairPos2: "'kern' Horizontal Kerning lookup 2 per glyph data 3" uni05D3 dx=10 dy=0 dh=10 dv=0 dx=0 dy=0 dh=0 dv=0
PairPos2: "'kern' Horizontal Kerning lookup 2 per glyph data 3" quotesinglbase dx=-50 dy=0 dh=-50 dv=0 dx=0 dy=0 dh=0 dv=0
PairPos2: "'kern' Horizontal Kerning lookup 2 per glyph data 3" quotedblbase dx=-50 dy=0 dh=-50 dv=0 dx=0 dy=0 dh=0 dv=0
PairPos2: "'kern' Horizontal Kerning lookup 2 per glyph data 3" period dx=-50 dy=0 dh=-50 dv=0 dx=0 dy=0 dh=0 dv=0
PairPos2: "'kern' Horizontal Kerning lookup 2 per glyph data 3" ellipsis dx=-50 dy=0 dh=-50 dv=0 dx=0 dy=0 dh=0 dv=0
PairPos2: "'kern' Horizontal Kerning lookup 2 per glyph data 3" comma dx=-50 dy=0 dh=-50 dv=0 dx=0 dy=0 dh=0 dv=0
PairPos2: "'kern' Horizontal Kerning lookup 2 per glyph data 3" uni00AD dx=-20 dy=0 dh=-20 dv=0 dx=0 dy=0 dh=0 dv=0
PairPos2: "'kern' Horizontal Kerning lookup 2 per glyph data 3" hyphen dx=-20 dy=0 dh=-20 dv=0 dx=0 dy=0 dh=0 dv=0
PairPos2: "'kern' Horizontal Kerning lookup 2 per glyph data 3" endash dx=-20 dy=0 dh=-20 dv=0 dx=0 dy=0 dh=0 dv=0
PairPos2: "'kern' Horizontal Kerning lookup 2 per glyph data 3" emdash dx=-20 dy=0 dh=-20 dv=0 dx=0 dy=0 dh=0 dv=0
PairPos2: "'kern' Horizontal Kerning lookup 2 per glyph data 2" uni05DA dx=10 dy=0 dh=10 dv=0 dx=0 dy=0 dh=0 dv=0
EndChar
StartChar: E
Encoding: 69 69 26
Width: 528
Flags: W
LayerCount: 2
Fore
SplineSet
85 0 m 2,0,1
 85 -3 85 -3 97 4.5 c 128,-1,2
 109 12 109 12 118.5 34.5 c 128,-1,3
 128 57 128 57 128 100 c 2,4,-1
 128 591 l 2,5,6
 128 632 128 632 118.5 653.5 c 128,-1,7
 109 675 109 675 97 683 c 128,-1,8
 85 691 85 691 85 688 c 2,9,-1
 447 688 l 1,10,-1
 447 588 l 1,11,12
 429 648 429 648 339 648 c 2,13,-1
 200 648 l 1,14,-1
 200 364 l 1,15,-1
 372 364 l 2,16,17
 392 364 392 364 406 370.5 c 128,-1,18
 420 377 420 377 427 384 c 128,-1,19
 434 391 434 391 435 393 c 2,20,-1
 435 296 l 2,21,22
 434 298 434 298 427 305 c 128,-1,23
 420 312 420 312 406.5 318 c 128,-1,24
 393 324 393 324 373 324 c 2,25,-1
 200 324 l 1,26,-1
 200 40 l 1,27,-1
 356 40 l 2,28,29
 401 40 401 40 433.5 58.5 c 128,-1,30
 466 77 466 77 480 106 c 1,31,-1
 462 0 l 1,32,-1
 85 0 l 2,0,1
EndSplineSet
Validated: 5
PairPos2: "'kern' Horizontal Kerning lookup 2 per glyph data 3" uni05D6 dx=10 dy=0 dh=10 dv=0 dx=0 dy=0 dh=0 dv=0
PairPos2: "'kern' Horizontal Kerning lookup 2 per glyph data 3" uni05E9 dx=10 dy=0 dh=10 dv=0 dx=0 dy=0 dh=0 dv=0
PairPos2: "'kern' Horizontal Kerning lookup 2 per glyph data 3" question dx=10 dy=0 dh=10 dv=0 dx=0 dy=0 dh=0 dv=0
PairPos2: "'kern' Horizontal Kerning lookup 2 per glyph data 3" uni05E7 dx=10 dy=0 dh=10 dv=0 dx=0 dy=0 dh=0 dv=0
PairPos2: "'kern' Horizontal Kerning lookup 2 per glyph data 3" uni05DE dx=-10 dy=0 dh=-10 dv=0 dx=0 dy=0 dh=0 dv=0
PairPos2: "'kern' Horizontal Kerning lookup 2 per glyph data 3" uni05BE dx=20 dy=0 dh=20 dv=0 dx=0 dy=0 dh=0 dv=0
PairPos2: "'kern' Horizontal Kerning lookup 2 per glyph data 3" uni05DC dx=10 dy=0 dh=10 dv=0 dx=0 dy=0 dh=0 dv=0
PairPos2: "'kern' Horizontal Kerning lookup 2 per glyph data 3" uni05F3 dx=30 dy=0 dh=30 dv=0 dx=0 dy=0 dh=0 dv=0
PairPos2: "'kern' Horizontal Kerning lookup 2 per glyph data 3" uni05D3 dx=10 dy=0 dh=10 dv=0 dx=0 dy=0 dh=0 dv=0
PairPos2: "'kern' Horizontal Kerning lookup 2 per glyph data 3" quotesinglbase dx=-50 dy=0 dh=-50 dv=0 dx=0 dy=0 dh=0 dv=0
PairPos2: "'kern' Horizontal Kerning lookup 2 per glyph data 3" quotedblbase dx=-50 dy=0 dh=-50 dv=0 dx=0 dy=0 dh=0 dv=0
PairPos2: "'kern' Horizontal Kerning lookup 2 per glyph data 3" period dx=-50 dy=0 dh=-50 dv=0 dx=0 dy=0 dh=0 dv=0
PairPos2: "'kern' Horizontal Kerning lookup 2 per glyph data 3" ellipsis dx=-50 dy=0 dh=-50 dv=0 dx=0 dy=0 dh=0 dv=0
PairPos2: "'kern' Horizontal Kerning lookup 2 per glyph data 3" comma dx=-50 dy=0 dh=-50 dv=0 dx=0 dy=0 dh=0 dv=0
PairPos2: "'kern' Horizontal Kerning lookup 2 per glyph data 3" uni00AD dx=-20 dy=0 dh=-20 dv=0 dx=0 dy=0 dh=0 dv=0
PairPos2: "'kern' Horizontal Kerning lookup 2 per glyph data 3" hyphen dx=-20 dy=0 dh=-20 dv=0 dx=0 dy=0 dh=0 dv=0
PairPos2: "'kern' Horizontal Kerning lookup 2 per glyph data 3" endash dx=-20 dy=0 dh=-20 dv=0 dx=0 dy=0 dh=0 dv=0
PairPos2: "'kern' Horizontal Kerning lookup 2 per glyph data 3" emdash dx=-20 dy=0 dh=-20 dv=0 dx=0 dy=0 dh=0 dv=0
PairPos2: "'kern' Horizontal Kerning lookup 2 per glyph data 2" uni05DA dx=10 dy=0 dh=10 dv=0 dx=0 dy=0 dh=0 dv=0
EndChar
StartChar: F
Encoding: 70 70 36
Width: 496
Flags: W
LayerCount: 2
Fore
SplineSet
200 648 m 1,0,-1
 200 364 l 1,1,-1
 373 364 l 2,2,3
 410 364 410 364 422.5 375 c 128,-1,4
 435 386 435 386 435 393 c 2,5,-1
 435 295 l 2,6,7
 435 298 435 298 430.5 304.5 c 128,-1,8
 426 311 426 311 412.5 317.5 c 128,-1,9
 399 324 399 324 373 324 c 2,10,-1
 200 324 l 1,11,-1
 200 93 l 2,12,13
 200 54 200 54 210 33.5 c 128,-1,14
 220 13 220 13 232 5.5 c 128,-1,15
 244 -2 244 -2 244 0 c 2,16,-1
 85 0 l 2,17,18
 85 -2 85 -2 97 5 c 128,-1,19
 109 12 109 12 118.5 32.5 c 128,-1,20
 128 53 128 53 128 93 c 2,21,-1
 128 590 l 2,22,23
 128 631 128 631 118.5 652.5 c 128,-1,24
 109 674 109 674 97 682.5 c 128,-1,25
 85 691 85 691 85 688 c 2,26,-1
 447 688 l 1,27,-1
 447 586 l 1,28,29
 442 610 442 610 419 629 c 128,-1,30
 396 648 396 648 354 648 c 2,31,-1
 200 648 l 1,0,-1
EndSplineSet
Validated: 5
PairPos2: "'kern' Horizontal Kerning lookup 2 per glyph data 3" uni05D6 dx=10 dy=0 dh=10 dv=0 dx=0 dy=0 dh=0 dv=0
PairPos2: "'kern' Horizontal Kerning lookup 2 per glyph data 3" uni05E9 dx=10 dy=0 dh=10 dv=0 dx=0 dy=0 dh=0 dv=0
PairPos2: "'kern' Horizontal Kerning lookup 2 per glyph data 3" question dx=10 dy=0 dh=10 dv=0 dx=0 dy=0 dh=0 dv=0
PairPos2: "'kern' Horizontal Kerning lookup 2 per glyph data 3" uni05E7 dx=10 dy=0 dh=10 dv=0 dx=0 dy=0 dh=0 dv=0
PairPos2: "'kern' Horizontal Kerning lookup 2 per glyph data 3" uni05DE dx=-10 dy=0 dh=-10 dv=0 dx=0 dy=0 dh=0 dv=0
PairPos2: "'kern' Horizontal Kerning lookup 2 per glyph data 3" uni05BE dx=20 dy=0 dh=20 dv=0 dx=0 dy=0 dh=0 dv=0
PairPos2: "'kern' Horizontal Kerning lookup 2 per glyph data 3" uni05DC dx=10 dy=0 dh=10 dv=0 dx=0 dy=0 dh=0 dv=0
PairPos2: "'kern' Horizontal Kerning lookup 2 per glyph data 3" uni05F3 dx=30 dy=0 dh=30 dv=0 dx=0 dy=0 dh=0 dv=0
PairPos2: "'kern' Horizontal Kerning lookup 2 per glyph data 3" uni05D3 dx=10 dy=0 dh=10 dv=0 dx=0 dy=0 dh=0 dv=0
PairPos2: "'kern' Horizontal Kerning lookup 2 per glyph data 3" quotesinglbase dx=-50 dy=0 dh=-50 dv=0 dx=0 dy=0 dh=0 dv=0
PairPos2: "'kern' Horizontal Kerning lookup 2 per glyph data 3" quotedblbase dx=-50 dy=0 dh=-50 dv=0 dx=0 dy=0 dh=0 dv=0
PairPos2: "'kern' Horizontal Kerning lookup 2 per glyph data 3" period dx=-50 dy=0 dh=-50 dv=0 dx=0 dy=0 dh=0 dv=0
PairPos2: "'kern' Horizontal Kerning lookup 2 per glyph data 3" ellipsis dx=-50 dy=0 dh=-50 dv=0 dx=0 dy=0 dh=0 dv=0
PairPos2: "'kern' Horizontal Kerning lookup 2 per glyph data 3" comma dx=-50 dy=0 dh=-50 dv=0 dx=0 dy=0 dh=0 dv=0
PairPos2: "'kern' Horizontal Kerning lookup 2 per glyph data 3" uni00AD dx=-20 dy=0 dh=-20 dv=0 dx=0 dy=0 dh=0 dv=0
PairPos2: "'kern' Horizontal Kerning lookup 2 per glyph data 3" hyphen dx=-20 dy=0 dh=-20 dv=0 dx=0 dy=0 dh=0 dv=0
PairPos2: "'kern' Horizontal Kerning lookup 2 per glyph data 3" endash dx=-20 dy=0 dh=-20 dv=0 dx=0 dy=0 dh=0 dv=0
PairPos2: "'kern' Horizontal Kerning lookup 2 per glyph data 3" emdash dx=-20 dy=0 dh=-20 dv=0 dx=0 dy=0 dh=0 dv=0
PairPos2: "'kern' Horizontal Kerning lookup 2 per glyph data 2" uni05DA dx=10 dy=0 dh=10 dv=0 dx=0 dy=0 dh=0 dv=0
EndChar
StartChar: G
Encoding: 71 71 37
Width: 752
Flags: W
LayerCount: 2
Fore
SplineSet
243 29 m 128,-1,1
 162 69 162 69 113 149 c 128,-1,2
 64 229 64 229 64 344 c 0,3,4
 64 446 64 446 110.5 527 c 128,-1,5
 157 608 157 608 241.5 654 c 128,-1,6
 326 700 326 700 436 700 c 0,7,8
 506 700 506 700 562.5 684 c 128,-1,9
 619 668 619 668 652 649 c 1,10,-1
 652 538 l 1,11,12
 621 592 621 592 559.5 625 c 128,-1,13
 498 658 498 658 434 658 c 0,14,15
 345 658 345 658 279.5 620.5 c 128,-1,16
 214 583 214 583 179 514 c 128,-1,17
 144 445 144 445 144 352 c 0,18,19
 144 251 144 251 184.5 179 c 128,-1,20
 225 107 225 107 292 71 c 128,-1,21
 359 35 359 35 438 35 c 0,22,23
 474 35 474 35 512.5 43.5 c 128,-1,24
 551 52 551 52 584 68 c 1,25,-1
 584 233 l 2,26,27
 584 264 584 264 574 281.5 c 128,-1,28
 564 299 564 299 552 306.5 c 128,-1,29
 540 314 540 314 540 312 c 2,30,-1
 700 312 l 2,31,32
 700 314 700 314 688 308 c 128,-1,33
 676 302 676 302 666 285.5 c 128,-1,34
 656 269 656 269 656 239 c 2,35,-1
 656 57 l 1,36,37
 603 24 603 24 541.5 6.5 c 128,-1,38
 480 -11 480 -11 419 -11 c 0,39,0
 324 -11 324 -11 243 29 c 128,-1,1
EndSplineSet
Validated: 5
PairPos2: "'kern' Horizontal Kerning lookup 2 per glyph data 3" uni05D6 dx=10 dy=0 dh=10 dv=0 dx=0 dy=0 dh=0 dv=0
PairPos2: "'kern' Horizontal Kerning lookup 2 per glyph data 3" uni05E9 dx=10 dy=0 dh=10 dv=0 dx=0 dy=0 dh=0 dv=0
PairPos2: "'kern' Horizontal Kerning lookup 2 per glyph data 3" question dx=10 dy=0 dh=10 dv=0 dx=0 dy=0 dh=0 dv=0
PairPos2: "'kern' Horizontal Kerning lookup 2 per glyph data 3" uni05E7 dx=10 dy=0 dh=10 dv=0 dx=0 dy=0 dh=0 dv=0
PairPos2: "'kern' Horizontal Kerning lookup 2 per glyph data 3" uni05DE dx=-10 dy=0 dh=-10 dv=0 dx=0 dy=0 dh=0 dv=0
PairPos2: "'kern' Horizontal Kerning lookup 2 per glyph data 3" uni05BE dx=20 dy=0 dh=20 dv=0 dx=0 dy=0 dh=0 dv=0
PairPos2: "'kern' Horizontal Kerning lookup 2 per glyph data 3" uni05DC dx=10 dy=0 dh=10 dv=0 dx=0 dy=0 dh=0 dv=0
PairPos2: "'kern' Horizontal Kerning lookup 2 per glyph data 3" uni05F3 dx=30 dy=0 dh=30 dv=0 dx=0 dy=0 dh=0 dv=0
PairPos2: "'kern' Horizontal Kerning lookup 2 per glyph data 3" uni05D3 dx=10 dy=0 dh=10 dv=0 dx=0 dy=0 dh=0 dv=0
PairPos2: "'kern' Horizontal Kerning lookup 2 per glyph data 3" quotesinglbase dx=-50 dy=0 dh=-50 dv=0 dx=0 dy=0 dh=0 dv=0
PairPos2: "'kern' Horizontal Kerning lookup 2 per glyph data 3" quotedblbase dx=-50 dy=0 dh=-50 dv=0 dx=0 dy=0 dh=0 dv=0
PairPos2: "'kern' Horizontal Kerning lookup 2 per glyph data 3" period dx=-50 dy=0 dh=-50 dv=0 dx=0 dy=0 dh=0 dv=0
PairPos2: "'kern' Horizontal Kerning lookup 2 per glyph data 3" ellipsis dx=-50 dy=0 dh=-50 dv=0 dx=0 dy=0 dh=0 dv=0
PairPos2: "'kern' Horizontal Kerning lookup 2 per glyph data 3" comma dx=-50 dy=0 dh=-50 dv=0 dx=0 dy=0 dh=0 dv=0
PairPos2: "'kern' Horizontal Kerning lookup 2 per glyph data 3" uni00AD dx=-20 dy=0 dh=-20 dv=0 dx=0 dy=0 dh=0 dv=0
PairPos2: "'kern' Horizontal Kerning lookup 2 per glyph data 3" hyphen dx=-20 dy=0 dh=-20 dv=0 dx=0 dy=0 dh=0 dv=0
PairPos2: "'kern' Horizontal Kerning lookup 2 per glyph data 3" endash dx=-20 dy=0 dh=-20 dv=0 dx=0 dy=0 dh=0 dv=0
PairPos2: "'kern' Horizontal Kerning lookup 2 per glyph data 3" emdash dx=-20 dy=0 dh=-20 dv=0 dx=0 dy=0 dh=0 dv=0
PairPos2: "'kern' Horizontal Kerning lookup 2 per glyph data 2" uni05DA dx=10 dy=0 dh=10 dv=0 dx=0 dy=0 dh=0 dv=0
EndChar
StartChar: H
Encoding: 72 72 42
Width: 760
Flags: W
LayerCount: 2
Fore
SplineSet
544 4.5 m 128,-1,1
 556 12 556 12 566 32.5 c 128,-1,2
 576 53 576 53 576 93 c 2,3,-1
 576 320 l 1,4,-1
 200 320 l 1,5,-1
 200 93 l 2,6,7
 200 53 200 53 210 32.5 c 128,-1,8
 220 12 220 12 232 5 c 128,-1,9
 244 -2 244 -2 244 0 c 2,10,-1
 85 0 l 2,11,12
 85 -3 85 -3 97 4.5 c 128,-1,13
 109 12 109 12 118.5 32.5 c 128,-1,14
 128 53 128 53 128 93 c 2,15,-1
 128 595 l 2,16,17
 128 635 128 635 118.5 655.5 c 128,-1,18
 109 676 109 676 97 683 c 128,-1,19
 85 690 85 690 85 688 c 2,20,-1
 244 688 l 2,21,22
 244 690 244 690 232 683 c 128,-1,23
 220 676 220 676 210 655.5 c 128,-1,24
 200 635 200 635 200 595 c 2,25,-1
 200 364 l 1,26,-1
 576 364 l 1,27,-1
 576 595 l 2,28,29
 576 635 576 635 566 655.5 c 128,-1,30
 556 676 556 676 544 683 c 128,-1,31
 532 690 532 690 532 688 c 2,32,-1
 691 688 l 2,33,34
 691 691 691 691 679 683.5 c 128,-1,35
 667 676 667 676 657.5 655.5 c 128,-1,36
 648 635 648 635 648 595 c 2,37,-1
 648 93 l 2,38,39
 648 53 648 53 658 32.5 c 128,-1,40
 668 12 668 12 680 5 c 128,-1,41
 692 -2 692 -2 692 0 c 2,42,-1
 532 0 l 2,43,0
 532 -3 532 -3 544 4.5 c 128,-1,1
EndSplineSet
Validated: 5
PairPos2: "'kern' Horizontal Kerning lookup 2 per glyph data 3" uni05D6 dx=10 dy=0 dh=10 dv=0 dx=0 dy=0 dh=0 dv=0
PairPos2: "'kern' Horizontal Kerning lookup 2 per glyph data 3" uni05E9 dx=10 dy=0 dh=10 dv=0 dx=0 dy=0 dh=0 dv=0
PairPos2: "'kern' Horizontal Kerning lookup 2 per glyph data 3" question dx=10 dy=0 dh=10 dv=0 dx=0 dy=0 dh=0 dv=0
PairPos2: "'kern' Horizontal Kerning lookup 2 per glyph data 3" uni05E7 dx=10 dy=0 dh=10 dv=0 dx=0 dy=0 dh=0 dv=0
PairPos2: "'kern' Horizontal Kerning lookup 2 per glyph data 3" uni05DE dx=-10 dy=0 dh=-10 dv=0 dx=0 dy=0 dh=0 dv=0
PairPos2: "'kern' Horizontal Kerning lookup 2 per glyph data 3" uni05BE dx=20 dy=0 dh=20 dv=0 dx=0 dy=0 dh=0 dv=0
PairPos2: "'kern' Horizontal Kerning lookup 2 per glyph data 3" uni05DC dx=10 dy=0 dh=10 dv=0 dx=0 dy=0 dh=0 dv=0
PairPos2: "'kern' Horizontal Kerning lookup 2 per glyph data 3" uni05F3 dx=30 dy=0 dh=30 dv=0 dx=0 dy=0 dh=0 dv=0
PairPos2: "'kern' Horizontal Kerning lookup 2 per glyph data 3" uni05D3 dx=10 dy=0 dh=10 dv=0 dx=0 dy=0 dh=0 dv=0
PairPos2: "'kern' Horizontal Kerning lookup 2 per glyph data 3" quotesinglbase dx=-50 dy=0 dh=-50 dv=0 dx=0 dy=0 dh=0 dv=0
PairPos2: "'kern' Horizontal Kerning lookup 2 per glyph data 3" quotedblbase dx=-50 dy=0 dh=-50 dv=0 dx=0 dy=0 dh=0 dv=0
PairPos2: "'kern' Horizontal Kerning lookup 2 per glyph data 3" period dx=-50 dy=0 dh=-50 dv=0 dx=0 dy=0 dh=0 dv=0
PairPos2: "'kern' Horizontal Kerning lookup 2 per glyph data 3" ellipsis dx=-50 dy=0 dh=-50 dv=0 dx=0 dy=0 dh=0 dv=0
PairPos2: "'kern' Horizontal Kerning lookup 2 per glyph data 3" comma dx=-50 dy=0 dh=-50 dv=0 dx=0 dy=0 dh=0 dv=0
PairPos2: "'kern' Horizontal Kerning lookup 2 per glyph data 3" uni00AD dx=-20 dy=0 dh=-20 dv=0 dx=0 dy=0 dh=0 dv=0
PairPos2: "'kern' Horizontal Kerning lookup 2 per glyph data 3" hyphen dx=-20 dy=0 dh=-20 dv=0 dx=0 dy=0 dh=0 dv=0
PairPos2: "'kern' Horizontal Kerning lookup 2 per glyph data 3" endash dx=-20 dy=0 dh=-20 dv=0 dx=0 dy=0 dh=0 dv=0
PairPos2: "'kern' Horizontal Kerning lookup 2 per glyph data 3" emdash dx=-20 dy=0 dh=-20 dv=0 dx=0 dy=0 dh=0 dv=0
PairPos2: "'kern' Horizontal Kerning lookup 2 per glyph data 2" uni05DA dx=10 dy=0 dh=10 dv=0 dx=0 dy=0 dh=0 dv=0
EndChar
StartChar: I
Encoding: 73 73 45
Width: 312
Flags: W
LayerCount: 2
Fore
SplineSet
96 4.5 m 128,-1,1
 108 12 108 12 118 32.5 c 128,-1,2
 128 53 128 53 128 93 c 2,3,-1
 128 595 l 2,4,5
 128 635 128 635 118.5 655.5 c 128,-1,6
 109 676 109 676 97 683 c 128,-1,7
 85 690 85 690 85 688 c 2,8,-1
 244 688 l 2,9,10
 244 690 244 690 232 683 c 128,-1,11
 220 676 220 676 210 655.5 c 128,-1,12
 200 635 200 635 200 595 c 2,13,-1
 200 93 l 2,14,15
 200 53 200 53 210 32.5 c 128,-1,16
 220 12 220 12 232 5 c 128,-1,17
 244 -2 244 -2 244 0 c 2,18,-1
 84 0 l 2,19,0
 84 -3 84 -3 96 4.5 c 128,-1,1
EndSplineSet
Validated: 5
PairPos2: "'kern' Horizontal Kerning lookup 2 per glyph data 3" uni05D6 dx=10 dy=0 dh=10 dv=0 dx=0 dy=0 dh=0 dv=0
PairPos2: "'kern' Horizontal Kerning lookup 2 per glyph data 3" uni05E9 dx=10 dy=0 dh=10 dv=0 dx=0 dy=0 dh=0 dv=0
PairPos2: "'kern' Horizontal Kerning lookup 2 per glyph data 3" question dx=10 dy=0 dh=10 dv=0 dx=0 dy=0 dh=0 dv=0
PairPos2: "'kern' Horizontal Kerning lookup 2 per glyph data 3" uni05E7 dx=10 dy=0 dh=10 dv=0 dx=0 dy=0 dh=0 dv=0
PairPos2: "'kern' Horizontal Kerning lookup 2 per glyph data 3" uni05DE dx=-10 dy=0 dh=-10 dv=0 dx=0 dy=0 dh=0 dv=0
PairPos2: "'kern' Horizontal Kerning lookup 2 per glyph data 3" uni05BE dx=20 dy=0 dh=20 dv=0 dx=0 dy=0 dh=0 dv=0
PairPos2: "'kern' Horizontal Kerning lookup 2 per glyph data 3" uni05DC dx=10 dy=0 dh=10 dv=0 dx=0 dy=0 dh=0 dv=0
PairPos2: "'kern' Horizontal Kerning lookup 2 per glyph data 3" uni05F3 dx=30 dy=0 dh=30 dv=0 dx=0 dy=0 dh=0 dv=0
PairPos2: "'kern' Horizontal Kerning lookup 2 per glyph data 3" uni05D3 dx=10 dy=0 dh=10 dv=0 dx=0 dy=0 dh=0 dv=0
PairPos2: "'kern' Horizontal Kerning lookup 2 per glyph data 3" quotesinglbase dx=-50 dy=0 dh=-50 dv=0 dx=0 dy=0 dh=0 dv=0
PairPos2: "'kern' Horizontal Kerning lookup 2 per glyph data 3" quotedblbase dx=-50 dy=0 dh=-50 dv=0 dx=0 dy=0 dh=0 dv=0
PairPos2: "'kern' Horizontal Kerning lookup 2 per glyph data 3" period dx=-50 dy=0 dh=-50 dv=0 dx=0 dy=0 dh=0 dv=0
PairPos2: "'kern' Horizontal Kerning lookup 2 per glyph data 3" ellipsis dx=-50 dy=0 dh=-50 dv=0 dx=0 dy=0 dh=0 dv=0
PairPos2: "'kern' Horizontal Kerning lookup 2 per glyph data 3" comma dx=-50 dy=0 dh=-50 dv=0 dx=0 dy=0 dh=0 dv=0
PairPos2: "'kern' Horizontal Kerning lookup 2 per glyph data 3" uni00AD dx=-20 dy=0 dh=-20 dv=0 dx=0 dy=0 dh=0 dv=0
PairPos2: "'kern' Horizontal Kerning lookup 2 per glyph data 3" hyphen dx=-20 dy=0 dh=-20 dv=0 dx=0 dy=0 dh=0 dv=0
PairPos2: "'kern' Horizontal Kerning lookup 2 per glyph data 3" endash dx=-20 dy=0 dh=-20 dv=0 dx=0 dy=0 dh=0 dv=0
PairPos2: "'kern' Horizontal Kerning lookup 2 per glyph data 3" emdash dx=-20 dy=0 dh=-20 dv=0 dx=0 dy=0 dh=0 dv=0
PairPos2: "'kern' Horizontal Kerning lookup 2 per glyph data 2" uni05DA dx=10 dy=0 dh=10 dv=0 dx=0 dy=0 dh=0 dv=0
EndChar
StartChar: J
Encoding: 74 74 56
Width: 312
Flags: W
LayerCount: 2
Fore
SplineSet
200 31 m 2,0,1
 200 -27 200 -27 174.5 -74 c 128,-1,2
 149 -121 149 -121 106.5 -147 c 128,-1,3
 64 -173 64 -173 16 -173 c 1,4,5
 68 -152 68 -152 98 -96.5 c 128,-1,6
 128 -41 128 -41 128 35 c 2,7,-1
 128 596 l 2,8,9
 128 635 128 635 118 655.5 c 128,-1,10
 108 676 108 676 96 683 c 128,-1,11
 84 690 84 690 84 688 c 2,12,-1
 243 688 l 2,13,14
 243 690 243 690 231 683 c 128,-1,15
 219 676 219 676 209.5 655.5 c 128,-1,16
 200 635 200 635 200 596 c 2,17,-1
 200 31 l 2,0,1
EndSplineSet
Validated: 5
PairPos2: "'kern' Horizontal Kerning lookup 2 per glyph data 3" uni05D6 dx=10 dy=0 dh=10 dv=0 dx=0 dy=0 dh=0 dv=0
PairPos2: "'kern' Horizontal Kerning lookup 2 per glyph data 3" uni05E9 dx=10 dy=0 dh=10 dv=0 dx=0 dy=0 dh=0 dv=0
PairPos2: "'kern' Horizontal Kerning lookup 2 per glyph data 3" question dx=10 dy=0 dh=10 dv=0 dx=0 dy=0 dh=0 dv=0
PairPos2: "'kern' Horizontal Kerning lookup 2 per glyph data 3" uni05E7 dx=10 dy=0 dh=10 dv=0 dx=0 dy=0 dh=0 dv=0
PairPos2: "'kern' Horizontal Kerning lookup 2 per glyph data 3" uni05DE dx=-10 dy=0 dh=-10 dv=0 dx=0 dy=0 dh=0 dv=0
PairPos2: "'kern' Horizontal Kerning lookup 2 per glyph data 3" uni05BE dx=20 dy=0 dh=20 dv=0 dx=0 dy=0 dh=0 dv=0
PairPos2: "'kern' Horizontal Kerning lookup 2 per glyph data 3" uni05DC dx=10 dy=0 dh=10 dv=0 dx=0 dy=0 dh=0 dv=0
PairPos2: "'kern' Horizontal Kerning lookup 2 per glyph data 3" uni05F3 dx=30 dy=0 dh=30 dv=0 dx=0 dy=0 dh=0 dv=0
PairPos2: "'kern' Horizontal Kerning lookup 2 per glyph data 3" uni05D3 dx=10 dy=0 dh=10 dv=0 dx=0 dy=0 dh=0 dv=0
PairPos2: "'kern' Horizontal Kerning lookup 2 per glyph data 3" quotesinglbase dx=-50 dy=0 dh=-50 dv=0 dx=0 dy=0 dh=0 dv=0
PairPos2: "'kern' Horizontal Kerning lookup 2 per glyph data 3" quotedblbase dx=-50 dy=0 dh=-50 dv=0 dx=0 dy=0 dh=0 dv=0
PairPos2: "'kern' Horizontal Kerning lookup 2 per glyph data 3" period dx=-50 dy=0 dh=-50 dv=0 dx=0 dy=0 dh=0 dv=0
PairPos2: "'kern' Horizontal Kerning lookup 2 per glyph data 3" ellipsis dx=-50 dy=0 dh=-50 dv=0 dx=0 dy=0 dh=0 dv=0
PairPos2: "'kern' Horizontal Kerning lookup 2 per glyph data 3" comma dx=-50 dy=0 dh=-50 dv=0 dx=0 dy=0 dh=0 dv=0
PairPos2: "'kern' Horizontal Kerning lookup 2 per glyph data 3" uni00AD dx=-20 dy=0 dh=-20 dv=0 dx=0 dy=0 dh=0 dv=0
PairPos2: "'kern' Horizontal Kerning lookup 2 per glyph data 3" hyphen dx=-20 dy=0 dh=-20 dv=0 dx=0 dy=0 dh=0 dv=0
PairPos2: "'kern' Horizontal Kerning lookup 2 per glyph data 3" endash dx=-20 dy=0 dh=-20 dv=0 dx=0 dy=0 dh=0 dv=0
PairPos2: "'kern' Horizontal Kerning lookup 2 per glyph data 3" emdash dx=-20 dy=0 dh=-20 dv=0 dx=0 dy=0 dh=0 dv=0
PairPos2: "'kern' Horizontal Kerning lookup 2 per glyph data 2" uni05DA dx=10 dy=0 dh=10 dv=0 dx=0 dy=0 dh=0 dv=0
EndChar
StartChar: K
Encoding: 75 75 58
Width: 664
Flags: W
LayerCount: 2
Fore
SplineSet
514 0 m 1,0,-1
 200 350 l 1,1,-1
 200 92 l 2,2,3
 200 42 200 42 214 22 c 128,-1,4
 228 2 228 2 240 0 c 2,5,-1
 86 0 l 2,6,7
 98 2 98 2 113 21.5 c 128,-1,8
 128 41 128 41 128 92 c 2,9,-1
 128 595 l 2,10,11
 128 646 128 646 114 665 c 128,-1,12
 100 684 100 684 86 688 c 1,13,-1
 240 688 l 2,14,15
 228 686 228 686 214 666.5 c 128,-1,16
 200 647 200 647 200 595 c 2,17,-1
 200 353 l 1,18,-1
 437 589 l 2,19,20
 494 646 494 646 494 667 c 0,21,22
 494 685 494 685 480 688 c 2,23,-1
 637 688 l 2,24,25
 621 686 621 686 586.5 666.5 c 128,-1,26
 552 647 552 647 498 593 c 2,27,-1
 274 371 l 1,28,-1
 527 96 l 2,29,30
 573 43 573 43 599.5 23.5 c 128,-1,31
 626 4 626 4 637 0 c 1,32,-1
 514 0 l 1,0,-1
EndSplineSet
Validated: 1
PairPos2: "'kern' Horizontal Kerning lookup 2 per glyph data 3" uni05D6 dx=10 dy=0 dh=10 dv=0 dx=0 dy=0 dh=0 dv=0
PairPos2: "'kern' Horizontal Kerning lookup 2 per glyph data 3" uni05E9 dx=10 dy=0 dh=10 dv=0 dx=0 dy=0 dh=0 dv=0
PairPos2: "'kern' Horizontal Kerning lookup 2 per glyph data 3" question dx=10 dy=0 dh=10 dv=0 dx=0 dy=0 dh=0 dv=0
PairPos2: "'kern' Horizontal Kerning lookup 2 per glyph data 3" uni05E7 dx=10 dy=0 dh=10 dv=0 dx=0 dy=0 dh=0 dv=0
PairPos2: "'kern' Horizontal Kerning lookup 2 per glyph data 3" uni05DE dx=-10 dy=0 dh=-10 dv=0 dx=0 dy=0 dh=0 dv=0
PairPos2: "'kern' Horizontal Kerning lookup 2 per glyph data 3" uni05BE dx=20 dy=0 dh=20 dv=0 dx=0 dy=0 dh=0 dv=0
PairPos2: "'kern' Horizontal Kerning lookup 2 per glyph data 3" uni05DC dx=10 dy=0 dh=10 dv=0 dx=0 dy=0 dh=0 dv=0
PairPos2: "'kern' Horizontal Kerning lookup 2 per glyph data 3" uni05F3 dx=30 dy=0 dh=30 dv=0 dx=0 dy=0 dh=0 dv=0
PairPos2: "'kern' Horizontal Kerning lookup 2 per glyph data 3" uni05D3 dx=10 dy=0 dh=10 dv=0 dx=0 dy=0 dh=0 dv=0
PairPos2: "'kern' Horizontal Kerning lookup 2 per glyph data 3" quotesinglbase dx=-50 dy=0 dh=-50 dv=0 dx=0 dy=0 dh=0 dv=0
PairPos2: "'kern' Horizontal Kerning lookup 2 per glyph data 3" quotedblbase dx=-50 dy=0 dh=-50 dv=0 dx=0 dy=0 dh=0 dv=0
PairPos2: "'kern' Horizontal Kerning lookup 2 per glyph data 3" period dx=-50 dy=0 dh=-50 dv=0 dx=0 dy=0 dh=0 dv=0
PairPos2: "'kern' Horizontal Kerning lookup 2 per glyph data 3" ellipsis dx=-50 dy=0 dh=-50 dv=0 dx=0 dy=0 dh=0 dv=0
PairPos2: "'kern' Horizontal Kerning lookup 2 per glyph data 3" comma dx=-50 dy=0 dh=-50 dv=0 dx=0 dy=0 dh=0 dv=0
PairPos2: "'kern' Horizontal Kerning lookup 2 per glyph data 3" uni00AD dx=-20 dy=0 dh=-20 dv=0 dx=0 dy=0 dh=0 dv=0
PairPos2: "'kern' Horizontal Kerning lookup 2 per glyph data 3" hyphen dx=-20 dy=0 dh=-20 dv=0 dx=0 dy=0 dh=0 dv=0
PairPos2: "'kern' Horizontal Kerning lookup 2 per glyph data 3" endash dx=-20 dy=0 dh=-20 dv=0 dx=0 dy=0 dh=0 dv=0
PairPos2: "'kern' Horizontal Kerning lookup 2 per glyph data 3" emdash dx=-20 dy=0 dh=-20 dv=0 dx=0 dy=0 dh=0 dv=0
PairPos2: "'kern' Horizontal Kerning lookup 2 per glyph data 2" uni05DA dx=10 dy=0 dh=10 dv=0 dx=0 dy=0 dh=0 dv=0
EndChar
StartChar: L
Encoding: 76 76 60
Width: 506
Flags: W
LayerCount: 2
Fore
SplineSet
118.5 655.5 m 128,-1,1
 109 676 109 676 97 683 c 128,-1,2
 85 690 85 690 85 688 c 2,3,-1
 244 688 l 2,4,5
 244 690 244 690 232 683 c 128,-1,6
 220 676 220 676 210 655.5 c 128,-1,7
 200 635 200 635 200 595 c 2,8,-1
 200 40 l 1,9,-1
 364 40 l 2,10,11
 409 40 409 40 441.5 58.5 c 128,-1,12
 474 77 474 77 488 106 c 1,13,-1
 470 0 l 1,14,-1
 85 0 l 2,15,16
 85 -3 85 -3 97 4.5 c 128,-1,17
 109 12 109 12 118.5 34.5 c 128,-1,18
 128 57 128 57 128 100 c 2,19,-1
 128 595 l 2,20,0
 128 635 128 635 118.5 655.5 c 128,-1,1
EndSplineSet
Validated: 5
PairPos2: "'kern' Horizontal Kerning lookup 2 per glyph data 3" uni05D6 dx=10 dy=0 dh=10 dv=0 dx=0 dy=0 dh=0 dv=0
PairPos2: "'kern' Horizontal Kerning lookup 2 per glyph data 3" uni05E9 dx=10 dy=0 dh=10 dv=0 dx=0 dy=0 dh=0 dv=0
PairPos2: "'kern' Horizontal Kerning lookup 2 per glyph data 3" question dx=10 dy=0 dh=10 dv=0 dx=0 dy=0 dh=0 dv=0
PairPos2: "'kern' Horizontal Kerning lookup 2 per glyph data 3" uni05E7 dx=10 dy=0 dh=10 dv=0 dx=0 dy=0 dh=0 dv=0
PairPos2: "'kern' Horizontal Kerning lookup 2 per glyph data 3" uni05DE dx=-10 dy=0 dh=-10 dv=0 dx=0 dy=0 dh=0 dv=0
PairPos2: "'kern' Horizontal Kerning lookup 2 per glyph data 3" uni05BE dx=20 dy=0 dh=20 dv=0 dx=0 dy=0 dh=0 dv=0
PairPos2: "'kern' Horizontal Kerning lookup 2 per glyph data 3" uni05DC dx=10 dy=0 dh=10 dv=0 dx=0 dy=0 dh=0 dv=0
PairPos2: "'kern' Horizontal Kerning lookup 2 per glyph data 3" uni05F3 dx=30 dy=0 dh=30 dv=0 dx=0 dy=0 dh=0 dv=0
PairPos2: "'kern' Horizontal Kerning lookup 2 per glyph data 3" uni05D3 dx=10 dy=0 dh=10 dv=0 dx=0 dy=0 dh=0 dv=0
PairPos2: "'kern' Horizontal Kerning lookup 2 per glyph data 3" quotesinglbase dx=-50 dy=0 dh=-50 dv=0 dx=0 dy=0 dh=0 dv=0
PairPos2: "'kern' Horizontal Kerning lookup 2 per glyph data 3" quotedblbase dx=-50 dy=0 dh=-50 dv=0 dx=0 dy=0 dh=0 dv=0
PairPos2: "'kern' Horizontal Kerning lookup 2 per glyph data 3" period dx=-50 dy=0 dh=-50 dv=0 dx=0 dy=0 dh=0 dv=0
PairPos2: "'kern' Horizontal Kerning lookup 2 per glyph data 3" ellipsis dx=-50 dy=0 dh=-50 dv=0 dx=0 dy=0 dh=0 dv=0
PairPos2: "'kern' Horizontal Kerning lookup 2 per glyph data 3" comma dx=-50 dy=0 dh=-50 dv=0 dx=0 dy=0 dh=0 dv=0
PairPos2: "'kern' Horizontal Kerning lookup 2 per glyph data 3" uni00AD dx=-20 dy=0 dh=-20 dv=0 dx=0 dy=0 dh=0 dv=0
PairPos2: "'kern' Horizontal Kerning lookup 2 per glyph data 3" hyphen dx=-20 dy=0 dh=-20 dv=0 dx=0 dy=0 dh=0 dv=0
PairPos2: "'kern' Horizontal Kerning lookup 2 per glyph data 3" endash dx=-20 dy=0 dh=-20 dv=0 dx=0 dy=0 dh=0 dv=0
PairPos2: "'kern' Horizontal Kerning lookup 2 per glyph data 3" emdash dx=-20 dy=0 dh=-20 dv=0 dx=0 dy=0 dh=0 dv=0
PairPos2: "'kern' Horizontal Kerning lookup 2 per glyph data 2" uni05DA dx=10 dy=0 dh=10 dv=0 dx=0 dy=0 dh=0 dv=0
EndChar
StartChar: M
Encoding: 77 77 66
Width: 888
Flags: W
LayerCount: 2
Fore
SplineSet
664 0 m 2,0,1
 676 2 676 2 690 21.5 c 128,-1,2
 704 41 704 41 704 94 c 2,3,-1
 704 594 l 1,4,-1
 442 -11 l 1,5,-1
 176 593 l 1,6,-1
 176 99 l 2,7,8
 176 45 176 45 193.5 23.5 c 128,-1,9
 211 2 211 2 225 0 c 2,10,-1
 77 0 l 2,11,12
 92 2 92 2 110 22.5 c 128,-1,13
 128 43 128 43 128 99 c 2,14,-1
 128 600 l 2,15,16
 128 648 128 648 111 666 c 128,-1,17
 94 684 94 684 77 688 c 1,18,-1
 212 688 l 1,19,-1
 457 129 l 1,20,-1
 698 688 l 1,21,-1
 819 688 l 2,22,23
 806 686 806 686 791 667 c 128,-1,24
 776 648 776 648 776 597 c 2,25,-1
 776 90 l 2,26,27
 776 40 776 40 791 21 c 128,-1,28
 806 2 806 2 819 0 c 2,29,-1
 664 0 l 2,0,1
EndSplineSet
Validated: 1
PairPos2: "'kern' Horizontal Kerning lookup 2 per glyph data 3" uni05D6 dx=10 dy=0 dh=10 dv=0 dx=0 dy=0 dh=0 dv=0
PairPos2: "'kern' Horizontal Kerning lookup 2 per glyph data 3" uni05E9 dx=10 dy=0 dh=10 dv=0 dx=0 dy=0 dh=0 dv=0
PairPos2: "'kern' Horizontal Kerning lookup 2 per glyph data 3" question dx=10 dy=0 dh=10 dv=0 dx=0 dy=0 dh=0 dv=0
PairPos2: "'kern' Horizontal Kerning lookup 2 per glyph data 3" uni05E7 dx=10 dy=0 dh=10 dv=0 dx=0 dy=0 dh=0 dv=0
PairPos2: "'kern' Horizontal Kerning lookup 2 per glyph data 3" uni05DE dx=-10 dy=0 dh=-10 dv=0 dx=0 dy=0 dh=0 dv=0
PairPos2: "'kern' Horizontal Kerning lookup 2 per glyph data 3" uni05BE dx=20 dy=0 dh=20 dv=0 dx=0 dy=0 dh=0 dv=0
PairPos2: "'kern' Horizontal Kerning lookup 2 per glyph data 3" uni05DC dx=10 dy=0 dh=10 dv=0 dx=0 dy=0 dh=0 dv=0
PairPos2: "'kern' Horizontal Kerning lookup 2 per glyph data 3" uni05F3 dx=30 dy=0 dh=30 dv=0 dx=0 dy=0 dh=0 dv=0
PairPos2: "'kern' Horizontal Kerning lookup 2 per glyph data 3" uni05D3 dx=10 dy=0 dh=10 dv=0 dx=0 dy=0 dh=0 dv=0
PairPos2: "'kern' Horizontal Kerning lookup 2 per glyph data 3" quotesinglbase dx=-50 dy=0 dh=-50 dv=0 dx=0 dy=0 dh=0 dv=0
PairPos2: "'kern' Horizontal Kerning lookup 2 per glyph data 3" quotedblbase dx=-50 dy=0 dh=-50 dv=0 dx=0 dy=0 dh=0 dv=0
PairPos2: "'kern' Horizontal Kerning lookup 2 per glyph data 3" period dx=-50 dy=0 dh=-50 dv=0 dx=0 dy=0 dh=0 dv=0
PairPos2: "'kern' Horizontal Kerning lookup 2 per glyph data 3" ellipsis dx=-50 dy=0 dh=-50 dv=0 dx=0 dy=0 dh=0 dv=0
PairPos2: "'kern' Horizontal Kerning lookup 2 per glyph data 3" comma dx=-50 dy=0 dh=-50 dv=0 dx=0 dy=0 dh=0 dv=0
PairPos2: "'kern' Horizontal Kerning lookup 2 per glyph data 3" uni00AD dx=-20 dy=0 dh=-20 dv=0 dx=0 dy=0 dh=0 dv=0
PairPos2: "'kern' Horizontal Kerning lookup 2 per glyph data 3" hyphen dx=-20 dy=0 dh=-20 dv=0 dx=0 dy=0 dh=0 dv=0
PairPos2: "'kern' Horizontal Kerning lookup 2 per glyph data 3" endash dx=-20 dy=0 dh=-20 dv=0 dx=0 dy=0 dh=0 dv=0
PairPos2: "'kern' Horizontal Kerning lookup 2 per glyph data 3" emdash dx=-20 dy=0 dh=-20 dv=0 dx=0 dy=0 dh=0 dv=0
PairPos2: "'kern' Horizontal Kerning lookup 2 per glyph data 2" uni05DA dx=10 dy=0 dh=10 dv=0 dx=0 dy=0 dh=0 dv=0
EndChar
StartChar: N
Encoding: 78 78 67
Width: 800
Flags: W
LayerCount: 2
Fore
SplineSet
729 688 m 2,0,1
 715 685 715 685 701.5 665.5 c 128,-1,2
 688 646 688 646 688 597 c 2,3,-1
 688 -28 l 1,4,-1
 176 569 l 1,5,-1
 176 90 l 2,6,7
 176 42 176 42 193 22.5 c 128,-1,8
 210 3 210 3 226 0 c 2,9,-1
 85 0 l 2,10,11
 99 3 99 3 113.5 22.5 c 128,-1,12
 128 42 128 42 128 91 c 2,13,-1
 128 591 l 2,14,15
 128 625 128 625 105 653 c 128,-1,16
 82 681 82 681 47 688 c 1,17,-1
 171 688 l 1,18,-1
 640 141 l 1,19,-1
 640 597 l 2,20,21
 640 674 640 674 588 688 c 1,22,-1
 729 688 l 2,0,1
EndSplineSet
Validated: 1
PairPos2: "'kern' Horizontal Kerning lookup 2 per glyph data 3" uni05D6 dx=10 dy=0 dh=10 dv=0 dx=0 dy=0 dh=0 dv=0
PairPos2: "'kern' Horizontal Kerning lookup 2 per glyph data 3" uni05E9 dx=10 dy=0 dh=10 dv=0 dx=0 dy=0 dh=0 dv=0
PairPos2: "'kern' Horizontal Kerning lookup 2 per glyph data 3" question dx=10 dy=0 dh=10 dv=0 dx=0 dy=0 dh=0 dv=0
PairPos2: "'kern' Horizontal Kerning lookup 2 per glyph data 3" uni05E7 dx=10 dy=0 dh=10 dv=0 dx=0 dy=0 dh=0 dv=0
PairPos2: "'kern' Horizontal Kerning lookup 2 per glyph data 3" uni05DE dx=-10 dy=0 dh=-10 dv=0 dx=0 dy=0 dh=0 dv=0
PairPos2: "'kern' Horizontal Kerning lookup 2 per glyph data 3" uni05BE dx=20 dy=0 dh=20 dv=0 dx=0 dy=0 dh=0 dv=0
PairPos2: "'kern' Horizontal Kerning lookup 2 per glyph data 3" uni05DC dx=10 dy=0 dh=10 dv=0 dx=0 dy=0 dh=0 dv=0
PairPos2: "'kern' Horizontal Kerning lookup 2 per glyph data 3" uni05F3 dx=30 dy=0 dh=30 dv=0 dx=0 dy=0 dh=0 dv=0
PairPos2: "'kern' Horizontal Kerning lookup 2 per glyph data 3" uni05D3 dx=10 dy=0 dh=10 dv=0 dx=0 dy=0 dh=0 dv=0
PairPos2: "'kern' Horizontal Kerning lookup 2 per glyph data 3" quotesinglbase dx=-50 dy=0 dh=-50 dv=0 dx=0 dy=0 dh=0 dv=0
PairPos2: "'kern' Horizontal Kerning lookup 2 per glyph data 3" quotedblbase dx=-50 dy=0 dh=-50 dv=0 dx=0 dy=0 dh=0 dv=0
PairPos2: "'kern' Horizontal Kerning lookup 2 per glyph data 3" period dx=-50 dy=0 dh=-50 dv=0 dx=0 dy=0 dh=0 dv=0
PairPos2: "'kern' Horizontal Kerning lookup 2 per glyph data 3" ellipsis dx=-50 dy=0 dh=-50 dv=0 dx=0 dy=0 dh=0 dv=0
PairPos2: "'kern' Horizontal Kerning lookup 2 per glyph data 3" comma dx=-50 dy=0 dh=-50 dv=0 dx=0 dy=0 dh=0 dv=0
PairPos2: "'kern' Horizontal Kerning lookup 2 per glyph data 3" uni00AD dx=-20 dy=0 dh=-20 dv=0 dx=0 dy=0 dh=0 dv=0
PairPos2: "'kern' Horizontal Kerning lookup 2 per glyph data 3" hyphen dx=-20 dy=0 dh=-20 dv=0 dx=0 dy=0 dh=0 dv=0
PairPos2: "'kern' Horizontal Kerning lookup 2 per glyph data 3" endash dx=-20 dy=0 dh=-20 dv=0 dx=0 dy=0 dh=0 dv=0
PairPos2: "'kern' Horizontal Kerning lookup 2 per glyph data 3" emdash dx=-20 dy=0 dh=-20 dv=0 dx=0 dy=0 dh=0 dv=0
PairPos2: "'kern' Horizontal Kerning lookup 2 per glyph data 2" uni05DA dx=10 dy=0 dh=10 dv=0 dx=0 dy=0 dh=0 dv=0
EndChar
StartChar: O
Encoding: 79 79 73
Width: 818
Flags: W
LayerCount: 2
Fore
SplineSet
109.5 525 m 128,-1,1
 155 608 155 608 237.5 654 c 128,-1,2
 320 700 320 700 428 700 c 0,3,4
 518 700 518 700 596.5 660.5 c 128,-1,5
 675 621 675 621 722.5 542 c 128,-1,6
 770 463 770 463 770 352 c 0,7,8
 770 246 770 246 724.5 163 c 128,-1,9
 679 80 679 80 596.5 34 c 128,-1,10
 514 -12 514 -12 406 -12 c 0,11,12
 316 -12 316 -12 237.5 27.5 c 128,-1,13
 159 67 159 67 111.5 146 c 128,-1,14
 64 225 64 225 64 336 c 0,15,0
 64 442 64 442 109.5 525 c 128,-1,1
652.5 501.5 m 128,-1,17
 615 575 615 575 549.5 616.5 c 128,-1,18
 484 658 484 658 402 658 c 0,19,20
 327 658 327 658 268.5 620 c 128,-1,21
 210 582 210 582 177 512.5 c 128,-1,22
 144 443 144 443 144 351 c 0,23,24
 144 260 144 260 181.5 186.5 c 128,-1,25
 219 113 219 113 284.5 71.5 c 128,-1,26
 350 30 350 30 432 30 c 0,27,28
 507 30 507 30 565.5 68 c 128,-1,29
 624 106 624 106 657 175.5 c 128,-1,30
 690 245 690 245 690 337 c 0,31,16
 690 428 690 428 652.5 501.5 c 128,-1,17
EndSplineSet
Validated: 1
Substitution2: "Single Substitution lookup 11 subtable" ordmasculine
Substitution2: "'aalt' Access All Alternates lookup 0 subtable" ordmasculine
PairPos2: "'kern' Horizontal Kerning lookup 2 per glyph data 3" uni05D6 dx=10 dy=0 dh=10 dv=0 dx=0 dy=0 dh=0 dv=0
PairPos2: "'kern' Horizontal Kerning lookup 2 per glyph data 3" uni05E9 dx=10 dy=0 dh=10 dv=0 dx=0 dy=0 dh=0 dv=0
PairPos2: "'kern' Horizontal Kerning lookup 2 per glyph data 3" question dx=10 dy=0 dh=10 dv=0 dx=0 dy=0 dh=0 dv=0
PairPos2: "'kern' Horizontal Kerning lookup 2 per glyph data 3" uni05E7 dx=10 dy=0 dh=10 dv=0 dx=0 dy=0 dh=0 dv=0
PairPos2: "'kern' Horizontal Kerning lookup 2 per glyph data 3" uni05DE dx=-10 dy=0 dh=-10 dv=0 dx=0 dy=0 dh=0 dv=0
PairPos2: "'kern' Horizontal Kerning lookup 2 per glyph data 3" uni05BE dx=20 dy=0 dh=20 dv=0 dx=0 dy=0 dh=0 dv=0
PairPos2: "'kern' Horizontal Kerning lookup 2 per glyph data 3" uni05DC dx=10 dy=0 dh=10 dv=0 dx=0 dy=0 dh=0 dv=0
PairPos2: "'kern' Horizontal Kerning lookup 2 per glyph data 3" uni05F3 dx=30 dy=0 dh=30 dv=0 dx=0 dy=0 dh=0 dv=0
PairPos2: "'kern' Horizontal Kerning lookup 2 per glyph data 3" uni05D3 dx=10 dy=0 dh=10 dv=0 dx=0 dy=0 dh=0 dv=0
PairPos2: "'kern' Horizontal Kerning lookup 2 per glyph data 3" quotesinglbase dx=-50 dy=0 dh=-50 dv=0 dx=0 dy=0 dh=0 dv=0
PairPos2: "'kern' Horizontal Kerning lookup 2 per glyph data 3" quotedblbase dx=-50 dy=0 dh=-50 dv=0 dx=0 dy=0 dh=0 dv=0
PairPos2: "'kern' Horizontal Kerning lookup 2 per glyph data 3" period dx=-50 dy=0 dh=-50 dv=0 dx=0 dy=0 dh=0 dv=0
PairPos2: "'kern' Horizontal Kerning lookup 2 per glyph data 3" ellipsis dx=-50 dy=0 dh=-50 dv=0 dx=0 dy=0 dh=0 dv=0
PairPos2: "'kern' Horizontal Kerning lookup 2 per glyph data 3" comma dx=-50 dy=0 dh=-50 dv=0 dx=0 dy=0 dh=0 dv=0
PairPos2: "'kern' Horizontal Kerning lookup 2 per glyph data 3" uni00AD dx=-20 dy=0 dh=-20 dv=0 dx=0 dy=0 dh=0 dv=0
PairPos2: "'kern' Horizontal Kerning lookup 2 per glyph data 3" hyphen dx=-20 dy=0 dh=-20 dv=0 dx=0 dy=0 dh=0 dv=0
PairPos2: "'kern' Horizontal Kerning lookup 2 per glyph data 3" endash dx=-20 dy=0 dh=-20 dv=0 dx=0 dy=0 dh=0 dv=0
PairPos2: "'kern' Horizontal Kerning lookup 2 per glyph data 3" emdash dx=-20 dy=0 dh=-20 dv=0 dx=0 dy=0 dh=0 dv=0
PairPos2: "'kern' Horizontal Kerning lookup 2 per glyph data 2" uni05DA dx=10 dy=0 dh=10 dv=0 dx=0 dy=0 dh=0 dv=0
EndChar
StartChar: P
Encoding: 80 80 84
Width: 548
Flags: W
LayerCount: 2
Fore
SplineSet
488.5 398.5 m 128,-1,1
 461 353 461 353 410 327 c 128,-1,2
 359 301 359 301 290 301 c 0,3,4
 248 301 248 301 200 310 c 1,5,-1
 200 92 l 2,6,7
 200 53 200 53 210 32.5 c 128,-1,8
 220 12 220 12 232 5 c 128,-1,9
 244 -2 244 -2 244 0 c 2,10,-1
 85 0 l 2,11,12
 85 -2 85 -2 97 5 c 128,-1,13
 109 12 109 12 118.5 32 c 128,-1,14
 128 52 128 52 128 92 c 2,15,-1
 128 593 l 2,16,17
 128 633 128 633 118.5 654 c 128,-1,18
 109 675 109 675 97 682.5 c 128,-1,19
 85 690 85 690 85 688 c 2,20,-1
 281 688 l 2,21,22
 332 688 332 688 365 681.5 c 128,-1,23
 398 675 398 675 423 662 c 0,24,25
 468 639 468 639 492 595.5 c 128,-1,26
 516 552 516 552 516 502 c 0,27,0
 516 444 516 444 488.5 398.5 c 128,-1,1
395 604 m 128,-1,29
 351 648 351 648 278 648 c 2,30,-1
 200 648 l 1,31,-1
 200 349 l 1,32,33
 243 341 243 341 290 341 c 0,34,35
 360 341 360 341 399.5 381.5 c 128,-1,36
 439 422 439 422 439 489 c 0,37,28
 439 560 439 560 395 604 c 128,-1,29
EndSplineSet
Validated: 5
PairPos2: "'kern' Horizontal Kerning lookup 2 per glyph data 3" uni05D6 dx=10 dy=0 dh=10 dv=0 dx=0 dy=0 dh=0 dv=0
PairPos2: "'kern' Horizontal Kerning lookup 2 per glyph data 3" uni05E9 dx=10 dy=0 dh=10 dv=0 dx=0 dy=0 dh=0 dv=0
PairPos2: "'kern' Horizontal Kerning lookup 2 per glyph data 3" question dx=10 dy=0 dh=10 dv=0 dx=0 dy=0 dh=0 dv=0
PairPos2: "'kern' Horizontal Kerning lookup 2 per glyph data 3" uni05E7 dx=10 dy=0 dh=10 dv=0 dx=0 dy=0 dh=0 dv=0
PairPos2: "'kern' Horizontal Kerning lookup 2 per glyph data 3" uni05DE dx=-10 dy=0 dh=-10 dv=0 dx=0 dy=0 dh=0 dv=0
PairPos2: "'kern' Horizontal Kerning lookup 2 per glyph data 3" uni05BE dx=20 dy=0 dh=20 dv=0 dx=0 dy=0 dh=0 dv=0
PairPos2: "'kern' Horizontal Kerning lookup 2 per glyph data 3" uni05DC dx=10 dy=0 dh=10 dv=0 dx=0 dy=0 dh=0 dv=0
PairPos2: "'kern' Horizontal Kerning lookup 2 per glyph data 3" uni05F3 dx=30 dy=0 dh=30 dv=0 dx=0 dy=0 dh=0 dv=0
PairPos2: "'kern' Horizontal Kerning lookup 2 per glyph data 3" uni05D3 dx=10 dy=0 dh=10 dv=0 dx=0 dy=0 dh=0 dv=0
PairPos2: "'kern' Horizontal Kerning lookup 2 per glyph data 3" quotesinglbase dx=-50 dy=0 dh=-50 dv=0 dx=0 dy=0 dh=0 dv=0
PairPos2: "'kern' Horizontal Kerning lookup 2 per glyph data 3" quotedblbase dx=-50 dy=0 dh=-50 dv=0 dx=0 dy=0 dh=0 dv=0
PairPos2: "'kern' Horizontal Kerning lookup 2 per glyph data 3" period dx=-50 dy=0 dh=-50 dv=0 dx=0 dy=0 dh=0 dv=0
PairPos2: "'kern' Horizontal Kerning lookup 2 per glyph data 3" ellipsis dx=-50 dy=0 dh=-50 dv=0 dx=0 dy=0 dh=0 dv=0
PairPos2: "'kern' Horizontal Kerning lookup 2 per glyph data 3" comma dx=-50 dy=0 dh=-50 dv=0 dx=0 dy=0 dh=0 dv=0
PairPos2: "'kern' Horizontal Kerning lookup 2 per glyph data 3" uni00AD dx=-20 dy=0 dh=-20 dv=0 dx=0 dy=0 dh=0 dv=0
PairPos2: "'kern' Horizontal Kerning lookup 2 per glyph data 3" hyphen dx=-20 dy=0 dh=-20 dv=0 dx=0 dy=0 dh=0 dv=0
PairPos2: "'kern' Horizontal Kerning lookup 2 per glyph data 3" endash dx=-20 dy=0 dh=-20 dv=0 dx=0 dy=0 dh=0 dv=0
PairPos2: "'kern' Horizontal Kerning lookup 2 per glyph data 3" emdash dx=-20 dy=0 dh=-20 dv=0 dx=0 dy=0 dh=0 dv=0
PairPos2: "'kern' Horizontal Kerning lookup 2 per glyph data 2" uni05DA dx=10 dy=0 dh=10 dv=0 dx=0 dy=0 dh=0 dv=0
EndChar
StartChar: Q
Encoding: 81 81 86
Width: 834
Flags: W
LayerCount: 2
Fore
SplineSet
109.5 525 m 128,-1,1
 155 608 155 608 237.5 654 c 128,-1,2
 320 700 320 700 428 700 c 0,3,4
 518 700 518 700 596.5 660.5 c 128,-1,5
 675 621 675 621 722.5 542 c 128,-1,6
 770 463 770 463 770 352 c 0,7,8
 770 244 770 244 723.5 160.5 c 128,-1,9
 677 77 677 77 593 32 c 1,10,11
 636 -11 636 -11 691 -46.5 c 128,-1,12
 746 -82 746 -82 794 -102.5 c 128,-1,13
 842 -123 842 -123 866 -123 c 2,14,-1
 872 -123 l 1,15,16
 855 -131 855 -131 828 -136 c 128,-1,17
 801 -141 801 -141 775 -141 c 0,18,19
 722 -141 722 -141 652.5 -106 c 128,-1,20
 583 -71 583 -71 510 0 c 1,21,22
 453 -12 453 -12 406 -12 c 0,23,24
 316 -12 316 -12 237.5 27.5 c 128,-1,25
 159 67 159 67 111.5 146 c 128,-1,26
 64 225 64 225 64 336 c 0,27,0
 64 442 64 442 109.5 525 c 128,-1,1
652.5 501.5 m 128,-1,29
 615 575 615 575 549.5 616.5 c 128,-1,30
 484 658 484 658 402 658 c 0,31,32
 327 658 327 658 268.5 620 c 128,-1,33
 210 582 210 582 177 512.5 c 128,-1,34
 144 443 144 443 144 351 c 0,35,36
 144 260 144 260 181.5 186.5 c 128,-1,37
 219 113 219 113 284.5 71.5 c 128,-1,38
 350 30 350 30 432 30 c 0,39,40
 507 30 507 30 565.5 68 c 128,-1,41
 624 106 624 106 657 175.5 c 128,-1,42
 690 245 690 245 690 337 c 0,43,28
 690 428 690 428 652.5 501.5 c 128,-1,29
EndSplineSet
Validated: 1
PairPos2: "'kern' Horizontal Kerning lookup 2 per glyph data 3" uni05D6 dx=10 dy=0 dh=10 dv=0 dx=0 dy=0 dh=0 dv=0
PairPos2: "'kern' Horizontal Kerning lookup 2 per glyph data 3" uni05E9 dx=10 dy=0 dh=10 dv=0 dx=0 dy=0 dh=0 dv=0
PairPos2: "'kern' Horizontal Kerning lookup 2 per glyph data 3" question dx=10 dy=0 dh=10 dv=0 dx=0 dy=0 dh=0 dv=0
PairPos2: "'kern' Horizontal Kerning lookup 2 per glyph data 3" uni05E7 dx=10 dy=0 dh=10 dv=0 dx=0 dy=0 dh=0 dv=0
PairPos2: "'kern' Horizontal Kerning lookup 2 per glyph data 3" uni05DE dx=-10 dy=0 dh=-10 dv=0 dx=0 dy=0 dh=0 dv=0
PairPos2: "'kern' Horizontal Kerning lookup 2 per glyph data 3" uni05BE dx=20 dy=0 dh=20 dv=0 dx=0 dy=0 dh=0 dv=0
PairPos2: "'kern' Horizontal Kerning lookup 2 per glyph data 3" uni05DC dx=10 dy=0 dh=10 dv=0 dx=0 dy=0 dh=0 dv=0
PairPos2: "'kern' Horizontal Kerning lookup 2 per glyph data 3" uni05F3 dx=30 dy=0 dh=30 dv=0 dx=0 dy=0 dh=0 dv=0
PairPos2: "'kern' Horizontal Kerning lookup 2 per glyph data 3" uni05D3 dx=10 dy=0 dh=10 dv=0 dx=0 dy=0 dh=0 dv=0
PairPos2: "'kern' Horizontal Kerning lookup 2 per glyph data 3" quotesinglbase dx=-50 dy=0 dh=-50 dv=0 dx=0 dy=0 dh=0 dv=0
PairPos2: "'kern' Horizontal Kerning lookup 2 per glyph data 3" quotedblbase dx=-50 dy=0 dh=-50 dv=0 dx=0 dy=0 dh=0 dv=0
PairPos2: "'kern' Horizontal Kerning lookup 2 per glyph data 3" period dx=-50 dy=0 dh=-50 dv=0 dx=0 dy=0 dh=0 dv=0
PairPos2: "'kern' Horizontal Kerning lookup 2 per glyph data 3" ellipsis dx=-50 dy=0 dh=-50 dv=0 dx=0 dy=0 dh=0 dv=0
PairPos2: "'kern' Horizontal Kerning lookup 2 per glyph data 3" comma dx=-50 dy=0 dh=-50 dv=0 dx=0 dy=0 dh=0 dv=0
PairPos2: "'kern' Horizontal Kerning lookup 2 per glyph data 3" uni00AD dx=-20 dy=0 dh=-20 dv=0 dx=0 dy=0 dh=0 dv=0
PairPos2: "'kern' Horizontal Kerning lookup 2 per glyph data 3" hyphen dx=-20 dy=0 dh=-20 dv=0 dx=0 dy=0 dh=0 dv=0
PairPos2: "'kern' Horizontal Kerning lookup 2 per glyph data 3" endash dx=-20 dy=0 dh=-20 dv=0 dx=0 dy=0 dh=0 dv=0
PairPos2: "'kern' Horizontal Kerning lookup 2 per glyph data 3" emdash dx=-20 dy=0 dh=-20 dv=0 dx=0 dy=0 dh=0 dv=0
PairPos2: "'kern' Horizontal Kerning lookup 2 per glyph data 2" uni05DA dx=10 dy=0 dh=10 dv=0 dx=0 dy=0 dh=0 dv=0
EndChar
StartChar: R
Encoding: 82 82 87
Width: 620
Flags: W
LayerCount: 2
Fore
SplineSet
366 367.5 m 128,-1,1
 400 389 400 389 417.5 423.5 c 128,-1,2
 435 458 435 458 435 496 c 0,3,4
 435 535 435 535 418.5 569.5 c 128,-1,5
 402 604 402 604 368 626 c 128,-1,6
 334 648 334 648 285 648 c 2,7,-1
 200 648 l 1,8,-1
 200 92 l 2,9,10
 200 52 200 52 210 31.5 c 128,-1,11
 220 11 220 11 232 4.5 c 128,-1,12
 244 -2 244 -2 244 0 c 2,13,-1
 85 0 l 2,14,15
 85 -2 85 -2 97 5 c 128,-1,16
 109 12 109 12 118.5 32 c 128,-1,17
 128 52 128 52 128 92 c 2,18,-1
 128 592 l 2,19,20
 128 633 128 633 118.5 654.5 c 128,-1,21
 109 676 109 676 97 683.5 c 128,-1,22
 85 691 85 691 85 688 c 2,23,-1
 283 688 l 2,24,25
 361 688 361 688 411.5 662.5 c 128,-1,26
 462 637 462 637 484.5 596.5 c 128,-1,27
 507 556 507 556 507 508 c 0,28,29
 507 468 507 468 488 429.5 c 128,-1,30
 469 391 469 391 433.5 362.5 c 128,-1,31
 398 334 398 334 351 323 c 2,32,-1
 335 320 l 1,33,-1
 511 96 l 2,34,35
 546 57 546 57 569 36 c 128,-1,36
 592 15 592 15 602.5 8 c 128,-1,37
 613 1 613 1 615 0 c 2,38,-1
 498 0 l 1,39,-1
 226 346 l 1,40,-1
 286 346 l 2,41,0
 332 346 332 346 366 367.5 c 128,-1,1
EndSplineSet
Validated: 5
PairPos2: "'kern' Horizontal Kerning lookup 2 per glyph data 3" uni05D6 dx=10 dy=0 dh=10 dv=0 dx=0 dy=0 dh=0 dv=0
PairPos2: "'kern' Horizontal Kerning lookup 2 per glyph data 3" uni05E9 dx=10 dy=0 dh=10 dv=0 dx=0 dy=0 dh=0 dv=0
PairPos2: "'kern' Horizontal Kerning lookup 2 per glyph data 3" question dx=10 dy=0 dh=10 dv=0 dx=0 dy=0 dh=0 dv=0
PairPos2: "'kern' Horizontal Kerning lookup 2 per glyph data 3" uni05E7 dx=10 dy=0 dh=10 dv=0 dx=0 dy=0 dh=0 dv=0
PairPos2: "'kern' Horizontal Kerning lookup 2 per glyph data 3" uni05DE dx=-10 dy=0 dh=-10 dv=0 dx=0 dy=0 dh=0 dv=0
PairPos2: "'kern' Horizontal Kerning lookup 2 per glyph data 3" uni05BE dx=20 dy=0 dh=20 dv=0 dx=0 dy=0 dh=0 dv=0
PairPos2: "'kern' Horizontal Kerning lookup 2 per glyph data 3" uni05DC dx=10 dy=0 dh=10 dv=0 dx=0 dy=0 dh=0 dv=0
PairPos2: "'kern' Horizontal Kerning lookup 2 per glyph data 3" uni05F3 dx=30 dy=0 dh=30 dv=0 dx=0 dy=0 dh=0 dv=0
PairPos2: "'kern' Horizontal Kerning lookup 2 per glyph data 3" uni05D3 dx=10 dy=0 dh=10 dv=0 dx=0 dy=0 dh=0 dv=0
PairPos2: "'kern' Horizontal Kerning lookup 2 per glyph data 3" quotesinglbase dx=-50 dy=0 dh=-50 dv=0 dx=0 dy=0 dh=0 dv=0
PairPos2: "'kern' Horizontal Kerning lookup 2 per glyph data 3" quotedblbase dx=-50 dy=0 dh=-50 dv=0 dx=0 dy=0 dh=0 dv=0
PairPos2: "'kern' Horizontal Kerning lookup 2 per glyph data 3" period dx=-50 dy=0 dh=-50 dv=0 dx=0 dy=0 dh=0 dv=0
PairPos2: "'kern' Horizontal Kerning lookup 2 per glyph data 3" ellipsis dx=-50 dy=0 dh=-50 dv=0 dx=0 dy=0 dh=0 dv=0
PairPos2: "'kern' Horizontal Kerning lookup 2 per glyph data 3" comma dx=-50 dy=0 dh=-50 dv=0 dx=0 dy=0 dh=0 dv=0
PairPos2: "'kern' Horizontal Kerning lookup 2 per glyph data 3" uni00AD dx=-20 dy=0 dh=-20 dv=0 dx=0 dy=0 dh=0 dv=0
PairPos2: "'kern' Horizontal Kerning lookup 2 per glyph data 3" hyphen dx=-20 dy=0 dh=-20 dv=0 dx=0 dy=0 dh=0 dv=0
PairPos2: "'kern' Horizontal Kerning lookup 2 per glyph data 3" endash dx=-20 dy=0 dh=-20 dv=0 dx=0 dy=0 dh=0 dv=0
PairPos2: "'kern' Horizontal Kerning lookup 2 per glyph data 3" emdash dx=-20 dy=0 dh=-20 dv=0 dx=0 dy=0 dh=0 dv=0
PairPos2: "'kern' Horizontal Kerning lookup 2 per glyph data 2" uni05DA dx=10 dy=0 dh=10 dv=0 dx=0 dy=0 dh=0 dv=0
EndChar
StartChar: S
Encoding: 83 83 91
Width: 528
Flags: W
LayerCount: 2
Fore
SplineSet
167 2.5 m 128,-1,1
 119 17 119 17 81 43 c 1,2,-1
 81 164 l 1,3,4
 107 97 107 97 160.5 62.5 c 128,-1,5
 214 28 214 28 272 28 c 256,6,7
 330 28 330 28 369 66.5 c 128,-1,8
 408 105 408 105 408 162 c 0,9,10
 408 200 408 200 392.5 227 c 128,-1,11
 377 254 377 254 343 277.5 c 128,-1,12
 309 301 309 301 247 330 c 0,13,14
 160 370 160 370 120.5 413.5 c 128,-1,15
 81 457 81 457 81 519 c 0,16,17
 81 572 81 572 106.5 613.5 c 128,-1,18
 132 655 132 655 175.5 677.5 c 128,-1,19
 219 700 219 700 271 700 c 0,20,21
 316 700 316 700 359 687.5 c 128,-1,22
 402 675 402 675 439 652 c 1,23,-1
 439 544 l 1,24,25
 415 599 415 599 366.5 629.5 c 128,-1,26
 318 660 318 660 268 660 c 0,27,28
 211 660 211 660 176 623 c 128,-1,29
 141 586 141 586 141 535 c 0,30,31
 141 498 141 498 162 471.5 c 128,-1,32
 183 445 183 445 213.5 427 c 128,-1,33
 244 409 244 409 299 383 c 0,34,35
 355 356 355 356 391 333 c 128,-1,36
 427 310 427 310 451 273 c 128,-1,37
 475 236 475 236 475 183 c 0,38,39
 475 123 475 123 446.5 79 c 128,-1,40
 418 35 418 35 370.5 11.5 c 128,-1,41
 323 -12 323 -12 267 -12 c 0,42,0
 215 -12 215 -12 167 2.5 c 128,-1,1
EndSplineSet
Validated: 1
PairPos2: "'kern' Horizontal Kerning lookup 2 per glyph data 3" uni05D6 dx=10 dy=0 dh=10 dv=0 dx=0 dy=0 dh=0 dv=0
PairPos2: "'kern' Horizontal Kerning lookup 2 per glyph data 3" uni05E9 dx=10 dy=0 dh=10 dv=0 dx=0 dy=0 dh=0 dv=0
PairPos2: "'kern' Horizontal Kerning lookup 2 per glyph data 3" question dx=10 dy=0 dh=10 dv=0 dx=0 dy=0 dh=0 dv=0
PairPos2: "'kern' Horizontal Kerning lookup 2 per glyph data 3" uni05E7 dx=10 dy=0 dh=10 dv=0 dx=0 dy=0 dh=0 dv=0
PairPos2: "'kern' Horizontal Kerning lookup 2 per glyph data 3" uni05DE dx=-10 dy=0 dh=-10 dv=0 dx=0 dy=0 dh=0 dv=0
PairPos2: "'kern' Horizontal Kerning lookup 2 per glyph data 3" uni05BE dx=20 dy=0 dh=20 dv=0 dx=0 dy=0 dh=0 dv=0
PairPos2: "'kern' Horizontal Kerning lookup 2 per glyph data 3" uni05DC dx=10 dy=0 dh=10 dv=0 dx=0 dy=0 dh=0 dv=0
PairPos2: "'kern' Horizontal Kerning lookup 2 per glyph data 3" uni05F3 dx=30 dy=0 dh=30 dv=0 dx=0 dy=0 dh=0 dv=0
PairPos2: "'kern' Horizontal Kerning lookup 2 per glyph data 3" uni05D3 dx=10 dy=0 dh=10 dv=0 dx=0 dy=0 dh=0 dv=0
PairPos2: "'kern' Horizontal Kerning lookup 2 per glyph data 3" quotesinglbase dx=-50 dy=0 dh=-50 dv=0 dx=0 dy=0 dh=0 dv=0
PairPos2: "'kern' Horizontal Kerning lookup 2 per glyph data 3" quotedblbase dx=-50 dy=0 dh=-50 dv=0 dx=0 dy=0 dh=0 dv=0
PairPos2: "'kern' Horizontal Kerning lookup 2 per glyph data 3" period dx=-50 dy=0 dh=-50 dv=0 dx=0 dy=0 dh=0 dv=0
PairPos2: "'kern' Horizontal Kerning lookup 2 per glyph data 3" ellipsis dx=-50 dy=0 dh=-50 dv=0 dx=0 dy=0 dh=0 dv=0
PairPos2: "'kern' Horizontal Kerning lookup 2 per glyph data 3" comma dx=-50 dy=0 dh=-50 dv=0 dx=0 dy=0 dh=0 dv=0
PairPos2: "'kern' Horizontal Kerning lookup 2 per glyph data 3" uni00AD dx=-20 dy=0 dh=-20 dv=0 dx=0 dy=0 dh=0 dv=0
PairPos2: "'kern' Horizontal Kerning lookup 2 per glyph data 3" hyphen dx=-20 dy=0 dh=-20 dv=0 dx=0 dy=0 dh=0 dv=0
PairPos2: "'kern' Horizontal Kerning lookup 2 per glyph data 3" endash dx=-20 dy=0 dh=-20 dv=0 dx=0 dy=0 dh=0 dv=0
PairPos2: "'kern' Horizontal Kerning lookup 2 per glyph data 3" emdash dx=-20 dy=0 dh=-20 dv=0 dx=0 dy=0 dh=0 dv=0
PairPos2: "'kern' Horizontal Kerning lookup 2 per glyph data 2" uni05DA dx=10 dy=0 dh=10 dv=0 dx=0 dy=0 dh=0 dv=0
EndChar
StartChar: T
Encoding: 84 84 98
Width: 552
Flags: W
LayerCount: 2
Fore
SplineSet
75 631 m 128,-1,1
 46 614 46 614 33 588 c 1,2,-1
 47 688 l 1,3,-1
 521 688 l 1,4,-1
 535 588 l 1,5,6
 522 614 522 614 493 631 c 128,-1,7
 464 648 464 648 420 648 c 2,8,-1
 320 648 l 1,9,-1
 320 93 l 2,10,11
 320 53 320 53 330 32 c 128,-1,12
 340 11 340 11 352 4 c 128,-1,13
 364 -3 364 -3 364 0 c 2,14,-1
 205 0 l 2,15,16
 205 -3 205 -3 217 4 c 128,-1,17
 229 11 229 11 238.5 31.5 c 128,-1,18
 248 52 248 52 248 93 c 2,19,-1
 248 648 l 1,20,-1
 148 648 l 2,21,0
 104 648 104 648 75 631 c 128,-1,1
EndSplineSet
Validated: 5
PairPos2: "'kern' Horizontal Kerning lookup 2 per glyph data 3" uni05D6 dx=10 dy=0 dh=10 dv=0 dx=0 dy=0 dh=0 dv=0
PairPos2: "'kern' Horizontal Kerning lookup 2 per glyph data 3" uni05E9 dx=10 dy=0 dh=10 dv=0 dx=0 dy=0 dh=0 dv=0
PairPos2: "'kern' Horizontal Kerning lookup 2 per glyph data 3" question dx=10 dy=0 dh=10 dv=0 dx=0 dy=0 dh=0 dv=0
PairPos2: "'kern' Horizontal Kerning lookup 2 per glyph data 3" uni05E7 dx=10 dy=0 dh=10 dv=0 dx=0 dy=0 dh=0 dv=0
PairPos2: "'kern' Horizontal Kerning lookup 2 per glyph data 3" uni05DE dx=-10 dy=0 dh=-10 dv=0 dx=0 dy=0 dh=0 dv=0
PairPos2: "'kern' Horizontal Kerning lookup 2 per glyph data 3" uni05BE dx=20 dy=0 dh=20 dv=0 dx=0 dy=0 dh=0 dv=0
PairPos2: "'kern' Horizontal Kerning lookup 2 per glyph data 3" uni05DC dx=10 dy=0 dh=10 dv=0 dx=0 dy=0 dh=0 dv=0
PairPos2: "'kern' Horizontal Kerning lookup 2 per glyph data 3" uni05F3 dx=30 dy=0 dh=30 dv=0 dx=0 dy=0 dh=0 dv=0
PairPos2: "'kern' Horizontal Kerning lookup 2 per glyph data 3" uni05D3 dx=10 dy=0 dh=10 dv=0 dx=0 dy=0 dh=0 dv=0
PairPos2: "'kern' Horizontal Kerning lookup 2 per glyph data 3" quotesinglbase dx=-50 dy=0 dh=-50 dv=0 dx=0 dy=0 dh=0 dv=0
PairPos2: "'kern' Horizontal Kerning lookup 2 per glyph data 3" quotedblbase dx=-50 dy=0 dh=-50 dv=0 dx=0 dy=0 dh=0 dv=0
PairPos2: "'kern' Horizontal Kerning lookup 2 per glyph data 3" period dx=-50 dy=0 dh=-50 dv=0 dx=0 dy=0 dh=0 dv=0
PairPos2: "'kern' Horizontal Kerning lookup 2 per glyph data 3" ellipsis dx=-50 dy=0 dh=-50 dv=0 dx=0 dy=0 dh=0 dv=0
PairPos2: "'kern' Horizontal Kerning lookup 2 per glyph data 3" comma dx=-50 dy=0 dh=-50 dv=0 dx=0 dy=0 dh=0 dv=0
PairPos2: "'kern' Horizontal Kerning lookup 2 per glyph data 3" uni00AD dx=-20 dy=0 dh=-20 dv=0 dx=0 dy=0 dh=0 dv=0
PairPos2: "'kern' Horizontal Kerning lookup 2 per glyph data 3" hyphen dx=-20 dy=0 dh=-20 dv=0 dx=0 dy=0 dh=0 dv=0
PairPos2: "'kern' Horizontal Kerning lookup 2 per glyph data 3" endash dx=-20 dy=0 dh=-20 dv=0 dx=0 dy=0 dh=0 dv=0
PairPos2: "'kern' Horizontal Kerning lookup 2 per glyph data 3" emdash dx=-20 dy=0 dh=-20 dv=0 dx=0 dy=0 dh=0 dv=0
PairPos2: "'kern' Horizontal Kerning lookup 2 per glyph data 2" uni05DA dx=10 dy=0 dh=10 dv=0 dx=0 dy=0 dh=0 dv=0
EndChar
StartChar: U
Encoding: 85 85 103
Width: 712
Flags: W
LayerCount: 2
Fore
SplineSet
618 239 m 2,0,1
 618 160 618 160 588 103.5 c 128,-1,2
 558 47 558 47 503.5 17.5 c 128,-1,3
 449 -12 449 -12 377 -12 c 0,4,5
 258 -12 258 -12 193 54 c 128,-1,6
 128 120 128 120 128 237 c 2,7,-1
 128 595 l 2,8,9
 128 635 128 635 118.5 655.5 c 128,-1,10
 109 676 109 676 97.5 683 c 128,-1,11
 86 690 86 690 86 688 c 2,12,-1
 242 688 l 2,13,14
 242 690 242 690 230.5 683 c 128,-1,15
 219 676 219 676 209.5 656 c 128,-1,16
 200 636 200 636 200 598 c 2,17,-1
 200 237 l 2,18,19
 200 140 200 140 246.5 87 c 128,-1,20
 293 34 293 34 383 34 c 0,21,22
 466 34 466 34 514 84.5 c 128,-1,23
 562 135 562 135 562 234 c 2,24,-1
 562 595 l 2,25,26
 562 635 562 635 552 655.5 c 128,-1,27
 542 676 542 676 530 683 c 128,-1,28
 518 690 518 690 518 688 c 2,29,-1
 662 688 l 2,30,31
 662 690 662 690 650 683 c 128,-1,32
 638 676 638 676 628 655.5 c 128,-1,33
 618 635 618 635 618 595 c 2,34,-1
 618 239 l 2,0,1
EndSplineSet
Validated: 5
PairPos2: "'kern' Horizontal Kerning lookup 2 per glyph data 3" uni05D6 dx=10 dy=0 dh=10 dv=0 dx=0 dy=0 dh=0 dv=0
PairPos2: "'kern' Horizontal Kerning lookup 2 per glyph data 3" uni05E9 dx=10 dy=0 dh=10 dv=0 dx=0 dy=0 dh=0 dv=0
PairPos2: "'kern' Horizontal Kerning lookup 2 per glyph data 3" question dx=10 dy=0 dh=10 dv=0 dx=0 dy=0 dh=0 dv=0
PairPos2: "'kern' Horizontal Kerning lookup 2 per glyph data 3" uni05E7 dx=10 dy=0 dh=10 dv=0 dx=0 dy=0 dh=0 dv=0
PairPos2: "'kern' Horizontal Kerning lookup 2 per glyph data 3" uni05DE dx=-10 dy=0 dh=-10 dv=0 dx=0 dy=0 dh=0 dv=0
PairPos2: "'kern' Horizontal Kerning lookup 2 per glyph data 3" uni05BE dx=20 dy=0 dh=20 dv=0 dx=0 dy=0 dh=0 dv=0
PairPos2: "'kern' Horizontal Kerning lookup 2 per glyph data 3" uni05DC dx=10 dy=0 dh=10 dv=0 dx=0 dy=0 dh=0 dv=0
PairPos2: "'kern' Horizontal Kerning lookup 2 per glyph data 3" uni05F3 dx=30 dy=0 dh=30 dv=0 dx=0 dy=0 dh=0 dv=0
PairPos2: "'kern' Horizontal Kerning lookup 2 per glyph data 3" uni05D3 dx=10 dy=0 dh=10 dv=0 dx=0 dy=0 dh=0 dv=0
PairPos2: "'kern' Horizontal Kerning lookup 2 per glyph data 3" quotesinglbase dx=-50 dy=0 dh=-50 dv=0 dx=0 dy=0 dh=0 dv=0
PairPos2: "'kern' Horizontal Kerning lookup 2 per glyph data 3" quotedblbase dx=-50 dy=0 dh=-50 dv=0 dx=0 dy=0 dh=0 dv=0
PairPos2: "'kern' Horizontal Kerning lookup 2 per glyph data 3" period dx=-50 dy=0 dh=-50 dv=0 dx=0 dy=0 dh=0 dv=0
PairPos2: "'kern' Horizontal Kerning lookup 2 per glyph data 3" ellipsis dx=-50 dy=0 dh=-50 dv=0 dx=0 dy=0 dh=0 dv=0
PairPos2: "'kern' Horizontal Kerning lookup 2 per glyph data 3" comma dx=-50 dy=0 dh=-50 dv=0 dx=0 dy=0 dh=0 dv=0
PairPos2: "'kern' Horizontal Kerning lookup 2 per glyph data 3" uni00AD dx=-20 dy=0 dh=-20 dv=0 dx=0 dy=0 dh=0 dv=0
PairPos2: "'kern' Horizontal Kerning lookup 2 per glyph data 3" hyphen dx=-20 dy=0 dh=-20 dv=0 dx=0 dy=0 dh=0 dv=0
PairPos2: "'kern' Horizontal Kerning lookup 2 per glyph data 3" endash dx=-20 dy=0 dh=-20 dv=0 dx=0 dy=0 dh=0 dv=0
PairPos2: "'kern' Horizontal Kerning lookup 2 per glyph data 3" emdash dx=-20 dy=0 dh=-20 dv=0 dx=0 dy=0 dh=0 dv=0
PairPos2: "'kern' Horizontal Kerning lookup 2 per glyph data 2" uni05DA dx=10 dy=0 dh=10 dv=0 dx=0 dy=0 dh=0 dv=0
EndChar
StartChar: V
Encoding: 86 86 114
Width: 628
Flags: W
LayerCount: 2
Fore
SplineSet
523 669.5 m 128,-1,1
 512 684 512 684 489 688 c 1,2,-1
 657 688 l 2,3,4
 644 686 644 686 622 665 c 128,-1,5
 600 644 600 644 576 587 c 2,6,-1
 323 -24 l 1,7,-1
 66 590 l 2,8,9
 44 643 44 643 22.5 663.5 c 128,-1,10
 1 684 1 684 -13 688 c 1,11,-1
 154 688 l 1,12,13
 127 681 127 681 127 653 c 0,14,15
 127 638 127 638 134 621 c 128,-1,16
 141 604 141 604 142 601 c 2,17,-1
 336 126 l 1,18,-1
 524 588 l 2,19,20
 534 611 534 611 534 635 c 0,21,0
 534 655 534 655 523 669.5 c 128,-1,1
EndSplineSet
Validated: 1
PairPos2: "'kern' Horizontal Kerning lookup 2 per glyph data 3" uni05D6 dx=10 dy=0 dh=10 dv=0 dx=0 dy=0 dh=0 dv=0
PairPos2: "'kern' Horizontal Kerning lookup 2 per glyph data 3" uni05E9 dx=10 dy=0 dh=10 dv=0 dx=0 dy=0 dh=0 dv=0
PairPos2: "'kern' Horizontal Kerning lookup 2 per glyph data 3" question dx=10 dy=0 dh=10 dv=0 dx=0 dy=0 dh=0 dv=0
PairPos2: "'kern' Horizontal Kerning lookup 2 per glyph data 3" uni05E7 dx=10 dy=0 dh=10 dv=0 dx=0 dy=0 dh=0 dv=0
PairPos2: "'kern' Horizontal Kerning lookup 2 per glyph data 3" uni05DE dx=-10 dy=0 dh=-10 dv=0 dx=0 dy=0 dh=0 dv=0
PairPos2: "'kern' Horizontal Kerning lookup 2 per glyph data 3" uni05BE dx=20 dy=0 dh=20 dv=0 dx=0 dy=0 dh=0 dv=0
PairPos2: "'kern' Horizontal Kerning lookup 2 per glyph data 3" uni05DC dx=10 dy=0 dh=10 dv=0 dx=0 dy=0 dh=0 dv=0
PairPos2: "'kern' Horizontal Kerning lookup 2 per glyph data 3" uni05F3 dx=30 dy=0 dh=30 dv=0 dx=0 dy=0 dh=0 dv=0
PairPos2: "'kern' Horizontal Kerning lookup 2 per glyph data 3" uni05D3 dx=10 dy=0 dh=10 dv=0 dx=0 dy=0 dh=0 dv=0
PairPos2: "'kern' Horizontal Kerning lookup 2 per glyph data 3" quotesinglbase dx=-50 dy=0 dh=-50 dv=0 dx=0 dy=0 dh=0 dv=0
PairPos2: "'kern' Horizontal Kerning lookup 2 per glyph data 3" quotedblbase dx=-50 dy=0 dh=-50 dv=0 dx=0 dy=0 dh=0 dv=0
PairPos2: "'kern' Horizontal Kerning lookup 2 per glyph data 3" period dx=-50 dy=0 dh=-50 dv=0 dx=0 dy=0 dh=0 dv=0
PairPos2: "'kern' Horizontal Kerning lookup 2 per glyph data 3" ellipsis dx=-50 dy=0 dh=-50 dv=0 dx=0 dy=0 dh=0 dv=0
PairPos2: "'kern' Horizontal Kerning lookup 2 per glyph data 3" comma dx=-50 dy=0 dh=-50 dv=0 dx=0 dy=0 dh=0 dv=0
PairPos2: "'kern' Horizontal Kerning lookup 2 per glyph data 3" uni00AD dx=-20 dy=0 dh=-20 dv=0 dx=0 dy=0 dh=0 dv=0
PairPos2: "'kern' Horizontal Kerning lookup 2 per glyph data 3" hyphen dx=-20 dy=0 dh=-20 dv=0 dx=0 dy=0 dh=0 dv=0
PairPos2: "'kern' Horizontal Kerning lookup 2 per glyph data 3" endash dx=-20 dy=0 dh=-20 dv=0 dx=0 dy=0 dh=0 dv=0
PairPos2: "'kern' Horizontal Kerning lookup 2 per glyph data 3" emdash dx=-20 dy=0 dh=-20 dv=0 dx=0 dy=0 dh=0 dv=0
PairPos2: "'kern' Horizontal Kerning lookup 2 per glyph data 2" uni05DA dx=10 dy=0 dh=10 dv=0 dx=0 dy=0 dh=0 dv=0
EndChar
StartChar: W
Encoding: 87 87 115
Width: 960
Flags: W
LayerCount: 2
Fore
SplineSet
850 644 m 0,1,2
 850 685 850 685 814 688 c 2,3,-1
 969 688 l 2,4,5
 954 685 954 685 930.5 665 c 128,-1,6
 907 645 907 645 887 587 c 2,7,-1
 671 -24 l 1,8,-1
 478 530 l 1,9,-1
 279 -24 l 1,10,-1
 82 590 l 2,11,12
 56 674 56 674 6 688 c 1,13,-1
 172 688 l 1,14,15
 144 683 144 683 144 655 c 0,16,17
 144 641 144 641 156 605 c 2,18,-1
 167 570 l 1,19,-1
 293 153 l 1,20,-1
 496 707 l 1,21,-1
 689 157 l 1,22,-1
 838 588 l 2,23,0
 850 624 850 624 850 644 c 0,1,2
EndSplineSet
Validated: 1
PairPos2: "'kern' Horizontal Kerning lookup 2 per glyph data 3" uni05D6 dx=10 dy=0 dh=10 dv=0 dx=0 dy=0 dh=0 dv=0
PairPos2: "'kern' Horizontal Kerning lookup 2 per glyph data 3" uni05E9 dx=10 dy=0 dh=10 dv=0 dx=0 dy=0 dh=0 dv=0
PairPos2: "'kern' Horizontal Kerning lookup 2 per glyph data 3" question dx=10 dy=0 dh=10 dv=0 dx=0 dy=0 dh=0 dv=0
PairPos2: "'kern' Horizontal Kerning lookup 2 per glyph data 3" uni05E7 dx=10 dy=0 dh=10 dv=0 dx=0 dy=0 dh=0 dv=0
PairPos2: "'kern' Horizontal Kerning lookup 2 per glyph data 3" uni05DE dx=-10 dy=0 dh=-10 dv=0 dx=0 dy=0 dh=0 dv=0
PairPos2: "'kern' Horizontal Kerning lookup 2 per glyph data 3" uni05BE dx=20 dy=0 dh=20 dv=0 dx=0 dy=0 dh=0 dv=0
PairPos2: "'kern' Horizontal Kerning lookup 2 per glyph data 3" uni05DC dx=10 dy=0 dh=10 dv=0 dx=0 dy=0 dh=0 dv=0
PairPos2: "'kern' Horizontal Kerning lookup 2 per glyph data 3" uni05F3 dx=30 dy=0 dh=30 dv=0 dx=0 dy=0 dh=0 dv=0
PairPos2: "'kern' Horizontal Kerning lookup 2 per glyph data 3" uni05D3 dx=10 dy=0 dh=10 dv=0 dx=0 dy=0 dh=0 dv=0
PairPos2: "'kern' Horizontal Kerning lookup 2 per glyph data 3" quotesinglbase dx=-50 dy=0 dh=-50 dv=0 dx=0 dy=0 dh=0 dv=0
PairPos2: "'kern' Horizontal Kerning lookup 2 per glyph data 3" quotedblbase dx=-50 dy=0 dh=-50 dv=0 dx=0 dy=0 dh=0 dv=0
PairPos2: "'kern' Horizontal Kerning lookup 2 per glyph data 3" period dx=-50 dy=0 dh=-50 dv=0 dx=0 dy=0 dh=0 dv=0
PairPos2: "'kern' Horizontal Kerning lookup 2 per glyph data 3" ellipsis dx=-50 dy=0 dh=-50 dv=0 dx=0 dy=0 dh=0 dv=0
PairPos2: "'kern' Horizontal Kerning lookup 2 per glyph data 3" comma dx=-50 dy=0 dh=-50 dv=0 dx=0 dy=0 dh=0 dv=0
PairPos2: "'kern' Horizontal Kerning lookup 2 per glyph data 3" uni00AD dx=-20 dy=0 dh=-20 dv=0 dx=0 dy=0 dh=0 dv=0
PairPos2: "'kern' Horizontal Kerning lookup 2 per glyph data 3" hyphen dx=-20 dy=0 dh=-20 dv=0 dx=0 dy=0 dh=0 dv=0
PairPos2: "'kern' Horizontal Kerning lookup 2 per glyph data 3" endash dx=-20 dy=0 dh=-20 dv=0 dx=0 dy=0 dh=0 dv=0
PairPos2: "'kern' Horizontal Kerning lookup 2 per glyph data 3" emdash dx=-20 dy=0 dh=-20 dv=0 dx=0 dy=0 dh=0 dv=0
PairPos2: "'kern' Horizontal Kerning lookup 2 per glyph data 2" uni05DA dx=10 dy=0 dh=10 dv=0 dx=0 dy=0 dh=0 dv=0
EndChar
StartChar: X
Encoding: 88 88 120
Width: 716
Flags: W
LayerCount: 2
Fore
SplineSet
531 18 m 0,1,2
 531 36 531 36 516 58.5 c 128,-1,3
 501 81 501 81 499 84 c 2,4,-1
 359 300 l 1,5,-1
 202 90 l 2,6,7
 187 70 187 70 178.5 54.5 c 128,-1,8
 170 39 170 39 170 26 c 0,9,10
 170 4 170 4 202 0 c 1,11,-1
 52 0 l 2,12,13
 52 -2 52 -2 64 5 c 128,-1,14
 76 12 76 12 98.5 33.5 c 128,-1,15
 121 55 121 55 153 98 c 2,16,-1
 335 339 l 1,17,-1
 174 588 l 2,18,19
 146 631 146 631 124 653 c 128,-1,20
 102 675 102 675 88 682.5 c 128,-1,21
 74 690 74 690 74 688 c 2,22,-1
 241 688 l 1,23,24
 222 684 222 684 222 669 c 256,25,26
 222 654 222 654 244 620 c 2,27,-1
 383 404 l 1,28,-1
 528 596 l 2,29,30
 559 637 559 637 559 662 c 0,31,32
 559 685 559 685 529 688 c 2,33,-1
 678 688 l 2,34,35
 678 689 678 689 665.5 683.5 c 128,-1,36
 653 678 653 678 633.5 660.5 c 128,-1,37
 614 643 614 643 589 609 c 2,38,-1
 407 366 l 1,39,-1
 568 116 l 2,40,41
 600 66 600 66 625 40.5 c 128,-1,42
 650 15 650 15 665 6.5 c 128,-1,43
 680 -2 680 -2 680 0 c 2,44,-1
 513 0 l 2,45,0
 531 3 531 3 531 18 c 0,1,2
EndSplineSet
Validated: 5
PairPos2: "'kern' Horizontal Kerning lookup 2 per glyph data 3" uni05D6 dx=10 dy=0 dh=10 dv=0 dx=0 dy=0 dh=0 dv=0
PairPos2: "'kern' Horizontal Kerning lookup 2 per glyph data 3" uni05E9 dx=10 dy=0 dh=10 dv=0 dx=0 dy=0 dh=0 dv=0
PairPos2: "'kern' Horizontal Kerning lookup 2 per glyph data 3" question dx=10 dy=0 dh=10 dv=0 dx=0 dy=0 dh=0 dv=0
PairPos2: "'kern' Horizontal Kerning lookup 2 per glyph data 3" uni05E7 dx=10 dy=0 dh=10 dv=0 dx=0 dy=0 dh=0 dv=0
PairPos2: "'kern' Horizontal Kerning lookup 2 per glyph data 3" uni05DE dx=-10 dy=0 dh=-10 dv=0 dx=0 dy=0 dh=0 dv=0
PairPos2: "'kern' Horizontal Kerning lookup 2 per glyph data 3" uni05BE dx=20 dy=0 dh=20 dv=0 dx=0 dy=0 dh=0 dv=0
PairPos2: "'kern' Horizontal Kerning lookup 2 per glyph data 3" uni05DC dx=10 dy=0 dh=10 dv=0 dx=0 dy=0 dh=0 dv=0
PairPos2: "'kern' Horizontal Kerning lookup 2 per glyph data 3" uni05F3 dx=30 dy=0 dh=30 dv=0 dx=0 dy=0 dh=0 dv=0
PairPos2: "'kern' Horizontal Kerning lookup 2 per glyph data 3" uni05D3 dx=10 dy=0 dh=10 dv=0 dx=0 dy=0 dh=0 dv=0
PairPos2: "'kern' Horizontal Kerning lookup 2 per glyph data 3" quotesinglbase dx=-50 dy=0 dh=-50 dv=0 dx=0 dy=0 dh=0 dv=0
PairPos2: "'kern' Horizontal Kerning lookup 2 per glyph data 3" quotedblbase dx=-50 dy=0 dh=-50 dv=0 dx=0 dy=0 dh=0 dv=0
PairPos2: "'kern' Horizontal Kerning lookup 2 per glyph data 3" period dx=-50 dy=0 dh=-50 dv=0 dx=0 dy=0 dh=0 dv=0
PairPos2: "'kern' Horizontal Kerning lookup 2 per glyph data 3" ellipsis dx=-50 dy=0 dh=-50 dv=0 dx=0 dy=0 dh=0 dv=0
PairPos2: "'kern' Horizontal Kerning lookup 2 per glyph data 3" comma dx=-50 dy=0 dh=-50 dv=0 dx=0 dy=0 dh=0 dv=0
PairPos2: "'kern' Horizontal Kerning lookup 2 per glyph data 3" uni00AD dx=-20 dy=0 dh=-20 dv=0 dx=0 dy=0 dh=0 dv=0
PairPos2: "'kern' Horizontal Kerning lookup 2 per glyph data 3" hyphen dx=-20 dy=0 dh=-20 dv=0 dx=0 dy=0 dh=0 dv=0
PairPos2: "'kern' Horizontal Kerning lookup 2 per glyph data 3" endash dx=-20 dy=0 dh=-20 dv=0 dx=0 dy=0 dh=0 dv=0
PairPos2: "'kern' Horizontal Kerning lookup 2 per glyph data 3" emdash dx=-20 dy=0 dh=-20 dv=0 dx=0 dy=0 dh=0 dv=0
PairPos2: "'kern' Horizontal Kerning lookup 2 per glyph data 2" uni05DA dx=10 dy=0 dh=10 dv=0 dx=0 dy=0 dh=0 dv=0
EndChar
StartChar: Y
Encoding: 89 89 121
Width: 560
Flags: W
LayerCount: 2
Fore
SplineSet
582 688 m 2,0,1
 572 686 572 686 550 666 c 128,-1,2
 528 646 528 646 497 592 c 2,3,-1
 324 295 l 1,4,-1
 324 93 l 2,5,6
 324 42 324 42 338 22 c 128,-1,7
 352 2 352 2 364 0 c 2,8,-1
 212 0 l 2,9,10
 224 2 224 2 238 21.5 c 128,-1,11
 252 41 252 41 252 93 c 2,12,-1
 252 296 l 1,13,-1
 81 593 l 2,14,15
 51 645 51 645 29 664.5 c 128,-1,16
 7 684 7 684 -6 688 c 1,17,-1
 162 688 l 1,18,19
 137 683 137 683 137 656 c 0,20,21
 137 647 137 647 143 634.5 c 128,-1,22
 149 622 149 622 162 599 c 2,23,-1
 307 344 l 1,24,-1
 452 595 l 2,25,26
 469 623 469 623 469 652 c 0,27,28
 469 671 469 671 457.5 678.5 c 128,-1,29
 446 686 446 686 435 688 c 2,30,-1
 582 688 l 2,0,1
EndSplineSet
Validated: 1
PairPos2: "'kern' Horizontal Kerning lookup 2 per glyph data 3" uni05D6 dx=10 dy=0 dh=10 dv=0 dx=0 dy=0 dh=0 dv=0
PairPos2: "'kern' Horizontal Kerning lookup 2 per glyph data 3" uni05E9 dx=10 dy=0 dh=10 dv=0 dx=0 dy=0 dh=0 dv=0
PairPos2: "'kern' Horizontal Kerning lookup 2 per glyph data 3" question dx=10 dy=0 dh=10 dv=0 dx=0 dy=0 dh=0 dv=0
PairPos2: "'kern' Horizontal Kerning lookup 2 per glyph data 3" uni05E7 dx=10 dy=0 dh=10 dv=0 dx=0 dy=0 dh=0 dv=0
PairPos2: "'kern' Horizontal Kerning lookup 2 per glyph data 3" uni05DE dx=-10 dy=0 dh=-10 dv=0 dx=0 dy=0 dh=0 dv=0
PairPos2: "'kern' Horizontal Kerning lookup 2 per glyph data 3" uni05BE dx=20 dy=0 dh=20 dv=0 dx=0 dy=0 dh=0 dv=0
PairPos2: "'kern' Horizontal Kerning lookup 2 per glyph data 3" uni05DC dx=10 dy=0 dh=10 dv=0 dx=0 dy=0 dh=0 dv=0
PairPos2: "'kern' Horizontal Kerning lookup 2 per glyph data 3" uni05F3 dx=30 dy=0 dh=30 dv=0 dx=0 dy=0 dh=0 dv=0
PairPos2: "'kern' Horizontal Kerning lookup 2 per glyph data 3" uni05D3 dx=10 dy=0 dh=10 dv=0 dx=0 dy=0 dh=0 dv=0
PairPos2: "'kern' Horizontal Kerning lookup 2 per glyph data 3" quotesinglbase dx=-50 dy=0 dh=-50 dv=0 dx=0 dy=0 dh=0 dv=0
PairPos2: "'kern' Horizontal Kerning lookup 2 per glyph data 3" quotedblbase dx=-50 dy=0 dh=-50 dv=0 dx=0 dy=0 dh=0 dv=0
PairPos2: "'kern' Horizontal Kerning lookup 2 per glyph data 3" period dx=-50 dy=0 dh=-50 dv=0 dx=0 dy=0 dh=0 dv=0
PairPos2: "'kern' Horizontal Kerning lookup 2 per glyph data 3" ellipsis dx=-50 dy=0 dh=-50 dv=0 dx=0 dy=0 dh=0 dv=0
PairPos2: "'kern' Horizontal Kerning lookup 2 per glyph data 3" comma dx=-50 dy=0 dh=-50 dv=0 dx=0 dy=0 dh=0 dv=0
PairPos2: "'kern' Horizontal Kerning lookup 2 per glyph data 3" uni00AD dx=-20 dy=0 dh=-20 dv=0 dx=0 dy=0 dh=0 dv=0
PairPos2: "'kern' Horizontal Kerning lookup 2 per glyph data 3" hyphen dx=-20 dy=0 dh=-20 dv=0 dx=0 dy=0 dh=0 dv=0
PairPos2: "'kern' Horizontal Kerning lookup 2 per glyph data 3" endash dx=-20 dy=0 dh=-20 dv=0 dx=0 dy=0 dh=0 dv=0
PairPos2: "'kern' Horizontal Kerning lookup 2 per glyph data 3" emdash dx=-20 dy=0 dh=-20 dv=0 dx=0 dy=0 dh=0 dv=0
PairPos2: "'kern' Horizontal Kerning lookup 2 per glyph data 2" uni05DA dx=10 dy=0 dh=10 dv=0 dx=0 dy=0 dh=0 dv=0
EndChar
StartChar: Z
Encoding: 90 90 125
Width: 652
Flags: W
LayerCount: 2
Fore
SplineSet
80 588 m 1,1,-1
 80 688 l 1,2,-1
 588 688 l 1,3,-1
 172 40 l 1,4,-1
 480 40 l 2,5,6
 525 40 525 40 557.5 58.5 c 128,-1,7
 590 77 590 77 604 106 c 1,8,-1
 586 0 l 1,9,-1
 58 0 l 1,10,-1
 475 648 l 1,11,-1
 188 648 l 2,12,0
 98 648 98 648 80 588 c 1,1,-1
EndSplineSet
Validated: 1
PairPos2: "'kern' Horizontal Kerning lookup 2 per glyph data 3" uni05D6 dx=10 dy=0 dh=10 dv=0 dx=0 dy=0 dh=0 dv=0
PairPos2: "'kern' Horizontal Kerning lookup 2 per glyph data 3" uni05E9 dx=10 dy=0 dh=10 dv=0 dx=0 dy=0 dh=0 dv=0
PairPos2: "'kern' Horizontal Kerning lookup 2 per glyph data 3" question dx=10 dy=0 dh=10 dv=0 dx=0 dy=0 dh=0 dv=0
PairPos2: "'kern' Horizontal Kerning lookup 2 per glyph data 3" uni05E7 dx=10 dy=0 dh=10 dv=0 dx=0 dy=0 dh=0 dv=0
PairPos2: "'kern' Horizontal Kerning lookup 2 per glyph data 3" uni05DE dx=-10 dy=0 dh=-10 dv=0 dx=0 dy=0 dh=0 dv=0
PairPos2: "'kern' Horizontal Kerning lookup 2 per glyph data 3" uni05BE dx=20 dy=0 dh=20 dv=0 dx=0 dy=0 dh=0 dv=0
PairPos2: "'kern' Horizontal Kerning lookup 2 per glyph data 3" uni05DC dx=10 dy=0 dh=10 dv=0 dx=0 dy=0 dh=0 dv=0
PairPos2: "'kern' Horizontal Kerning lookup 2 per glyph data 3" uni05F3 dx=30 dy=0 dh=30 dv=0 dx=0 dy=0 dh=0 dv=0
PairPos2: "'kern' Horizontal Kerning lookup 2 per glyph data 3" uni05D3 dx=10 dy=0 dh=10 dv=0 dx=0 dy=0 dh=0 dv=0
PairPos2: "'kern' Horizontal Kerning lookup 2 per glyph data 3" quotesinglbase dx=-50 dy=0 dh=-50 dv=0 dx=0 dy=0 dh=0 dv=0
PairPos2: "'kern' Horizontal Kerning lookup 2 per glyph data 3" quotedblbase dx=-50 dy=0 dh=-50 dv=0 dx=0 dy=0 dh=0 dv=0
PairPos2: "'kern' Horizontal Kerning lookup 2 per glyph data 3" period dx=-50 dy=0 dh=-50 dv=0 dx=0 dy=0 dh=0 dv=0
PairPos2: "'kern' Horizontal Kerning lookup 2 per glyph data 3" ellipsis dx=-50 dy=0 dh=-50 dv=0 dx=0 dy=0 dh=0 dv=0
PairPos2: "'kern' Horizontal Kerning lookup 2 per glyph data 3" comma dx=-50 dy=0 dh=-50 dv=0 dx=0 dy=0 dh=0 dv=0
PairPos2: "'kern' Horizontal Kerning lookup 2 per glyph data 3" uni00AD dx=-20 dy=0 dh=-20 dv=0 dx=0 dy=0 dh=0 dv=0
PairPos2: "'kern' Horizontal Kerning lookup 2 per glyph data 3" hyphen dx=-20 dy=0 dh=-20 dv=0 dx=0 dy=0 dh=0 dv=0
PairPos2: "'kern' Horizontal Kerning lookup 2 per glyph data 3" endash dx=-20 dy=0 dh=-20 dv=0 dx=0 dy=0 dh=0 dv=0
PairPos2: "'kern' Horizontal Kerning lookup 2 per glyph data 3" emdash dx=-20 dy=0 dh=-20 dv=0 dx=0 dy=0 dh=0 dv=0
PairPos2: "'kern' Horizontal Kerning lookup 2 per glyph data 2" uni05DA dx=10 dy=0 dh=10 dv=0 dx=0 dy=0 dh=0 dv=0
EndChar
StartChar: backslash
Encoding: 92 92 343
Width: 464
Flags: W
LayerCount: 2
Fore
SplineSet
97 727 m 1,0,-1
 412 -29 l 1,1,-1
 364 -29 l 1,2,-1
 52 727 l 1,3,-1
 97 727 l 1,0,-1
EndSplineSet
Validated: 1
PairPos2: "'kern' Horizontal Kerning lookup 2 per glyph data 3" uni05D6 dx=10 dy=0 dh=10 dv=0 dx=0 dy=0 dh=0 dv=0
PairPos2: "'kern' Horizontal Kerning lookup 2 per glyph data 3" uni05E9 dx=10 dy=0 dh=10 dv=0 dx=0 dy=0 dh=0 dv=0
PairPos2: "'kern' Horizontal Kerning lookup 2 per glyph data 3" question dx=10 dy=0 dh=10 dv=0 dx=0 dy=0 dh=0 dv=0
PairPos2: "'kern' Horizontal Kerning lookup 2 per glyph data 3" uni05E7 dx=10 dy=0 dh=10 dv=0 dx=0 dy=0 dh=0 dv=0
PairPos2: "'kern' Horizontal Kerning lookup 2 per glyph data 3" uni05DE dx=-10 dy=0 dh=-10 dv=0 dx=0 dy=0 dh=0 dv=0
PairPos2: "'kern' Horizontal Kerning lookup 2 per glyph data 3" uni05BE dx=20 dy=0 dh=20 dv=0 dx=0 dy=0 dh=0 dv=0
PairPos2: "'kern' Horizontal Kerning lookup 2 per glyph data 3" uni05DC dx=10 dy=0 dh=10 dv=0 dx=0 dy=0 dh=0 dv=0
PairPos2: "'kern' Horizontal Kerning lookup 2 per glyph data 3" uni05F3 dx=30 dy=0 dh=30 dv=0 dx=0 dy=0 dh=0 dv=0
PairPos2: "'kern' Horizontal Kerning lookup 2 per glyph data 3" uni05D3 dx=10 dy=0 dh=10 dv=0 dx=0 dy=0 dh=0 dv=0
PairPos2: "'kern' Horizontal Kerning lookup 2 per glyph data 3" quotesinglbase dx=-50 dy=0 dh=-50 dv=0 dx=0 dy=0 dh=0 dv=0
PairPos2: "'kern' Horizontal Kerning lookup 2 per glyph data 3" quotedblbase dx=-50 dy=0 dh=-50 dv=0 dx=0 dy=0 dh=0 dv=0
PairPos2: "'kern' Horizontal Kerning lookup 2 per glyph data 3" period dx=-50 dy=0 dh=-50 dv=0 dx=0 dy=0 dh=0 dv=0
PairPos2: "'kern' Horizontal Kerning lookup 2 per glyph data 3" ellipsis dx=-50 dy=0 dh=-50 dv=0 dx=0 dy=0 dh=0 dv=0
PairPos2: "'kern' Horizontal Kerning lookup 2 per glyph data 3" comma dx=-50 dy=0 dh=-50 dv=0 dx=0 dy=0 dh=0 dv=0
PairPos2: "'kern' Horizontal Kerning lookup 2 per glyph data 3" uni00AD dx=-20 dy=0 dh=-20 dv=0 dx=0 dy=0 dh=0 dv=0
PairPos2: "'kern' Horizontal Kerning lookup 2 per glyph data 3" hyphen dx=-20 dy=0 dh=-20 dv=0 dx=0 dy=0 dh=0 dv=0
PairPos2: "'kern' Horizontal Kerning lookup 2 per glyph data 3" endash dx=-20 dy=0 dh=-20 dv=0 dx=0 dy=0 dh=0 dv=0
PairPos2: "'kern' Horizontal Kerning lookup 2 per glyph data 3" emdash dx=-20 dy=0 dh=-20 dv=0 dx=0 dy=0 dh=0 dv=0
PairPos2: "'kern' Horizontal Kerning lookup 2 per glyph data 2" uni05DA dx=10 dy=0 dh=10 dv=0 dx=0 dy=0 dh=0 dv=0
EndChar
StartChar: bracketright
Encoding: 93 93 363
Width: 368
Flags: W
LayerCount: 2
Fore
SplineSet
44 -192 m 1,0,-1
 224 -192 l 1,1,-1
 224 687 l 1,2,-1
 44 687 l 1,3,-1
 44 727 l 1,4,-1
 288 727 l 1,5,-1
 288 -232 l 1,6,-1
 44 -232 l 1,7,-1
 44 -192 l 1,0,-1
EndSplineSet
Validated: 1
PairPos2: "'kern' Horizontal Kerning lookup 2 per glyph data 3" uni05D6 dx=10 dy=0 dh=10 dv=0 dx=0 dy=0 dh=0 dv=0
PairPos2: "'kern' Horizontal Kerning lookup 2 per glyph data 3" uni05E9 dx=10 dy=0 dh=10 dv=0 dx=0 dy=0 dh=0 dv=0
PairPos2: "'kern' Horizontal Kerning lookup 2 per glyph data 3" question dx=10 dy=0 dh=10 dv=0 dx=0 dy=0 dh=0 dv=0
PairPos2: "'kern' Horizontal Kerning lookup 2 per glyph data 3" uni05E7 dx=10 dy=0 dh=10 dv=0 dx=0 dy=0 dh=0 dv=0
PairPos2: "'kern' Horizontal Kerning lookup 2 per glyph data 3" uni05DE dx=-10 dy=0 dh=-10 dv=0 dx=0 dy=0 dh=0 dv=0
PairPos2: "'kern' Horizontal Kerning lookup 2 per glyph data 3" uni05BE dx=20 dy=0 dh=20 dv=0 dx=0 dy=0 dh=0 dv=0
PairPos2: "'kern' Horizontal Kerning lookup 2 per glyph data 3" uni05DC dx=10 dy=0 dh=10 dv=0 dx=0 dy=0 dh=0 dv=0
PairPos2: "'kern' Horizontal Kerning lookup 2 per glyph data 3" uni05F3 dx=30 dy=0 dh=30 dv=0 dx=0 dy=0 dh=0 dv=0
PairPos2: "'kern' Horizontal Kerning lookup 2 per glyph data 3" uni05D3 dx=10 dy=0 dh=10 dv=0 dx=0 dy=0 dh=0 dv=0
PairPos2: "'kern' Horizontal Kerning lookup 2 per glyph data 3" quotesinglbase dx=-50 dy=0 dh=-50 dv=0 dx=0 dy=0 dh=0 dv=0
PairPos2: "'kern' Horizontal Kerning lookup 2 per glyph data 3" quotedblbase dx=-50 dy=0 dh=-50 dv=0 dx=0 dy=0 dh=0 dv=0
PairPos2: "'kern' Horizontal Kerning lookup 2 per glyph data 3" period dx=-50 dy=0 dh=-50 dv=0 dx=0 dy=0 dh=0 dv=0
PairPos2: "'kern' Horizontal Kerning lookup 2 per glyph data 3" ellipsis dx=-50 dy=0 dh=-50 dv=0 dx=0 dy=0 dh=0 dv=0
PairPos2: "'kern' Horizontal Kerning lookup 2 per glyph data 3" comma dx=-50 dy=0 dh=-50 dv=0 dx=0 dy=0 dh=0 dv=0
PairPos2: "'kern' Horizontal Kerning lookup 2 per glyph data 3" uni00AD dx=-20 dy=0 dh=-20 dv=0 dx=0 dy=0 dh=0 dv=0
PairPos2: "'kern' Horizontal Kerning lookup 2 per glyph data 3" hyphen dx=-20 dy=0 dh=-20 dv=0 dx=0 dy=0 dh=0 dv=0
PairPos2: "'kern' Horizontal Kerning lookup 2 per glyph data 3" endash dx=-20 dy=0 dh=-20 dv=0 dx=0 dy=0 dh=0 dv=0
PairPos2: "'kern' Horizontal Kerning lookup 2 per glyph data 3" emdash dx=-20 dy=0 dh=-20 dv=0 dx=0 dy=0 dh=0 dv=0
PairPos2: "'kern' Horizontal Kerning lookup 2 per glyph data 2" uni05DA dx=10 dy=0 dh=10 dv=0 dx=0 dy=0 dh=0 dv=0
EndChar
StartChar: asciicircum
Encoding: 94 94 437
Width: 560
Flags: W
LayerCount: 2
Fore
SplineSet
280 618 m 1,0,-1
 276 618 l 1,1,-1
 152 294 l 1,2,-1
 91 294 l 1,3,-1
 252 692 l 1,4,-1
 308 692 l 1,5,-1
 469 294 l 1,6,-1
 406 294 l 1,7,-1
 280 618 l 1,0,-1
EndSplineSet
Validated: 1
PairPos2: "'kern' Horizontal Kerning lookup 2 per glyph data 3" uni05D6 dx=10 dy=0 dh=10 dv=0 dx=0 dy=0 dh=0 dv=0
PairPos2: "'kern' Horizontal Kerning lookup 2 per glyph data 3" uni05E9 dx=10 dy=0 dh=10 dv=0 dx=0 dy=0 dh=0 dv=0
PairPos2: "'kern' Horizontal Kerning lookup 2 per glyph data 3" question dx=10 dy=0 dh=10 dv=0 dx=0 dy=0 dh=0 dv=0
PairPos2: "'kern' Horizontal Kerning lookup 2 per glyph data 3" uni05E7 dx=10 dy=0 dh=10 dv=0 dx=0 dy=0 dh=0 dv=0
PairPos2: "'kern' Horizontal Kerning lookup 2 per glyph data 3" uni05DE dx=-10 dy=0 dh=-10 dv=0 dx=0 dy=0 dh=0 dv=0
PairPos2: "'kern' Horizontal Kerning lookup 2 per glyph data 3" uni05BE dx=20 dy=0 dh=20 dv=0 dx=0 dy=0 dh=0 dv=0
PairPos2: "'kern' Horizontal Kerning lookup 2 per glyph data 3" uni05DC dx=10 dy=0 dh=10 dv=0 dx=0 dy=0 dh=0 dv=0
PairPos2: "'kern' Horizontal Kerning lookup 2 per glyph data 3" uni05F3 dx=30 dy=0 dh=30 dv=0 dx=0 dy=0 dh=0 dv=0
PairPos2: "'kern' Horizontal Kerning lookup 2 per glyph data 3" uni05D3 dx=10 dy=0 dh=10 dv=0 dx=0 dy=0 dh=0 dv=0
PairPos2: "'kern' Horizontal Kerning lookup 2 per glyph data 3" quotesinglbase dx=-50 dy=0 dh=-50 dv=0 dx=0 dy=0 dh=0 dv=0
PairPos2: "'kern' Horizontal Kerning lookup 2 per glyph data 3" quotedblbase dx=-50 dy=0 dh=-50 dv=0 dx=0 dy=0 dh=0 dv=0
PairPos2: "'kern' Horizontal Kerning lookup 2 per glyph data 3" period dx=-50 dy=0 dh=-50 dv=0 dx=0 dy=0 dh=0 dv=0
PairPos2: "'kern' Horizontal Kerning lookup 2 per glyph data 3" ellipsis dx=-50 dy=0 dh=-50 dv=0 dx=0 dy=0 dh=0 dv=0
PairPos2: "'kern' Horizontal Kerning lookup 2 per glyph data 3" comma dx=-50 dy=0 dh=-50 dv=0 dx=0 dy=0 dh=0 dv=0
PairPos2: "'kern' Horizontal Kerning lookup 2 per glyph data 3" uni00AD dx=-20 dy=0 dh=-20 dv=0 dx=0 dy=0 dh=0 dv=0
PairPos2: "'kern' Horizontal Kerning lookup 2 per glyph data 3" hyphen dx=-20 dy=0 dh=-20 dv=0 dx=0 dy=0 dh=0 dv=0
PairPos2: "'kern' Horizontal Kerning lookup 2 per glyph data 3" endash dx=-20 dy=0 dh=-20 dv=0 dx=0 dy=0 dh=0 dv=0
PairPos2: "'kern' Horizontal Kerning lookup 2 per glyph data 3" emdash dx=-20 dy=0 dh=-20 dv=0 dx=0 dy=0 dh=0 dv=0
PairPos2: "'kern' Horizontal Kerning lookup 2 per glyph data 2" uni05DA dx=10 dy=0 dh=10 dv=0 dx=0 dy=0 dh=0 dv=0
EndChar
StartChar: grave
Encoding: 96 96 448
Width: 304
Flags: W
LayerCount: 2
Fore
SplineSet
125 637 m 1,0,-1
 198 447 l 1,1,-1
 36 637 l 1,2,-1
 125 637 l 1,0,-1
EndSplineSet
Validated: 1
Substitution2: "'case' Case-Sensitive Forms lookup 7 subtable" grave.case
Substitution2: "'aalt' Access All Alternates lookup 0 subtable" grave.case
PairPos2: "'kern' Horizontal Kerning lookup 2 per glyph data 3" uni05D6 dx=10 dy=0 dh=10 dv=0 dx=0 dy=0 dh=0 dv=0
PairPos2: "'kern' Horizontal Kerning lookup 2 per glyph data 3" uni05E9 dx=10 dy=0 dh=10 dv=0 dx=0 dy=0 dh=0 dv=0
PairPos2: "'kern' Horizontal Kerning lookup 2 per glyph data 3" question dx=10 dy=0 dh=10 dv=0 dx=0 dy=0 dh=0 dv=0
PairPos2: "'kern' Horizontal Kerning lookup 2 per glyph data 3" uni05E7 dx=10 dy=0 dh=10 dv=0 dx=0 dy=0 dh=0 dv=0
PairPos2: "'kern' Horizontal Kerning lookup 2 per glyph data 3" uni05DE dx=-10 dy=0 dh=-10 dv=0 dx=0 dy=0 dh=0 dv=0
PairPos2: "'kern' Horizontal Kerning lookup 2 per glyph data 3" uni05BE dx=20 dy=0 dh=20 dv=0 dx=0 dy=0 dh=0 dv=0
PairPos2: "'kern' Horizontal Kerning lookup 2 per glyph data 3" uni05DC dx=10 dy=0 dh=10 dv=0 dx=0 dy=0 dh=0 dv=0
PairPos2: "'kern' Horizontal Kerning lookup 2 per glyph data 3" uni05F3 dx=30 dy=0 dh=30 dv=0 dx=0 dy=0 dh=0 dv=0
PairPos2: "'kern' Horizontal Kerning lookup 2 per glyph data 3" uni05D3 dx=10 dy=0 dh=10 dv=0 dx=0 dy=0 dh=0 dv=0
PairPos2: "'kern' Horizontal Kerning lookup 2 per glyph data 3" quotesinglbase dx=-50 dy=0 dh=-50 dv=0 dx=0 dy=0 dh=0 dv=0
PairPos2: "'kern' Horizontal Kerning lookup 2 per glyph data 3" quotedblbase dx=-50 dy=0 dh=-50 dv=0 dx=0 dy=0 dh=0 dv=0
PairPos2: "'kern' Horizontal Kerning lookup 2 per glyph data 3" period dx=-50 dy=0 dh=-50 dv=0 dx=0 dy=0 dh=0 dv=0
PairPos2: "'kern' Horizontal Kerning lookup 2 per glyph data 3" ellipsis dx=-50 dy=0 dh=-50 dv=0 dx=0 dy=0 dh=0 dv=0
PairPos2: "'kern' Horizontal Kerning lookup 2 per glyph data 3" comma dx=-50 dy=0 dh=-50 dv=0 dx=0 dy=0 dh=0 dv=0
PairPos2: "'kern' Horizontal Kerning lookup 2 per glyph data 3" uni00AD dx=-20 dy=0 dh=-20 dv=0 dx=0 dy=0 dh=0 dv=0
PairPos2: "'kern' Horizontal Kerning lookup 2 per glyph data 3" hyphen dx=-20 dy=0 dh=-20 dv=0 dx=0 dy=0 dh=0 dv=0
PairPos2: "'kern' Horizontal Kerning lookup 2 per glyph data 3" endash dx=-20 dy=0 dh=-20 dv=0 dx=0 dy=0 dh=0 dv=0
PairPos2: "'kern' Horizontal Kerning lookup 2 per glyph data 3" emdash dx=-20 dy=0 dh=-20 dv=0 dx=0 dy=0 dh=0 dv=0
PairPos2: "'kern' Horizontal Kerning lookup 2 per glyph data 2" uni05DA dx=10 dy=0 dh=10 dv=0 dx=0 dy=0 dh=0 dv=0
EndChar
StartChar: a
Encoding: 97 97 129
Width: 400
Flags: W
LayerCount: 2
Fore
SplineSet
287 5 m 128,-1,1
 265 21 265 21 262 42 c 1,2,3
 244 16 244 16 214.5 2 c 128,-1,4
 185 -12 185 -12 156 -12 c 0,5,6
 110 -12 110 -12 79 14.5 c 128,-1,7
 48 41 48 41 48 84 c 0,8,9
 48 195 48 195 256 195 c 1,10,-1
 256 206 l 2,11,12
 256 261 256 261 240 287 c 0,13,14
 218 324 218 324 168 324 c 0,15,16
 129 324 129 324 103.5 301 c 128,-1,17
 78 278 78 278 78 241 c 1,18,19
 72 251 72 251 68.5 259 c 128,-1,20
 65 267 65 267 65 281 c 0,21,22
 65 317 65 317 99 344.5 c 128,-1,23
 133 372 133 372 188 372 c 0,24,25
 266 372 266 372 299 320 c 0,26,27
 310 304 310 304 315 280 c 128,-1,28
 320 256 320 256 320 217 c 2,29,-1
 320 98 l 2,30,31
 320 67 320 67 337.5 50 c 128,-1,32
 355 33 355 33 387 33 c 2,33,-1
 400 33 l 1,34,-1
 341 -12 l 1,35,0
 309 -11 309 -11 287 5 c 128,-1,1
148 145 m 128,-1,37
 120 125 120 125 120 91 c 0,38,39
 120 63 120 63 135 47 c 128,-1,40
 150 31 150 31 175 31 c 0,41,42
 194 31 194 31 211 40 c 128,-1,43
 228 49 228 49 240 65 c 0,44,45
 256 86 256 86 256 122 c 2,46,-1
 256 165 l 1,47,36
 176 165 176 165 148 145 c 128,-1,37
EndSplineSet
Validated: 1
Substitution2: "Single Substitution lookup 11 subtable" ordfeminine
Substitution2: "'aalt' Access All Alternates lookup 0 subtable" ordfeminine
PairPos2: "'kern' Horizontal Kerning lookup 2 per glyph data 3" uni05D6 dx=10 dy=0 dh=10 dv=0 dx=0 dy=0 dh=0 dv=0
PairPos2: "'kern' Horizontal Kerning lookup 2 per glyph data 3" uni05E9 dx=10 dy=0 dh=10 dv=0 dx=0 dy=0 dh=0 dv=0
PairPos2: "'kern' Horizontal Kerning lookup 2 per glyph data 3" question dx=10 dy=0 dh=10 dv=0 dx=0 dy=0 dh=0 dv=0
PairPos2: "'kern' Horizontal Kerning lookup 2 per glyph data 3" uni05E7 dx=10 dy=0 dh=10 dv=0 dx=0 dy=0 dh=0 dv=0
PairPos2: "'kern' Horizontal Kerning lookup 2 per glyph data 3" uni05DE dx=-10 dy=0 dh=-10 dv=0 dx=0 dy=0 dh=0 dv=0
PairPos2: "'kern' Horizontal Kerning lookup 2 per glyph data 3" uni05BE dx=20 dy=0 dh=20 dv=0 dx=0 dy=0 dh=0 dv=0
PairPos2: "'kern' Horizontal Kerning lookup 2 per glyph data 3" uni05DC dx=10 dy=0 dh=10 dv=0 dx=0 dy=0 dh=0 dv=0
PairPos2: "'kern' Horizontal Kerning lookup 2 per glyph data 3" uni05F3 dx=30 dy=0 dh=30 dv=0 dx=0 dy=0 dh=0 dv=0
PairPos2: "'kern' Horizontal Kerning lookup 2 per glyph data 3" uni05D3 dx=10 dy=0 dh=10 dv=0 dx=0 dy=0 dh=0 dv=0
PairPos2: "'kern' Horizontal Kerning lookup 2 per glyph data 3" quotesinglbase dx=-50 dy=0 dh=-50 dv=0 dx=0 dy=0 dh=0 dv=0
PairPos2: "'kern' Horizontal Kerning lookup 2 per glyph data 3" quotedblbase dx=-50 dy=0 dh=-50 dv=0 dx=0 dy=0 dh=0 dv=0
PairPos2: "'kern' Horizontal Kerning lookup 2 per glyph data 3" period dx=-50 dy=0 dh=-50 dv=0 dx=0 dy=0 dh=0 dv=0
PairPos2: "'kern' Horizontal Kerning lookup 2 per glyph data 3" ellipsis dx=-50 dy=0 dh=-50 dv=0 dx=0 dy=0 dh=0 dv=0
PairPos2: "'kern' Horizontal Kerning lookup 2 per glyph data 3" comma dx=-50 dy=0 dh=-50 dv=0 dx=0 dy=0 dh=0 dv=0
PairPos2: "'kern' Horizontal Kerning lookup 2 per glyph data 3" uni00AD dx=-20 dy=0 dh=-20 dv=0 dx=0 dy=0 dh=0 dv=0
PairPos2: "'kern' Horizontal Kerning lookup 2 per glyph data 3" hyphen dx=-20 dy=0 dh=-20 dv=0 dx=0 dy=0 dh=0 dv=0
PairPos2: "'kern' Horizontal Kerning lookup 2 per glyph data 3" endash dx=-20 dy=0 dh=-20 dv=0 dx=0 dy=0 dh=0 dv=0
PairPos2: "'kern' Horizontal Kerning lookup 2 per glyph data 3" emdash dx=-20 dy=0 dh=-20 dv=0 dx=0 dy=0 dh=0 dv=0
PairPos2: "'kern' Horizontal Kerning lookup 2 per glyph data 2" uni05DA dx=10 dy=0 dh=10 dv=0 dx=0 dy=0 dh=0 dv=0
EndChar
StartChar: b
Encoding: 98 98 140
Width: 464
Flags: W
LayerCount: 2
Fore
SplineSet
66.5 672.5 m 128,-1,1
 53 688 53 688 36 688 c 2,2,-1
 30 688 l 1,3,-1
 144 740 l 1,4,-1
 144 307 l 1,5,6
 156 327 156 327 187.5 349.5 c 128,-1,7
 219 372 219 372 270 372 c 0,8,9
 314 372 314 372 349 350 c 128,-1,10
 384 328 384 328 404 289 c 128,-1,11
 424 250 424 250 424 202 c 0,12,13
 424 141 424 141 399 94 c 128,-1,14
 374 47 374 47 334 19 c 0,15,16
 289 -12 289 -12 232 -12 c 0,17,18
 192 -12 192 -12 147 5 c 0,19,20
 126 13 126 13 115 13 c 0,21,22
 98 13 98 13 80 -7 c 1,23,-1
 80 615 l 2,24,0
 80 657 80 657 66.5 672.5 c 128,-1,1
151 70 m 128,-1,26
 158 50 158 50 175 40 c 0,27,28
 200 24 200 24 239 24 c 0,29,30
 287 24 287 24 319.5 64.5 c 128,-1,31
 352 105 352 105 352 172 c 0,32,33
 352 235 352 235 322.5 281.5 c 128,-1,34
 293 328 293 328 237 328 c 0,35,36
 216 328 216 328 194 316.5 c 128,-1,37
 172 305 172 305 158 285 c 128,-1,38
 144 265 144 265 144 240 c 2,39,-1
 144 122 l 2,40,25
 144 90 144 90 151 70 c 128,-1,26
EndSplineSet
Validated: 1
PairPos2: "'kern' Horizontal Kerning lookup 2 per glyph data 3" uni05D6 dx=10 dy=0 dh=10 dv=0 dx=0 dy=0 dh=0 dv=0
PairPos2: "'kern' Horizontal Kerning lookup 2 per glyph data 3" uni05E9 dx=10 dy=0 dh=10 dv=0 dx=0 dy=0 dh=0 dv=0
PairPos2: "'kern' Horizontal Kerning lookup 2 per glyph data 3" question dx=10 dy=0 dh=10 dv=0 dx=0 dy=0 dh=0 dv=0
PairPos2: "'kern' Horizontal Kerning lookup 2 per glyph data 3" uni05E7 dx=10 dy=0 dh=10 dv=0 dx=0 dy=0 dh=0 dv=0
PairPos2: "'kern' Horizontal Kerning lookup 2 per glyph data 3" uni05DE dx=-10 dy=0 dh=-10 dv=0 dx=0 dy=0 dh=0 dv=0
PairPos2: "'kern' Horizontal Kerning lookup 2 per glyph data 3" uni05BE dx=20 dy=0 dh=20 dv=0 dx=0 dy=0 dh=0 dv=0
PairPos2: "'kern' Horizontal Kerning lookup 2 per glyph data 3" uni05DC dx=10 dy=0 dh=10 dv=0 dx=0 dy=0 dh=0 dv=0
PairPos2: "'kern' Horizontal Kerning lookup 2 per glyph data 3" uni05F3 dx=30 dy=0 dh=30 dv=0 dx=0 dy=0 dh=0 dv=0
PairPos2: "'kern' Horizontal Kerning lookup 2 per glyph data 3" uni05D3 dx=10 dy=0 dh=10 dv=0 dx=0 dy=0 dh=0 dv=0
PairPos2: "'kern' Horizontal Kerning lookup 2 per glyph data 3" quotesinglbase dx=-50 dy=0 dh=-50 dv=0 dx=0 dy=0 dh=0 dv=0
PairPos2: "'kern' Horizontal Kerning lookup 2 per glyph data 3" quotedblbase dx=-50 dy=0 dh=-50 dv=0 dx=0 dy=0 dh=0 dv=0
PairPos2: "'kern' Horizontal Kerning lookup 2 per glyph data 3" period dx=-50 dy=0 dh=-50 dv=0 dx=0 dy=0 dh=0 dv=0
PairPos2: "'kern' Horizontal Kerning lookup 2 per glyph data 3" ellipsis dx=-50 dy=0 dh=-50 dv=0 dx=0 dy=0 dh=0 dv=0
PairPos2: "'kern' Horizontal Kerning lookup 2 per glyph data 3" comma dx=-50 dy=0 dh=-50 dv=0 dx=0 dy=0 dh=0 dv=0
PairPos2: "'kern' Horizontal Kerning lookup 2 per glyph data 3" uni00AD dx=-20 dy=0 dh=-20 dv=0 dx=0 dy=0 dh=0 dv=0
PairPos2: "'kern' Horizontal Kerning lookup 2 per glyph data 3" hyphen dx=-20 dy=0 dh=-20 dv=0 dx=0 dy=0 dh=0 dv=0
PairPos2: "'kern' Horizontal Kerning lookup 2 per glyph data 3" endash dx=-20 dy=0 dh=-20 dv=0 dx=0 dy=0 dh=0 dv=0
PairPos2: "'kern' Horizontal Kerning lookup 2 per glyph data 3" emdash dx=-20 dy=0 dh=-20 dv=0 dx=0 dy=0 dh=0 dv=0
PairPos2: "'kern' Horizontal Kerning lookup 2 per glyph data 2" uni05DA dx=10 dy=0 dh=10 dv=0 dx=0 dy=0 dh=0 dv=0
EndChar
StartChar: c
Encoding: 99 99 141
Width: 400
Flags: W
LayerCount: 2
Fore
SplineSet
122.5 14 m 128,-1,1
 82 40 82 40 61 83 c 128,-1,2
 40 126 40 126 40 174 c 0,3,4
 40 224 40 224 61.5 269.5 c 128,-1,5
 83 315 83 315 124 343.5 c 128,-1,6
 165 372 165 372 221 372 c 0,7,8
 288 372 288 372 318 343 c 128,-1,9
 348 314 348 314 360 282 c 1,10,-1
 294 250 l 1,11,12
 288 286 288 286 264.5 311 c 128,-1,13
 241 336 241 336 207 336 c 0,14,15
 158 336 158 336 131 298 c 128,-1,16
 104 260 104 260 104 205 c 0,17,18
 104 166 104 166 121.5 129.5 c 128,-1,19
 139 93 139 93 171.5 70 c 128,-1,20
 204 47 204 47 248 47 c 0,21,22
 284 47 284 47 316.5 63.5 c 128,-1,23
 349 80 349 80 368 108 c 1,24,25
 357 52 357 52 316 20 c 128,-1,26
 275 -12 275 -12 217 -12 c 0,27,0
 163 -12 163 -12 122.5 14 c 128,-1,1
EndSplineSet
Validated: 1
PairPos2: "'kern' Horizontal Kerning lookup 2 per glyph data 3" uni05D6 dx=10 dy=0 dh=10 dv=0 dx=0 dy=0 dh=0 dv=0
PairPos2: "'kern' Horizontal Kerning lookup 2 per glyph data 3" uni05E9 dx=10 dy=0 dh=10 dv=0 dx=0 dy=0 dh=0 dv=0
PairPos2: "'kern' Horizontal Kerning lookup 2 per glyph data 3" question dx=10 dy=0 dh=10 dv=0 dx=0 dy=0 dh=0 dv=0
PairPos2: "'kern' Horizontal Kerning lookup 2 per glyph data 3" uni05E7 dx=10 dy=0 dh=10 dv=0 dx=0 dy=0 dh=0 dv=0
PairPos2: "'kern' Horizontal Kerning lookup 2 per glyph data 3" uni05DE dx=-10 dy=0 dh=-10 dv=0 dx=0 dy=0 dh=0 dv=0
PairPos2: "'kern' Horizontal Kerning lookup 2 per glyph data 3" uni05BE dx=20 dy=0 dh=20 dv=0 dx=0 dy=0 dh=0 dv=0
PairPos2: "'kern' Horizontal Kerning lookup 2 per glyph data 3" uni05DC dx=10 dy=0 dh=10 dv=0 dx=0 dy=0 dh=0 dv=0
PairPos2: "'kern' Horizontal Kerning lookup 2 per glyph data 3" uni05F3 dx=30 dy=0 dh=30 dv=0 dx=0 dy=0 dh=0 dv=0
PairPos2: "'kern' Horizontal Kerning lookup 2 per glyph data 3" uni05D3 dx=10 dy=0 dh=10 dv=0 dx=0 dy=0 dh=0 dv=0
PairPos2: "'kern' Horizontal Kerning lookup 2 per glyph data 3" quotesinglbase dx=-50 dy=0 dh=-50 dv=0 dx=0 dy=0 dh=0 dv=0
PairPos2: "'kern' Horizontal Kerning lookup 2 per glyph data 3" quotedblbase dx=-50 dy=0 dh=-50 dv=0 dx=0 dy=0 dh=0 dv=0
PairPos2: "'kern' Horizontal Kerning lookup 2 per glyph data 3" period dx=-50 dy=0 dh=-50 dv=0 dx=0 dy=0 dh=0 dv=0
PairPos2: "'kern' Horizontal Kerning lookup 2 per glyph data 3" ellipsis dx=-50 dy=0 dh=-50 dv=0 dx=0 dy=0 dh=0 dv=0
PairPos2: "'kern' Horizontal Kerning lookup 2 per glyph data 3" comma dx=-50 dy=0 dh=-50 dv=0 dx=0 dy=0 dh=0 dv=0
PairPos2: "'kern' Horizontal Kerning lookup 2 per glyph data 3" uni00AD dx=-20 dy=0 dh=-20 dv=0 dx=0 dy=0 dh=0 dv=0
PairPos2: "'kern' Horizontal Kerning lookup 2 per glyph data 3" hyphen dx=-20 dy=0 dh=-20 dv=0 dx=0 dy=0 dh=0 dv=0
PairPos2: "'kern' Horizontal Kerning lookup 2 per glyph data 3" endash dx=-20 dy=0 dh=-20 dv=0 dx=0 dy=0 dh=0 dv=0
PairPos2: "'kern' Horizontal Kerning lookup 2 per glyph data 3" emdash dx=-20 dy=0 dh=-20 dv=0 dx=0 dy=0 dh=0 dv=0
PairPos2: "'kern' Horizontal Kerning lookup 2 per glyph data 2" uni05DA dx=10 dy=0 dh=10 dv=0 dx=0 dy=0 dh=0 dv=0
EndChar
StartChar: d
Encoding: 100 100 147
Width: 464
Flags: W
LayerCount: 2
Fore
SplineSet
320 615 m 2,0,1
 320 657 320 657 306.5 672.5 c 128,-1,2
 293 688 293 688 276 688 c 2,3,-1
 270 688 l 1,4,-1
 384 740 l 1,5,-1
 384 113 l 2,6,7
 384 71 384 71 397.5 55.5 c 128,-1,8
 411 40 411 40 428 40 c 2,9,-1
 434 40 l 1,10,-1
 320 -12 l 1,11,-1
 320 53 l 1,12,13
 308 33 308 33 276.5 10.5 c 128,-1,14
 245 -12 245 -12 194 -12 c 0,15,16
 150 -12 150 -12 115 10 c 128,-1,17
 80 32 80 32 60 71 c 128,-1,18
 40 110 40 110 40 158 c 0,19,20
 40 219 40 219 65 266 c 128,-1,21
 90 313 90 313 130 341 c 0,22,23
 175 372 175 372 228 372 c 0,24,25
 263 372 263 372 286 362.5 c 128,-1,26
 309 353 309 353 320 345 c 1,27,-1
 320 615 l 2,0,1
141.5 78.5 m 128,-1,29
 171 32 171 32 227 32 c 0,30,31
 248 32 248 32 270 43.5 c 128,-1,32
 292 55 292 55 306 75 c 128,-1,33
 320 95 320 95 320 120 c 2,34,-1
 320 238 l 2,35,36
 320 270 320 270 312.5 290 c 128,-1,37
 305 310 305 310 289 320 c 0,38,39
 264 336 264 336 228 336 c 0,40,41
 178 336 178 336 145 295.5 c 128,-1,42
 112 255 112 255 112 188 c 0,43,28
 112 125 112 125 141.5 78.5 c 128,-1,29
EndSplineSet
Validated: 1
PairPos2: "'kern' Horizontal Kerning lookup 2 per glyph data 3" uni05D6 dx=10 dy=0 dh=10 dv=0 dx=0 dy=0 dh=0 dv=0
PairPos2: "'kern' Horizontal Kerning lookup 2 per glyph data 3" uni05E9 dx=10 dy=0 dh=10 dv=0 dx=0 dy=0 dh=0 dv=0
PairPos2: "'kern' Horizontal Kerning lookup 2 per glyph data 3" question dx=10 dy=0 dh=10 dv=0 dx=0 dy=0 dh=0 dv=0
PairPos2: "'kern' Horizontal Kerning lookup 2 per glyph data 3" uni05E7 dx=10 dy=0 dh=10 dv=0 dx=0 dy=0 dh=0 dv=0
PairPos2: "'kern' Horizontal Kerning lookup 2 per glyph data 3" uni05DE dx=-10 dy=0 dh=-10 dv=0 dx=0 dy=0 dh=0 dv=0
PairPos2: "'kern' Horizontal Kerning lookup 2 per glyph data 3" uni05BE dx=20 dy=0 dh=20 dv=0 dx=0 dy=0 dh=0 dv=0
PairPos2: "'kern' Horizontal Kerning lookup 2 per glyph data 3" uni05DC dx=10 dy=0 dh=10 dv=0 dx=0 dy=0 dh=0 dv=0
PairPos2: "'kern' Horizontal Kerning lookup 2 per glyph data 3" uni05F3 dx=30 dy=0 dh=30 dv=0 dx=0 dy=0 dh=0 dv=0
PairPos2: "'kern' Horizontal Kerning lookup 2 per glyph data 3" uni05D3 dx=10 dy=0 dh=10 dv=0 dx=0 dy=0 dh=0 dv=0
PairPos2: "'kern' Horizontal Kerning lookup 2 per glyph data 3" quotesinglbase dx=-50 dy=0 dh=-50 dv=0 dx=0 dy=0 dh=0 dv=0
PairPos2: "'kern' Horizontal Kerning lookup 2 per glyph data 3" quotedblbase dx=-50 dy=0 dh=-50 dv=0 dx=0 dy=0 dh=0 dv=0
PairPos2: "'kern' Horizontal Kerning lookup 2 per glyph data 3" period dx=-50 dy=0 dh=-50 dv=0 dx=0 dy=0 dh=0 dv=0
PairPos2: "'kern' Horizontal Kerning lookup 2 per glyph data 3" ellipsis dx=-50 dy=0 dh=-50 dv=0 dx=0 dy=0 dh=0 dv=0
PairPos2: "'kern' Horizontal Kerning lookup 2 per glyph data 3" comma dx=-50 dy=0 dh=-50 dv=0 dx=0 dy=0 dh=0 dv=0
PairPos2: "'kern' Horizontal Kerning lookup 2 per glyph data 3" uni00AD dx=-20 dy=0 dh=-20 dv=0 dx=0 dy=0 dh=0 dv=0
PairPos2: "'kern' Horizontal Kerning lookup 2 per glyph data 3" hyphen dx=-20 dy=0 dh=-20 dv=0 dx=0 dy=0 dh=0 dv=0
PairPos2: "'kern' Horizontal Kerning lookup 2 per glyph data 3" endash dx=-20 dy=0 dh=-20 dv=0 dx=0 dy=0 dh=0 dv=0
PairPos2: "'kern' Horizontal Kerning lookup 2 per glyph data 3" emdash dx=-20 dy=0 dh=-20 dv=0 dx=0 dy=0 dh=0 dv=0
PairPos2: "'kern' Horizontal Kerning lookup 2 per glyph data 2" uni05DA dx=10 dy=0 dh=10 dv=0 dx=0 dy=0 dh=0 dv=0
EndChar
StartChar: e
Encoding: 101 101 151
Width: 400
Flags: W
LayerCount: 2
Fore
SplineSet
120 14.5 m 128,-1,1
 81 41 81 41 60.5 83.5 c 128,-1,2
 40 126 40 126 40 174 c 0,3,4
 40 236 40 236 64.5 281 c 128,-1,5
 89 326 89 326 128 349 c 128,-1,6
 167 372 167 372 209 372 c 0,7,8
 269 372 269 372 312.5 328.5 c 128,-1,9
 356 285 356 285 360 208 c 1,10,-1
 100 208 l 1,11,12
 100 160 100 160 118 123.5 c 128,-1,13
 136 87 136 87 166.5 67.5 c 128,-1,14
 197 48 197 48 233 48 c 0,15,16
 327 48 327 48 360 108 c 1,17,18
 351 54 351 54 311 21 c 128,-1,19
 271 -12 271 -12 213 -12 c 0,20,0
 159 -12 159 -12 120 14.5 c 128,-1,1
135 311.5 m 128,-1,22
 107 284 107 284 101 240 c 1,23,-1
 283 240 l 1,24,25
 283 286 283 286 258.5 312.5 c 128,-1,26
 234 339 234 339 202 339 c 0,27,21
 163 339 163 339 135 311.5 c 128,-1,22
EndSplineSet
Validated: 1
PairPos2: "'kern' Horizontal Kerning lookup 2 per glyph data 3" uni05D6 dx=10 dy=0 dh=10 dv=0 dx=0 dy=0 dh=0 dv=0
PairPos2: "'kern' Horizontal Kerning lookup 2 per glyph data 3" uni05E9 dx=10 dy=0 dh=10 dv=0 dx=0 dy=0 dh=0 dv=0
PairPos2: "'kern' Horizontal Kerning lookup 2 per glyph data 3" question dx=10 dy=0 dh=10 dv=0 dx=0 dy=0 dh=0 dv=0
PairPos2: "'kern' Horizontal Kerning lookup 2 per glyph data 3" uni05E7 dx=10 dy=0 dh=10 dv=0 dx=0 dy=0 dh=0 dv=0
PairPos2: "'kern' Horizontal Kerning lookup 2 per glyph data 3" uni05DE dx=-10 dy=0 dh=-10 dv=0 dx=0 dy=0 dh=0 dv=0
PairPos2: "'kern' Horizontal Kerning lookup 2 per glyph data 3" uni05BE dx=20 dy=0 dh=20 dv=0 dx=0 dy=0 dh=0 dv=0
PairPos2: "'kern' Horizontal Kerning lookup 2 per glyph data 3" uni05DC dx=10 dy=0 dh=10 dv=0 dx=0 dy=0 dh=0 dv=0
PairPos2: "'kern' Horizontal Kerning lookup 2 per glyph data 3" uni05F3 dx=30 dy=0 dh=30 dv=0 dx=0 dy=0 dh=0 dv=0
PairPos2: "'kern' Horizontal Kerning lookup 2 per glyph data 3" uni05D3 dx=10 dy=0 dh=10 dv=0 dx=0 dy=0 dh=0 dv=0
PairPos2: "'kern' Horizontal Kerning lookup 2 per glyph data 3" quotesinglbase dx=-50 dy=0 dh=-50 dv=0 dx=0 dy=0 dh=0 dv=0
PairPos2: "'kern' Horizontal Kerning lookup 2 per glyph data 3" quotedblbase dx=-50 dy=0 dh=-50 dv=0 dx=0 dy=0 dh=0 dv=0
PairPos2: "'kern' Horizontal Kerning lookup 2 per glyph data 3" period dx=-50 dy=0 dh=-50 dv=0 dx=0 dy=0 dh=0 dv=0
PairPos2: "'kern' Horizontal Kerning lookup 2 per glyph data 3" ellipsis dx=-50 dy=0 dh=-50 dv=0 dx=0 dy=0 dh=0 dv=0
PairPos2: "'kern' Horizontal Kerning lookup 2 per glyph data 3" comma dx=-50 dy=0 dh=-50 dv=0 dx=0 dy=0 dh=0 dv=0
PairPos2: "'kern' Horizontal Kerning lookup 2 per glyph data 3" uni00AD dx=-20 dy=0 dh=-20 dv=0 dx=0 dy=0 dh=0 dv=0
PairPos2: "'kern' Horizontal Kerning lookup 2 per glyph data 3" hyphen dx=-20 dy=0 dh=-20 dv=0 dx=0 dy=0 dh=0 dv=0
PairPos2: "'kern' Horizontal Kerning lookup 2 per glyph data 3" endash dx=-20 dy=0 dh=-20 dv=0 dx=0 dy=0 dh=0 dv=0
PairPos2: "'kern' Horizontal Kerning lookup 2 per glyph data 3" emdash dx=-20 dy=0 dh=-20 dv=0 dx=0 dy=0 dh=0 dv=0
PairPos2: "'kern' Horizontal Kerning lookup 2 per glyph data 2" uni05DA dx=10 dy=0 dh=10 dv=0 dx=0 dy=0 dh=0 dv=0
EndChar
StartChar: f
Encoding: 102 102 161
Width: 256
Flags: W
LayerCount: 2
Fore
SplineSet
291.5 681.5 m 128,-1,1
 266 692 266 692 240 692 c 0,2,3
 190 692 190 692 167 656.5 c 128,-1,4
 144 621 144 621 144 565 c 2,5,-1
 144 364 l 1,6,-1
 248 364 l 1,7,-1
 248 324 l 1,8,-1
 144 324 l 1,9,-1
 144 100 l 2,10,11
 144 57 144 57 153 34.5 c 128,-1,12
 162 12 162 12 173 4.5 c 128,-1,13
 184 -3 184 -3 184 0 c 2,14,-1
 39 0 l 2,15,16
 39 -3 39 -3 50.5 4.5 c 128,-1,17
 62 12 62 12 71 34.5 c 128,-1,18
 80 57 80 57 80 100 c 2,19,-1
 80 324 l 1,20,-1
 24 324 l 1,21,-1
 24 364 l 1,22,-1
 80 364 l 1,23,-1
 80 503 l 2,24,25
 80 573 80 573 103.5 626.5 c 128,-1,26
 127 680 127 680 169.5 710 c 128,-1,27
 212 740 212 740 267 740 c 0,28,29
 310 740 310 740 335 731 c 1,30,-1
 335 653 l 1,31,0
 317 671 317 671 291.5 681.5 c 128,-1,1
EndSplineSet
Validated: 5
PairPos2: "'kern' Horizontal Kerning lookup 2 per glyph data 3" uni05D6 dx=10 dy=0 dh=10 dv=0 dx=0 dy=0 dh=0 dv=0
PairPos2: "'kern' Horizontal Kerning lookup 2 per glyph data 3" uni05E9 dx=10 dy=0 dh=10 dv=0 dx=0 dy=0 dh=0 dv=0
PairPos2: "'kern' Horizontal Kerning lookup 2 per glyph data 3" question dx=10 dy=0 dh=10 dv=0 dx=0 dy=0 dh=0 dv=0
PairPos2: "'kern' Horizontal Kerning lookup 2 per glyph data 3" uni05E7 dx=10 dy=0 dh=10 dv=0 dx=0 dy=0 dh=0 dv=0
PairPos2: "'kern' Horizontal Kerning lookup 2 per glyph data 3" uni05DE dx=-10 dy=0 dh=-10 dv=0 dx=0 dy=0 dh=0 dv=0
PairPos2: "'kern' Horizontal Kerning lookup 2 per glyph data 3" uni05BE dx=20 dy=0 dh=20 dv=0 dx=0 dy=0 dh=0 dv=0
PairPos2: "'kern' Horizontal Kerning lookup 2 per glyph data 3" uni05DC dx=10 dy=0 dh=10 dv=0 dx=0 dy=0 dh=0 dv=0
PairPos2: "'kern' Horizontal Kerning lookup 2 per glyph data 3" uni05F3 dx=30 dy=0 dh=30 dv=0 dx=0 dy=0 dh=0 dv=0
PairPos2: "'kern' Horizontal Kerning lookup 2 per glyph data 3" uni05D3 dx=10 dy=0 dh=10 dv=0 dx=0 dy=0 dh=0 dv=0
PairPos2: "'kern' Horizontal Kerning lookup 2 per glyph data 3" quotesinglbase dx=-50 dy=0 dh=-50 dv=0 dx=0 dy=0 dh=0 dv=0
PairPos2: "'kern' Horizontal Kerning lookup 2 per glyph data 3" quotedblbase dx=-50 dy=0 dh=-50 dv=0 dx=0 dy=0 dh=0 dv=0
PairPos2: "'kern' Horizontal Kerning lookup 2 per glyph data 3" period dx=-50 dy=0 dh=-50 dv=0 dx=0 dy=0 dh=0 dv=0
PairPos2: "'kern' Horizontal Kerning lookup 2 per glyph data 3" ellipsis dx=-50 dy=0 dh=-50 dv=0 dx=0 dy=0 dh=0 dv=0
PairPos2: "'kern' Horizontal Kerning lookup 2 per glyph data 3" comma dx=-50 dy=0 dh=-50 dv=0 dx=0 dy=0 dh=0 dv=0
PairPos2: "'kern' Horizontal Kerning lookup 2 per glyph data 3" uni00AD dx=-20 dy=0 dh=-20 dv=0 dx=0 dy=0 dh=0 dv=0
PairPos2: "'kern' Horizontal Kerning lookup 2 per glyph data 3" hyphen dx=-20 dy=0 dh=-20 dv=0 dx=0 dy=0 dh=0 dv=0
PairPos2: "'kern' Horizontal Kerning lookup 2 per glyph data 3" endash dx=-20 dy=0 dh=-20 dv=0 dx=0 dy=0 dh=0 dv=0
PairPos2: "'kern' Horizontal Kerning lookup 2 per glyph data 3" emdash dx=-20 dy=0 dh=-20 dv=0 dx=0 dy=0 dh=0 dv=0
PairPos2: "'kern' Horizontal Kerning lookup 2 per glyph data 2" uni05DA dx=10 dy=0 dh=10 dv=0 dx=0 dy=0 dh=0 dv=0
EndChar
StartChar: g
Encoding: 103 103 162
Width: 416
Flags: W
LayerCount: 2
Fore
SplineSet
399 364 m 1,0,-1
 399 324 l 1,1,-1
 316 324 l 1,2,3
 352 280 352 280 352 234 c 0,4,5
 352 195 352 195 333 161.5 c 128,-1,6
 314 128 314 128 278.5 108 c 128,-1,7
 243 88 243 88 196 88 c 0,8,9
 172 88 172 88 148 92 c 1,10,11
 112 72 112 72 112 47 c 0,12,13
 112 37 112 37 117 28 c 128,-1,14
 122 19 122 19 132 15 c 0,15,16
 146 9 146 9 168 6.5 c 128,-1,17
 190 4 190 4 214 3 c 128,-1,18
 238 2 238 2 248 2 c 0,19,20
 326 -1 326 -1 359 -28 c 128,-1,21
 392 -55 392 -55 392 -93 c 0,22,23
 392 -133 392 -133 366.5 -166.5 c 128,-1,24
 341 -200 341 -200 293 -219.5 c 128,-1,25
 245 -239 245 -239 182 -239 c 0,26,27
 136 -239 136 -239 102 -226 c 128,-1,28
 68 -213 68 -213 50 -192 c 128,-1,29
 32 -171 32 -171 32 -147 c 0,30,31
 32 -115 32 -115 59.5 -87.5 c 128,-1,32
 87 -60 87 -60 128 -46 c 1,33,34
 95 -44 95 -44 75.5 -24 c 128,-1,35
 56 -4 56 -4 56 19 c 0,36,37
 56 44 56 44 73 62.5 c 128,-1,38
 90 81 90 81 122 102 c 1,39,40
 86 118 86 118 67 152 c 128,-1,41
 48 186 48 186 48 224 c 0,42,43
 48 261 48 261 66.5 295 c 128,-1,44
 85 329 85 329 121.5 350.5 c 128,-1,45
 158 372 158 372 208 372 c 0,46,47
 234 372 234 372 262 364 c 1,48,-1
 399 364 l 1,0,-1
136 309.5 m 128,-1,50
 112 283 112 283 112 242 c 0,51,52
 112 191 112 191 138.5 158.5 c 128,-1,53
 165 126 165 126 203 126 c 0,54,55
 243 126 243 126 265.5 152.5 c 128,-1,56
 288 179 288 179 288 223 c 0,57,58
 288 273 288 273 261.5 304.5 c 128,-1,59
 235 336 235 336 197 336 c 0,60,49
 160 336 160 336 136 309.5 c 128,-1,50
180 -58 m 2,61,62
 143 -58 143 -58 119.5 -81 c 128,-1,63
 96 -104 96 -104 96 -132 c 0,64,65
 96 -159 96 -159 126.5 -178.5 c 128,-1,66
 157 -198 157 -198 208 -198 c 0,67,68
 269 -198 269 -198 302.5 -175 c 128,-1,69
 336 -152 336 -152 336 -118 c 0,70,71
 336 -88 336 -88 304 -73 c 128,-1,72
 272 -58 272 -58 201 -58 c 2,73,-1
 180 -58 l 2,61,62
EndSplineSet
Validated: 1
PairPos2: "'kern' Horizontal Kerning lookup 2 per glyph data 3" uni05D6 dx=10 dy=0 dh=10 dv=0 dx=0 dy=0 dh=0 dv=0
PairPos2: "'kern' Horizontal Kerning lookup 2 per glyph data 3" uni05E9 dx=10 dy=0 dh=10 dv=0 dx=0 dy=0 dh=0 dv=0
PairPos2: "'kern' Horizontal Kerning lookup 2 per glyph data 3" question dx=10 dy=0 dh=10 dv=0 dx=0 dy=0 dh=0 dv=0
PairPos2: "'kern' Horizontal Kerning lookup 2 per glyph data 3" uni05E7 dx=10 dy=0 dh=10 dv=0 dx=0 dy=0 dh=0 dv=0
PairPos2: "'kern' Horizontal Kerning lookup 2 per glyph data 3" uni05DE dx=-10 dy=0 dh=-10 dv=0 dx=0 dy=0 dh=0 dv=0
PairPos2: "'kern' Horizontal Kerning lookup 2 per glyph data 3" uni05BE dx=20 dy=0 dh=20 dv=0 dx=0 dy=0 dh=0 dv=0
PairPos2: "'kern' Horizontal Kerning lookup 2 per glyph data 3" uni05DC dx=10 dy=0 dh=10 dv=0 dx=0 dy=0 dh=0 dv=0
PairPos2: "'kern' Horizontal Kerning lookup 2 per glyph data 3" uni05F3 dx=30 dy=0 dh=30 dv=0 dx=0 dy=0 dh=0 dv=0
PairPos2: "'kern' Horizontal Kerning lookup 2 per glyph data 3" uni05D3 dx=10 dy=0 dh=10 dv=0 dx=0 dy=0 dh=0 dv=0
PairPos2: "'kern' Horizontal Kerning lookup 2 per glyph data 3" quotesinglbase dx=-50 dy=0 dh=-50 dv=0 dx=0 dy=0 dh=0 dv=0
PairPos2: "'kern' Horizontal Kerning lookup 2 per glyph data 3" quotedblbase dx=-50 dy=0 dh=-50 dv=0 dx=0 dy=0 dh=0 dv=0
PairPos2: "'kern' Horizontal Kerning lookup 2 per glyph data 3" period dx=-50 dy=0 dh=-50 dv=0 dx=0 dy=0 dh=0 dv=0
PairPos2: "'kern' Horizontal Kerning lookup 2 per glyph data 3" ellipsis dx=-50 dy=0 dh=-50 dv=0 dx=0 dy=0 dh=0 dv=0
PairPos2: "'kern' Horizontal Kerning lookup 2 per glyph data 3" comma dx=-50 dy=0 dh=-50 dv=0 dx=0 dy=0 dh=0 dv=0
PairPos2: "'kern' Horizontal Kerning lookup 2 per glyph data 3" uni00AD dx=-20 dy=0 dh=-20 dv=0 dx=0 dy=0 dh=0 dv=0
PairPos2: "'kern' Horizontal Kerning lookup 2 per glyph data 3" hyphen dx=-20 dy=0 dh=-20 dv=0 dx=0 dy=0 dh=0 dv=0
PairPos2: "'kern' Horizontal Kerning lookup 2 per glyph data 3" endash dx=-20 dy=0 dh=-20 dv=0 dx=0 dy=0 dh=0 dv=0
PairPos2: "'kern' Horizontal Kerning lookup 2 per glyph data 3" emdash dx=-20 dy=0 dh=-20 dv=0 dx=0 dy=0 dh=0 dv=0
PairPos2: "'kern' Horizontal Kerning lookup 2 per glyph data 2" uni05DA dx=10 dy=0 dh=10 dv=0 dx=0 dy=0 dh=0 dv=0
EndChar
